<?xml version="1.0" encoding="utf-8"?>
<svg version="1.1" width="1000" height="1000" xmlns="http://www.w3.org/2000/svg">
  <defs/>
  <path d="M0 0 C2.13229152 1.8368925 4.27809239 3.65499707 6.44091797 5.45581055 C15.09152551 12.69738243 23.1804415 20.39818369 31.13037109 28.39868164 C33.14515296 30.42425216 35.17050736 32.43881118 37.19702148 34.45263672 C43.66310992 40.91250406 49.87233531 47.39112379 55.52294922 54.58666992 C57.28893077 56.8089292 59.14480441 58.8970045 61.07397461 60.97802734 C123.70136389 130.79826529 160.95351221 224.97174913 176.85913086 414.28662109 C175.06157023 442.06997041 170.63244808 469.75500095 164.32397461 496.85302734 C164.06922363 497.95308105 163.81447266 499.05313477 163.55200195 500.18652344 C145.10054459 578.44615292 106.12981285 654.19325144 51.51928711 713.44677734 C50.33123736 714.74898134 49.15014026 716.05845324 48.01147461 717.40405273 C42.3558185 724.0535341 36.1788183 730.18426784 30.01000977 736.35229492 C28.08701279 738.27747437 26.17216887 740.21051765 24.25756836 742.14404297 C17.96052019 748.46915801 11.6381056 754.50801903 4.61450195 760.0300293 C2.38506742 761.80440445 0.28790888 763.66646999 -1.80102539 765.60302734 C-23.37957561 784.95856529 -48.45707455 801.24275254 -73.54760742 815.63232422 C-74.94652938 816.43464239 -76.34341066 817.24053118 -77.73803711 818.05029297 C-164.41695208 868.28583202 -269.34057112 890.10779636 -437.67602539 868.85302734 C-438.7760791 868.59827637 -439.87613281 868.34352539 -441.00952148 868.08105469 C-490.61038634 856.38654183 -538.24213205 836.43973319 -581.67602539 809.85302734 C-582.42335938 809.40121094 -583.17069336 808.94939453 -583.94067383 808.48388672 C-599.56220753 799.0369583 -614.72117981 788.81624507 -628.89428711 777.29931641 C-630.83676325 775.72255172 -632.78924186 774.15868474 -634.74243164 772.59521484 C-641.40561429 767.24321721 -647.98244211 761.84300895 -654.26977539 756.04833984 C-655.57197939 754.8602901 -656.88145129 753.67919299 -658.22705078 752.54052734 C-664.87653215 746.88487123 -671.00726589 740.70787103 -677.17529297 734.5390625 C-679.10047241 732.61606552 -681.0335157 730.7012216 -682.96704102 728.78662109 C-689.29215606 722.48957293 -695.33101708 716.16715833 -700.85302734 709.14355469 C-702.62740249 706.91412015 -704.48946803 704.81696161 -706.42602539 702.72802734 C-725.78156333 681.14947712 -742.06575058 656.07197819 -756.45532227 630.98144531 C-757.25764043 629.58252335 -758.06352922 628.18564207 -758.87329102 626.79101562 C-782.26105701 586.43659288 -799.16082832 542.25925781 -809.67602539 496.85302734 C-810.06781982 495.17007568 -810.06781982 495.17007568 -810.4675293 493.453125 C-827.51941839 418.91562091 -827.00246841 341.27870453 -809.67602539 266.85302734 C-809.42127441 265.75297363 -809.16652344 264.65291992 -808.90405273 263.51953125 C-797.21941772 213.96056204 -777.32607367 166.21166886 -750.67602539 122.85302734 C-750.15411621 121.99789551 -749.63220703 121.14276367 -749.09448242 120.26171875 C-733.92514824 95.48946956 -716.57663263 71.63992103 -696.87133789 50.25927734 C-695.67771328 48.95096282 -694.49131196 47.63518891 -693.34594727 46.28442383 C-687.82103482 39.79712392 -681.81109272 33.8019996 -675.78930664 27.78100586 C-673.93873572 25.92825266 -672.09632463 24.06764029 -670.25415039 22.20654297 C-664.1044464 16.02832659 -657.91787937 10.15312396 -651.05737305 4.76074219 C-648.53821689 2.74262796 -646.16920088 0.60793585 -643.80102539 -1.58447266 C-571.14956046 -67.51738519 -469.75530442 -106.08918236 -358.67602539 -117.14697266 C-357.85183105 -117.22044922 -357.02763672 -117.29392578 -356.1784668 -117.36962891 C-258.59527918 -125.74472102 -156.58292624 -100.53771692 0 0 Z " fill="#F6F5F5" transform="translate(822.676025390625,118.14697265625)"/>
  <path d="M 0 0 C 2.132 1.837 4.278 3.655 6.441 5.456 C 15.092 12.697 23.18 20.398 31.13 28.399 C 33.145 30.424 35.171 32.439 37.197 34.453 C 43.663 40.913 49.872 47.391 55.523 54.587 C 57.289 56.809 59.145 58.897 61.074 60.978 C 123.701 130.798 160.954 224.972 176.859 414.287 C 175.062 442.07 170.632 469.755 164.324 496.853 C 164.069 497.953 163.814 499.053 163.552 500.187 C 145.101 578.446 106.13 654.193 51.519 713.447 C 50.331 714.749 49.15 716.058 48.011 717.404 C 42.356 724.054 36.179 730.184 30.01 736.352 C 28.087 738.277 26.172 740.211 24.258 742.144 C 17.961 748.469 11.638 754.508 4.615 760.03 C 2.385 761.804 0.288 763.666 -1.801 765.603 C -23.38 784.959 -48.457 801.243 -73.548 815.632 C -74.947 816.435 -76.343 817.241 -77.738 818.05 C -164.417 868.286 -269.341 890.108 -437.676 868.853 C -438.776 868.598 -439.876 868.344 -441.01 868.081 C -490.61 856.387 -538.242 836.44 -581.676 809.853 C -582.423 809.401 -583.171 808.949 -583.941 808.484 C -599.562 799.037 -614.721 788.816 -628.894 777.299 C -630.837 775.723 -632.789 774.159 -634.742 772.595 C -641.406 767.243 -647.982 761.843 -654.27 756.048 C -655.572 754.86 -656.881 753.679 -658.227 752.541 C -664.877 746.885 -671.007 740.708 -677.175 734.539 C -679.1 732.616 -681.034 730.701 -682.967 728.787 C -689.292 722.49 -695.331 716.167 -700.853 709.144 C -702.627 706.914 -704.489 704.817 -706.426 702.728 C -725.782 681.149 -742.066 656.072 -756.455 630.981 C -757.258 629.583 -758.064 628.186 -758.873 626.791 C -782.261 586.437 -799.161 542.259 -809.676 496.853 C -810.068 495.17 -810.068 495.17 -810.468 493.453 C -827.519 418.916 -827.002 341.279 -809.676 266.853 C -809.421 265.753 -809.167 264.653 -808.904 263.52 C -797.219 213.961 -777.326 166.212 -750.676 122.853 C -750.154 121.998 -749.632 121.143 -749.094 120.262 C -733.925 95.489 -716.577 71.64 -696.871 50.259 C -695.678 48.951 -694.491 47.635 -693.346 46.284 C -687.821 39.797 -681.811 33.802 -675.789 27.781 C -673.939 25.928 -672.096 24.068 -670.254 22.207 C -664.104 16.028 -657.918 10.153 -651.057 4.761 C -648.538 2.743 -646.169 0.608 -643.801 -1.584 C -571.15 -67.517 -469.755 -106.089 -358.676 -117.147 C -357.852 -117.22 -357.028 -117.294 -356.178 -117.37 C -258.595 -125.745 -156.583 -100.538 0 0 Z M -437.066 -70.277 C -438.478 -69.821 -468.088 -59.691 -469.528 -59.226 C -510.008 -46.004 -548.738 -26.427 -583.676 -2.147 C -585.115 -1.162 -586.553 -0.178 -587.992 0.806 C -597.96 7.678 -607.41 15.065 -616.676 22.853 C -617.291 23.369 -617.906 23.885 -618.54 24.417 C -630.499 34.481 -641.915 45.009 -652.989 56.041 C -654.261 57.306 -654.261 57.306 -655.559 58.597 C -660.472 63.522 -665.162 68.562 -669.676 73.853 C -670.661 74.983 -671.646 76.112 -672.633 77.24 C -679.277 84.897 -685.637 92.708 -691.676 100.853 C -692.428 101.866 -692.428 101.866 -693.196 102.9 C -751.146 181.295 -784.326 276.365 -784.926 379.166 C -784.927 380.051 -784.927 380.936 -784.928 381.847 C -784.845 451.434 -769.241 522.916 -736.795 584.705 C -735.5 587.191 -734.237 589.694 -732.973 592.197 C -715.706 626.156 -693.727 658.393 -667.871 686.447 C -666.661 687.773 -665.459 689.108 -664.293 690.474 C -659.165 696.473 -653.648 702.067 -648.071 707.643 C -646.438 709.279 -644.813 710.922 -643.188 712.566 C -637.395 718.389 -631.51 723.841 -625.061 728.941 C -622.726 730.813 -620.508 732.77 -618.301 734.791 C -612.688 739.819 -606.713 744.352 -600.676 748.853 C -600.02 749.344 -599.364 749.836 -598.688 750.342 C -547.909 788.199 -489.464 815.755 -427.676 829.853 C -426.52 830.118 -425.363 830.383 -424.172 830.656 C -343.468 848.867 -257.395 845.964 -178.676 819.853 C -177.109 819.339 -177.109 819.339 -175.51 818.814 C -123.32 801.59 -74.459 775.384 -31.676 740.853 C -30.699 740.071 -29.722 739.288 -28.715 738.482 C -23.419 734.202 -18.284 729.784 -13.258 725.189 C -11.864 723.928 -10.464 722.672 -9.033 721.453 C -3.041 716.33 2.545 710.819 8.114 705.248 C 9.75 703.615 11.393 701.99 13.037 700.365 C 18.844 694.588 24.283 688.723 29.364 682.287 C 31.403 679.754 33.553 677.364 35.761 674.978 C 56.233 652.417 72.68 625.427 87.324 598.853 C 87.758 598.071 88.192 597.29 88.639 596.484 C 116.983 545.189 134.548 486.133 140.324 427.853 C 140.427 426.817 140.53 425.782 140.636 424.714 C 148.853 337.429 132.942 247.771 92.348 169.828 C 91.24 167.691 90.153 165.544 89.066 163.396 C 72.309 130.59 50.5 99.363 25.519 72.259 C 24.303 70.927 23.096 69.586 21.924 68.214 C 16.928 62.377 11.576 56.919 6.146 51.49 C 4.585 49.927 3.033 48.356 1.48 46.785 C -4.172 41.101 -9.93 35.807 -16.224 30.831 C -18.762 28.784 -21.159 26.63 -23.551 24.416 C -29.313 19.187 -35.438 14.49 -41.676 9.853 C -42.658 9.118 -65.215 -4.964 -66.257 -5.657 C -202.188 -96.101 -316.287 -91.707 -437.066 -70.277 Z" fill="#000000" transform="translate(822.676025390625,118.14697265625)"/>
  <path d="M 824.172 116.216 C 826.32 118.067 828.482 119.899 830.662 121.714 C 839.377 129.01 847.528 136.769 855.537 144.83 C 857.568 146.872 859.608 148.901 861.65 150.93 C 868.165 157.44 874.421 163.967 880.114 171.217 C 881.894 173.457 883.938 175.411 885.707 177.657 C 942.372 249.616 994.944 307.432 1006.143 498.718 C 1004.332 526.712 996.094 589.534 989.737 616.837 C 989.481 617.945 989.223 619.054 988.959 620.196 C 970.368 699.049 931.103 775.371 876.08 835.074 C 874.884 836.386 873.693 837.705 872.546 839.06 C 866.848 845.76 860.624 851.938 854.409 858.153 C 852.471 860.092 850.542 862.04 848.613 863.988 C 842.268 870.361 835.898 876.446 828.821 882.01 C 826.575 883.798 824.463 885.674 822.358 887.625 C 800.616 907.128 775.349 923.536 750.069 938.034 C 748.659 938.842 747.252 939.654 745.847 940.47 C 658.513 991.087 552.797 1013.074 383.19 991.658 C 382.082 991.401 380.974 991.144 379.831 990.881 C 329.856 979.097 281.864 959 238.102 932.211 C 237.35 931.756 236.596 931.3 235.821 930.831 C 220.082 921.313 204.808 911.015 190.527 899.41 C 188.57 897.822 186.603 896.247 184.636 894.67 C 177.922 889.278 171.295 883.837 164.961 877.998 C 163.649 876.801 162.329 875.611 160.974 874.463 C 154.274 868.765 148.097 862.542 141.883 856.326 C 139.942 854.389 137.994 852.459 136.046 850.53 C 129.673 844.185 123.589 837.815 118.026 830.738 C 116.237 828.491 114.362 826.378 112.41 824.274 C 92.909 802.531 76.501 777.264 62.003 751.983 C 61.195 750.574 60.383 749.166 59.567 747.761 C 36.002 707.1 18.976 662.587 8.381 616.837 C 7.986 615.141 7.986 615.141 7.583 613.411 C -9.597 538.309 -9.077 460.084 8.381 385.093 C 8.637 383.985 8.894 382.877 9.159 381.735 C 20.932 331.8 40.975 283.689 67.827 240.001 C 68.352 239.14 68.879 238.279 69.42 237.39 C 84.704 212.431 102.184 188.4 122.038 166.857 C 123.24 165.539 124.436 164.213 125.589 162.852 C 131.156 156.316 137.212 150.274 143.279 144.208 C 145.143 142.341 147 140.467 148.855 138.591 C 155.052 132.367 161.285 126.447 168.198 121.014 C 170.736 118.98 173.123 116.829 175.508 114.621 C 248.709 48.187 350.869 9.323 462.787 -1.818 C 463.618 -1.893 464.448 -1.967 465.304 -2.043 C 563.623 -10.482 686.787 7.944 824.172 116.216 Z M 430.545 16.317 C 429.719 16.437 428.893 16.556 428.043 16.678 C 423.169 17.388 418.325 18.207 413.48 19.089 C 412.773 19.216 412.065 19.343 411.336 19.474 C 359.751 28.798 309.511 46.471 263.863 72.287 C 261.411 73.674 258.949 75.043 256.486 76.411 C 238.019 86.773 220.363 98.649 203.643 111.638 C 201.803 113.067 199.954 114.483 198.104 115.899 C 191.595 120.911 185.369 126.097 179.358 131.702 C 177.187 133.703 174.992 135.656 172.765 137.594 C 160.826 148.007 149.637 159.047 138.952 170.739 C 137.568 172.25 136.174 173.753 134.777 175.252 C 129.012 181.509 123.802 188.148 118.601 194.873 C 117.257 196.597 115.896 198.303 114.524 200.005 C 96.572 222.343 81.583 246.549 68.132 271.81 C 66.984 273.952 65.813 276.078 64.627 278.199 C 31 338.669 12.489 414.199 12.206 483.412 C 12.199 484.578 12.192 485.744 12.185 486.945 C 12.067 511.91 11.953 536.656 15.433 561.421 C 15.534 562.135 15.634 562.848 15.738 563.583 C 23.372 617.39 38.544 670.107 63.676 718.438 C 64.976 720.952 66.251 723.48 67.527 726.006 C 80.408 751.325 95.897 774.685 113.166 797.195 C 113.65 797.826 114.134 798.459 114.632 799.11 C 119.941 806.024 125.371 812.73 131.275 819.153 C 133.066 821.103 134.804 823.083 136.528 825.092 C 146.796 836.867 157.506 848.562 169.38 858.728 C 171.55 860.625 173.655 862.579 175.758 864.549 C 182.193 870.556 188.93 876.042 195.92 881.39 C 197.81 882.846 199.679 884.326 201.547 885.81 C 219.636 900.074 239.131 912.956 259.261 924.15 C 260.134 924.642 261.006 925.132 261.904 925.638 C 328.465 963.019 406.242 986.524 482.99 986.824 C 484.203 986.832 485.417 986.839 486.668 986.846 C 490.567 986.864 494.466 986.87 498.367 986.872 C 499.031 986.872 499.696 986.873 500.381 986.873 C 520.95 986.88 541.133 986.442 561.528 983.597 C 562.807 983.431 564.087 983.262 565.406 983.09 C 650.585 971.883 735.215 937.271 805.592 879.273 C 808.094 877.202 810.632 875.176 813.164 873.141 C 818.118 869.089 822.82 864.805 827.502 860.444 C 829.757 858.349 832.068 856.327 834.401 854.315 C 838.865 850.425 843.057 846.293 847.231 842.095 C 847.953 841.378 848.674 840.66 849.417 839.921 C 853.525 835.806 857.453 831.591 861.248 827.187 C 863.141 824.996 865.103 822.874 867.067 820.747 C 872.189 815.07 876.853 809.076 881.528 803.031 C 882.883 801.294 884.259 799.574 885.644 797.859 C 943.871 725.565 977.308 634.2 986.919 516.028 C 986.927 514.814 986.934 513.6 986.941 512.349 C 986.958 508.449 986.965 504.55 986.966 500.65 C 986.967 499.985 986.967 499.32 986.968 498.635 C 986.975 478.066 986.537 457.882 983.692 437.487 C 983.525 436.207 983.357 434.929 983.184 433.609 C 976.931 386.076 963.191 340.058 943.39 296.426 C 942.987 295.533 942.585 294.642 942.17 293.722 C 925.138 256.203 902.463 219.693 875.403 188.539 C 872.915 185.654 870.521 182.708 868.138 179.735 C 864.843 175.682 861.372 171.974 857.626 168.336 C 855.821 166.536 854.17 164.676 852.521 162.732 C 845.509 154.595 837.735 146.93 829.548 139.978 C 827.035 137.817 824.607 135.57 822.169 133.323 C 816.723 128.369 811.12 123.666 805.355 119.09 C 804.696 118.566 804.038 118.04 803.359 117.5 C 739.819 66.995 663.528 32.048 583.378 18.521 C 581.745 18.247 581.745 18.247 580.08 17.964 C 577.02 17.48 573.959 17.038 570.889 16.63 C 569.242 16.408 567.596 16.175 565.95 15.935 C 545.659 13.029 525.544 12.824 505.089 12.901 C 500.487 12.918 495.884 12.908 491.282 12.891 C 470.831 12.825 450.815 13.292 430.545 16.317 Z" fill="#FEFEFE" style=""/>
  <path d="M0 0 C0.85416 -0.01517166 1.70832001 -0.03034332 2.58836365 -0.04597473 C26.44251209 -0.38825058 49.2108212 1.5496306 72.71240234 5.54345703 C76.83434268 6.24326629 80.96194828 6.87887069 85.09765625 7.4921875 C87.32041984 7.82610916 89.54308602 8.16068035 91.765625 8.49609375 C92.71332764 8.63821289 93.66103027 8.78033203 94.63745117 8.92675781 C106.93942733 10.89182148 120.94015526 14.42209844 129.265625 24.30859375 C132.37169358 27.59737225 134.15973894 29.17034474 138.82421875 29.4765625 C139.77425781 29.48300781 140.72429687 29.48945313 141.703125 29.49609375 C143.12431641 29.51736328 143.12431641 29.51736328 144.57421875 29.5390625 C147.40117546 29.29698638 148.91662583 28.87125418 151.265625 27.30859375 C152.26907235 26.1159719 153.22419148 24.88180905 154.140625 23.62109375 C168.73997003 6.65012516 198.73019184 7.03444983 219.26647949 4.17524719 C223.12723602 3.6319566 226.96649374 3.02974522 230.80078125 2.32421875 C243.91064102 0.01240339 256.9913932 0.04966053 270.265625 0.05859375 C271.25649109 0.05918793 272.24735718 0.0597821 273.26824951 0.06039429 C276.12166732 0.06693082 278.97478779 0.08343727 281.828125 0.10546875 C282.6897525 0.10986465 283.55138 0.11426056 284.43911743 0.11878967 C288.82999732 0.1700609 292.93646262 0.49714675 297.265625 1.30859375 C298.71287878 1.42004154 300.16261258 1.50444277 301.61328125 1.5546875 C302.38349609 1.58755859 303.15371094 1.62042969 303.94726562 1.65429688 C305.53826043 1.71563958 307.12941722 1.77291251 308.72070312 1.82617188 C316.56242591 2.17454682 316.56242591 2.17454682 320.265625 4.30859375 C326.87309137 12.90650806 327.51539095 26.86714478 327.703125 37.37109375 C327.72536133 38.07298828 327.74759766 38.77488281 327.77050781 39.49804688 C327.74250323 45.97644001 324.97234116 49.38306783 320.828125 54.05859375 C312.05363786 64.63091158 308.38358649 80.42426889 307.765625 93.93359375 C306.95372533 110.53480547 300.32292897 125.90034042 288.8828125 137.9375 C281.22980637 144.87089511 272.30229754 149.51598908 262.953125 153.74609375 C262.22488525 154.07625488 261.49664551 154.40641602 260.74633789 154.74658203 C252.50368981 158.31313937 244.17691317 159.68658076 235.265625 160.30859375 C234.31945312 160.44394531 233.37328125 160.57929688 232.3984375 160.71875 C217.1460727 162.04261051 198.96188901 153.78826857 187.33984375 144.1640625 C186.65535156 143.55175781 185.97085938 142.93945312 185.265625 142.30859375 C184.55019531 141.74785156 183.83476563 141.18710937 183.09765625 140.609375 C170.55208698 130.51172169 164.25842545 114.43909069 157.27246094 100.32958984 C156.29381798 98.36518481 155.30201189 96.40810176 154.3046875 94.453125 C149.79230137 85.58996948 146.34842274 76.75376128 143.265625 67.30859375 C142.605625 67.30859375 141.945625 67.30859375 141.265625 67.30859375 C140.87697266 68.59443359 140.87697266 68.59443359 140.48046875 69.90625 C139.220725 73.43434262 137.64812584 76.47311926 135.828125 79.74609375 C132.21686145 86.33884759 128.96595044 93.07067865 125.765625 99.87109375 C112.70397423 127.45140946 98.5728087 146.50259306 69.265625 157.30859375 C68.04552734 157.82292969 68.04552734 157.82292969 66.80078125 158.34765625 C53.04959974 163.82764292 35.16087004 159.94674309 21.84765625 154.8515625 C2.61746927 146.56811228 -12.63522121 135.33953661 -20.734375 115.30859375 C-23.44934588 107.38695174 -24.90938309 99.72558177 -25.671875 91.43359375 C-26.79294874 79.33431128 -29.87267485 67.75588972 -35.81640625 57.09375 C-36.734375 55.30859375 -36.734375 55.30859375 -36.734375 53.30859375 C-37.311875 53.10234375 -37.889375 52.89609375 -38.484375 52.68359375 C-41.6873509 50.72621959 -42.91999075 48.58800875 -44.734375 45.30859375 C-45.1038626 42.49525113 -45.26034433 40.16364727 -45.171875 37.37109375 C-45.15866211 36.63181641 -45.14544922 35.89253906 -45.13183594 35.13085938 C-44.81704525 25.30099548 -43.89805281 12.32903165 -37.734375 4.30859375 C-33.37226896 1.79483773 -28.70150231 1.91024862 -23.796875 1.74609375 C-22.2251337 1.68549339 -20.65350988 1.62175479 -19.08203125 1.5546875 C-18.39117432 1.53075928 -17.70031738 1.50683105 -16.98852539 1.48217773 C-14.64468481 1.34060868 -14.64468481 1.34060868 -12.00854492 0.8125 C-7.98954641 0.19396201 -4.06081892 0.07083881 0 0 Z " fill="#2E2E31" transform="translate(366.734375,350.69140625)"/>
  <path d="M0 0 C1.2158226 -0.01469078 1.2158226 -0.01469078 2.45620728 -0.02967834 C24.57160114 -0.24023251 46.11237729 0.81793418 67.96875 4.23828125 C68.68001038 4.34954346 69.39127075 4.46080566 70.12408447 4.57543945 C75.06336147 5.35905939 79.98651283 6.21577277 84.90625 7.11328125 C86.14971191 7.33322754 87.39317383 7.55317383 88.67431641 7.77978516 C97.60970653 9.53266073 107.77615384 12.20295855 114.09375 19.23828125 C121.87772724 31.69264483 118.85426364 50.5592297 115.71875 64.17578125 C114.34656878 70.08205594 112.56137018 75.50683394 109.99951172 81.00317383 C108.95244476 83.2736376 108.00406006 85.56598781 107.07421875 87.88671875 C99.39886898 106.8956514 90.18340261 121.17428265 70.66015625 129.6796875 C68.4342397 130.54174767 66.19575995 131.37214307 63.9453125 132.16796875 C61.08463914 133.13296137 61.08463914 133.13296137 58.9296875 134.24609375 C50.68594132 138.27717668 39.3647719 136.11636757 30.78125 133.92578125 C24.57301297 131.79413094 18.89120927 128.72260243 13.15625 125.55078125 C11.83040894 124.82991333 11.83040894 124.82991333 10.4777832 124.09448242 C-2.4602717 116.63983192 -9.00922748 105.38870814 -13.28125 91.36328125 C-14.85546788 85.48101854 -15.7658894 79.63248367 -16.55078125 73.6015625 C-18.55401051 59.57895767 -23.44312369 46.18436754 -31.61328125 34.60546875 C-34.12906148 30.40557117 -34.14648399 26.33623711 -33.9453125 21.53515625 C-33.90148437 20.47296875 -33.85765625 19.41078125 -33.8125 18.31640625 C-33.7609375 17.218125 -33.709375 16.11984375 -33.65625 14.98828125 C-33.61242187 13.87453125 -33.56859375 12.76078125 -33.5234375 11.61328125 C-33.16147162 3.36850287 -33.16147162 3.36850287 -32.03125 2.23828125 C-30.50660067 2.09339662 -28.97587108 2.01123073 -27.4453125 1.95703125 C-26.51460938 1.91964844 -25.58390625 1.88226563 -24.625 1.84375 C-23.6453125 1.80894531 -22.665625 1.77414062 -21.65625 1.73828125 C-19.73162352 1.66936226 -17.80712945 1.59661024 -15.8828125 1.51953125 C-14.59624756 1.4740918 -14.59624756 1.4740918 -13.28369141 1.42773438 C-8.78312316 1.04919102 -4.62408268 0.04549894 0 0 Z " fill="#2E2E31" transform="translate(370.03125,362.76171875)"/>
  <path d="M0 0 C0.85416 -0.01517166 1.70832001 -0.03034332 2.58836365 -0.04597473 C26.44251209 -0.38825058 49.2108212 1.5496306 72.71240234 5.54345703 C76.83434268 6.24326629 80.96194828 6.87887069 85.09765625 7.4921875 C87.32041984 7.82610916 89.54308602 8.16068035 91.765625 8.49609375 C92.71332764 8.63821289 93.66103027 8.78033203 94.63745117 8.92675781 C106.93942733 10.89182148 120.94015526 14.42209844 129.265625 24.30859375 C132.37169358 27.59737225 134.15973894 29.17034474 138.82421875 29.4765625 C139.77425781 29.48300781 140.72429687 29.48945313 141.703125 29.49609375 C143.12431641 29.51736328 143.12431641 29.51736328 144.57421875 29.5390625 C147.40117546 29.29698638 148.91662583 28.87125418 151.265625 27.30859375 C152.26907235 26.1159719 153.22419148 24.88180905 154.140625 23.62109375 C168.73997003 6.65012516 198.73019184 7.03444983 219.26647949 4.17524719 C223.12723602 3.6319566 226.96649374 3.02974522 230.80078125 2.32421875 C243.91064102 0.01240339 256.9913932 0.04966053 270.265625 0.05859375 C271.25649109 0.05918793 272.24735718 0.0597821 273.26824951 0.06039429 C276.12166732 0.06693082 278.97478779 0.08343727 281.828125 0.10546875 C282.6897525 0.10986465 283.55138 0.11426056 284.43911743 0.11878967 C288.82999732 0.1700609 292.93646262 0.49714675 297.265625 1.30859375 C298.71287878 1.42004154 300.16261258 1.50444277 301.61328125 1.5546875 C302.38349609 1.58755859 303.15371094 1.62042969 303.94726562 1.65429688 C305.53826043 1.71563958 307.12941722 1.77291251 308.72070312 1.82617188 C316.56242591 2.17454682 316.56242591 2.17454682 320.265625 4.30859375 C326.87309137 12.90650806 327.51539095 26.86714478 327.703125 37.37109375 C327.72536133 38.07298828 327.74759766 38.77488281 327.77050781 39.49804688 C327.74250323 45.97644001 324.97234116 49.38306783 320.828125 54.05859375 C312.05363786 64.63091158 308.38358649 80.42426889 307.765625 93.93359375 C306.95372533 110.53480547 300.32292897 125.90034042 288.8828125 137.9375 C281.22980637 144.87089511 272.30229754 149.51598908 262.953125 153.74609375 C262.22488525 154.07625488 261.49664551 154.40641602 260.74633789 154.74658203 C252.50368981 158.31313937 244.17691317 159.68658076 235.265625 160.30859375 C234.31945312 160.44394531 233.37328125 160.57929688 232.3984375 160.71875 C217.1460727 162.04261051 198.96188901 153.78826857 187.33984375 144.1640625 C186.65535156 143.55175781 185.97085938 142.93945312 185.265625 142.30859375 C184.55019531 141.74785156 183.83476563 141.18710937 183.09765625 140.609375 C170.55208698 130.51172169 164.25842545 114.43909069 157.27246094 100.32958984 C156.29381798 98.36518481 155.30201189 96.40810176 154.3046875 94.453125 C149.79230137 85.58996948 146.34842274 76.75376128 143.265625 67.30859375 C142.605625 67.30859375 141.945625 67.30859375 141.265625 67.30859375 C140.87697266 68.59443359 140.87697266 68.59443359 140.48046875 69.90625 C139.220725 73.43434262 137.64812584 76.47311926 135.828125 79.74609375 C132.21686145 86.33884759 128.96595044 93.07067865 125.765625 99.87109375 C112.70397423 127.45140946 98.5728087 146.50259306 69.265625 157.30859375 C68.04552734 157.82292969 68.04552734 157.82292969 66.80078125 158.34765625 C53.04959974 163.82764292 35.16087004 159.94674309 21.84765625 154.8515625 C2.61746927 146.56811228 -12.63522121 135.33953661 -20.734375 115.30859375 C-23.44934588 107.38695174 -24.90938309 99.72558177 -25.671875 91.43359375 C-26.79294874 79.33431128 -29.87267485 67.75588972 -35.81640625 57.09375 C-36.734375 55.30859375 -36.734375 55.30859375 -36.734375 53.30859375 C-37.311875 53.10234375 -37.889375 52.89609375 -38.484375 52.68359375 C-41.6873509 50.72621959 -42.91999075 48.58800875 -44.734375 45.30859375 C-45.1038626 42.49525113 -45.26034433 40.16364727 -45.171875 37.37109375 C-45.15866211 36.63181641 -45.14544922 35.89253906 -45.13183594 35.13085938 C-44.81704525 25.30099548 -43.89805281 12.32903165 -37.734375 4.30859375 C-33.37226896 1.79483773 -28.70150231 1.91024862 -23.796875 1.74609375 C-22.2251337 1.68549339 -20.65350988 1.62175479 -19.08203125 1.5546875 C-18.39117432 1.53075928 -17.70031738 1.50683105 -16.98852539 1.48217773 C-14.64468481 1.34060868 -14.64468481 1.34060868 -12.00854492 0.8125 C-7.98954641 0.19396201 -4.06081892 0.07083881 0 0 Z M-7.734375 13.30859375 C-9.34857783 13.44436455 -10.96704427 13.53266698 -12.5859375 13.58984375 C-13.51921875 13.62722656 -14.4525 13.66460937 -15.4140625 13.703125 C-17.38540668 13.7737169 -19.35676097 13.8440272 -21.328125 13.9140625 C-22.25882812 13.95144531 -23.18953125 13.98882812 -24.1484375 14.02734375 C-25.0038916 14.05763672 -25.8593457 14.08792969 -26.74072266 14.11914062 C-28.73300752 14.09487899 -28.73300752 14.09487899 -29.734375 15.30859375 C-30.17858839 19.12642774 -30.29925138 22.97066514 -30.484375 26.80859375 C-30.55269531 27.87335938 -30.62101562 28.938125 -30.69140625 30.03515625 C-31.09891448 38.54058439 -30.21715989 45.24371933 -24.984375 52.12109375 C-21.64952227 56.83157323 -19.86377948 61.89913011 -17.984375 67.30859375 C-17.69079102 68.15139893 -17.39720703 68.9942041 -17.09472656 69.86254883 C-14.476005 77.63924365 -12.75863487 85.19527824 -11.984375 93.37109375 C-10.05922064 108.1355468 -4.34693346 122.47699884 7.53857422 132.04760742 C17.15385892 139.06809731 28.58645157 144.97558695 40.265625 147.30859375 C41.98652344 147.70498047 41.98652344 147.70498047 43.7421875 148.109375 C59.28714644 150.47491223 75.94973785 142.64604646 88.390625 133.68359375 C90.05341775 132.26850316 91.68471931 130.81461444 93.265625 129.30859375 C93.91789062 128.72207031 94.57015625 128.13554687 95.2421875 127.53125 C112.40145605 110.25859422 121.42609409 75.44720678 121.703125 51.99609375 C121.73635864 50.47520142 121.73635864 50.47520142 121.77026367 48.92358398 C121.7484989 41.33762737 120.48810841 34.72063501 115.140625 29.05859375 C106.44263024 23.76416216 98.35667784 21.0630557 88.328125 19.24609375 C87.66190125 19.12296814 86.99567749 18.99984253 86.30926514 18.87298584 C58.61371421 13.77999162 31.45794052 11.73004243 3.296875 12.0703125 C2.52669037 12.07789078 1.75650574 12.08546906 0.96298218 12.09327698 C-2.18838212 12.1494754 -4.72367833 12.30502819 -7.734375 13.30859375 Z M211.265625 16.30859375 C210.55436462 16.41985596 209.84310425 16.53111816 209.11029053 16.64575195 C204.17101353 17.42937189 199.24786217 18.28608527 194.328125 19.18359375 C193.08466309 19.40354004 191.84120117 19.62348633 190.56005859 19.85009766 C181.62466847 21.60297323 171.45822116 24.27327105 165.140625 31.30859375 C157.35664776 43.76295733 160.38011136 62.6295422 163.515625 76.24609375 C164.88780622 82.15236844 166.67300482 87.57714644 169.23486328 93.07348633 C170.28193024 95.3439501 171.23031494 97.63630031 172.16015625 99.95703125 C179.83550602 118.9659639 189.05097239 133.24459515 208.57421875 141.75 C210.8001353 142.61206017 213.03861505 143.44245557 215.2890625 144.23828125 C218.265625 145.30859375 218.265625 145.30859375 220.3046875 146.31640625 C228.54843368 150.34748918 239.8696031 148.18668007 248.453125 145.99609375 C254.66136203 143.86444344 260.34316573 140.79291493 266.078125 137.62109375 C266.96201904 137.14051514 267.84591309 136.65993652 268.7565918 136.16479492 C281.6946467 128.71014442 288.24360248 117.45902064 292.515625 103.43359375 C294.08984288 97.55133104 295.0002644 91.70279617 295.78515625 85.671875 C297.78838551 71.64927017 302.67749869 58.25468004 310.84765625 46.67578125 C313.36343648 42.47588367 313.38085899 38.40654961 313.1796875 33.60546875 C313.13585937 32.54328125 313.09203125 31.48109375 313.046875 30.38671875 C312.9953125 29.2884375 312.94375 28.19015625 312.890625 27.05859375 C312.84679687 25.94484375 312.80296875 24.83109375 312.7578125 23.68359375 C313.00807997 18.63392127 313.00807997 18.63392127 311.265625 14.30859375 C309.74097567 14.16370912 308.21024608 14.08154323 306.6796875 14.02734375 C305.28363281 13.97126953 305.28363281 13.97126953 303.859375 13.9140625 C302.8796875 13.87925781 301.9 13.84445312 300.890625 13.80859375 C298.96599852 13.73967476 297.04150445 13.66692274 295.1171875 13.58984375 C294.25947754 13.55955078 293.40176758 13.52925781 292.51806641 13.49804688 C290.265625 13.30859375 290.265625 13.30859375 287.265625 12.30859375 C284.57997535 12.17464383 281.92141552 12.0967518 279.234375 12.0703125 C278.4238266 12.06051865 277.6132782 12.05072479 276.77816772 12.04063416 C254.66277386 11.83007999 233.12199771 12.88824668 211.265625 16.30859375 Z " fill="#020202" transform="translate(366.734375,350.69140625)"/>
  <path d="M0 0 C3.55104846 2.79779576 4.34019347 4.20115434 5 8.625 C5.62490971 12.40398153 6.39882342 15.97608449 7.5625 19.625 C12.84556384 36.69540225 13.24858779 55.01409729 13.3125 72.75 C13.32627686 74.70534668 13.32627686 74.70534668 13.34033203 76.70019531 C13.31913386 83.31232907 12.91433128 89.47503627 11.55444336 95.94482422 C11.02180228 98.84672684 10.80058996 101.68144247 10.61328125 104.625 C10.16880031 110.54126026 8.94351188 115.94963175 7.25 121.625 C6.80454834 123.13731201 6.80454834 123.13731201 6.35009766 124.68017578 C0.46282815 143.786856 -7.87441336 163.00872465 -18.3125 180.0625 C-18.70187744 180.70155273 -19.09125488 181.34060547 -19.49243164 181.99902344 C-20.27542619 183.28095836 -21.06028492 184.56175685 -21.84716797 185.84130859 C-22.82041519 187.43345911 -23.77299041 189.0382037 -24.72265625 190.64453125 C-35.6811333 208.75322028 -35.6811333 208.75322028 -43.9375 211.625 C-48.72529839 211.95903245 -52.08771351 211.29398085 -55.875 208.3125 C-59.07650776 204.14083837 -60.59286451 201.29300443 -60.44140625 195.8203125 C-59.61411658 192.21615131 -57.44551908 189.90142017 -55.06713867 187.14428711 C-48.16275678 178.97664791 -42.68370116 170.11210057 -37.5625 160.75 C-37.24211761 160.16872345 -36.92173523 159.5874469 -36.59164429 158.98855591 C-19.5685636 128.08278943 -7.06170391 97.40668236 -7.52587891 61.65917969 C-7.56274209 58.73076816 -7.5668937 55.80362151 -7.56640625 52.875 C-7.000864 36.32562978 -7.000864 36.32562978 -10.9375 20.625 C-17.56719038 21.45734069 -22.25737517 24.26578639 -27.9375 27.625 C-28.7934375 28.1303125 -29.649375 28.635625 -30.53125 29.15625 C-36.89729785 33.06791796 -42.81300963 37.48469861 -48.74829102 42.00805664 C-53.24640876 45.41649251 -57.83268513 48.61046452 -62.5625 51.6875 C-74.18568999 59.28926702 -84.77328994 68.1900838 -95.29882812 77.22460938 C-96.94682146 78.63296602 -98.60489677 80.02856858 -100.265625 81.421875 C-107.01147723 87.10488525 -113.56070341 92.97129512 -120 99 C-121.07169434 99.99906372 -121.07169434 99.99906372 -122.16503906 101.01831055 C-126.06178866 104.69728973 -129.56251037 108.46541868 -132.9375 112.625 C-135.91418516 114.88317495 -139.12167977 115.15549289 -142.8359375 115.0859375 C-146.72457725 114.23303882 -149.34395355 111.52676501 -151.9375 108.625 C-153.88016472 104.73967055 -153.84716398 100.82119191 -152.9375 96.625 C-150.38854567 92.81004618 -147.25364334 89.7761346 -143.9375 86.625 C-142.77054618 85.39610595 -141.60384852 84.16696856 -140.4375 82.9375 C-137.28261051 79.83326241 -133.88124833 77.15380946 -130.35546875 74.484375 C-127.84455266 72.55352515 -125.426191 70.5360684 -123 68.5 C-116.02340895 62.76714663 -108.66607332 57.57825386 -101.31787109 52.33642578 C-98.95438676 50.63714115 -96.60973595 48.91476473 -94.26953125 47.18359375 C-86.61668304 41.53960804 -79.04164414 36.35139911 -70.6953125 31.78125 C-65.95911222 29.13249572 -61.46639035 26.10942153 -56.9375 23.125 C-49.09111628 17.9835596 -41.25865212 12.97588951 -32.9375 8.625 C-31.70435059 7.97990479 -31.70435059 7.97990479 -30.44628906 7.32177734 C-27.68500172 5.89651682 -24.90864906 4.50602578 -22.125 3.125 C-21.25302979 2.67874268 -20.38105957 2.23248535 -19.48266602 1.77270508 C-12.95773985 -1.38571944 -6.84088517 -3.20211646 0 0 Z " fill="#04040F" transform="translate(744.9375,117.375)"/>
  <path d="M0 0 C7.30019349 2.82245853 14.23357643 6.59231983 21.1875 10.1640625 C22.15316895 10.65745117 23.11883789 11.15083984 24.11376953 11.65917969 C29.74077941 14.6017709 34.93329389 17.82970571 40.08398438 21.53955078 C44.26384682 24.48999348 48.63502769 27.12376812 53 29.7890625 C54.85566136 30.931979 56.71113237 32.07520462 58.56640625 33.21875 C61.32286074 34.91369687 64.08060087 36.60646875 66.83984375 38.296875 C74.03659383 42.77725776 80.80882679 47.78420042 87.60546875 52.84082031 C89.55144264 54.28087983 91.50782004 55.70538888 93.46875 57.125 C100.1207511 61.94585115 106.64164349 66.85139524 112.953125 72.1171875 C114.7174416 73.58569054 116.49939221 75.0332226 118.296875 76.4609375 C138.73592342 92.74289133 138.73592342 92.74289133 139.96875 99.5234375 C140.15228424 104.44827301 139.95296788 107.50468205 136.6875 111.3515625 C133.19774194 114.9340436 130.86984924 115.42702878 125.828125 115.71484375 C119.99484049 114.61858856 116.16633614 110.00845232 112.4375 105.7265625 C100.68933285 92.54697233 86.80534032 81.09834649 72.953125 70.1953125 C71.33886353 68.90812362 69.74525116 67.59466806 68.171875 66.2578125 C61.68975083 60.76987915 54.87181989 55.99107516 47.83666992 51.24316406 C42.62048447 47.71792 37.4938879 44.10219771 32.4375 40.3515625 C27.24196954 36.50546742 22.02357859 32.75416246 16.5625 29.2890625 C15.75425781 28.76570313 14.94601562 28.24234375 14.11328125 27.703125 C8.75854096 24.34103691 3.63203924 22.02808779 -2.4375 20.2890625 C-5.26768658 33.34080979 -5.99982618 45.95461464 -5.9375 59.2890625 C-5.93535492 60.77158508 -5.93535492 60.77158508 -5.9331665 62.28405762 C-5.87762214 77.80949152 -4.8755304 92.3194432 -0.4375 107.2890625 C-0.23946777 108.0109375 -0.04143555 108.7328125 0.16259766 109.4765625 C7.89750737 137.18840189 24.79487352 168.28587781 43.5 189.9140625 C45.76532973 192.80044893 47.0399798 194.77450793 47.1875 198.4765625 C46.440674 203.03220112 45.73083186 206.52592397 42.015625 209.546875 C38.20828212 211.95594594 35.1212104 213.06501321 30.5625 212.2890625 C17.55945846 205.93201997 10.81294558 190.74740217 4.02734375 178.80102539 C2.75288337 176.61553825 1.4103191 174.51170859 0.015625 172.40234375 C-3.31927381 167.1254356 -5.561501 161.35520714 -7.9375 155.6015625 C-8.39769531 154.50650391 -8.85789062 153.41144531 -9.33203125 152.28320312 C-26.93057035 110.17064266 -34.80735783 60.08174154 -19.5234375 15.8046875 C-18.66637803 13.03003454 -18.22286094 10.86088615 -17.9453125 8.0234375 C-17.4375 4.2890625 -17.4375 4.2890625 -14.9375 1.2890625 C-10.15155872 -2.04521887 -5.41073726 -1.5781317 0 0 Z " fill="#04040F" transform="translate(267.4375,116.7109375)"/>
  <path d="M0 0 C2.8125 1.9375 2.8125 1.9375 5 5 C5.58278339 8.79791425 5.74060263 12.51879475 4 16 C3.71072836 21.55694476 3.68569771 27.1154387 3.64990234 32.67919922 C3.63355252 34.53121693 3.6065512 36.38317735 3.56787109 38.23486328 C3.23966566 54.05436512 5.6040078 67.51635476 12 82 C12.48191514 83.3459549 12.94395831 84.69940064 13.375 86.0625 C16.32523559 95.13059255 19.6260656 104.08200843 23 113 C23.28343262 113.75321533 23.56686523 114.50643066 23.85888672 115.2824707 C27.6498109 125.28259656 31.68007951 134.71451124 37.18359375 143.890625 C39.83897399 148.43617913 41.91465135 153.17433759 44 158 C44.34675781 158.73347656 44.69351563 159.46695313 45.05078125 160.22265625 C53.3522637 177.883339 57.81432644 201.47215582 51.78515625 220.45703125 C51.0098944 222.96795395 50.51325569 225.41323088 50.0625 228 C47.21160969 242.5073531 39.84512342 251.55122381 29.5625 261.8125 C28.78261719 262.59149658 28.00273438 263.37049316 27.19921875 264.1730957 C20.48558976 270.75296813 13.3667786 276.46044527 5.66601562 281.83349609 C4.2559921 282.82076051 2.86757224 283.83877025 1.484375 284.86328125 C-4.79011139 289.45945223 -11.49895979 293.34088223 -18.18237305 297.30322266 C-23.89709722 300.70139615 -29.5052599 304.22574147 -35.0625 307.875 C-46.2601736 315.18278036 -57.80984596 320.83790697 -70.06811523 326.13378906 C-71.41072627 326.73578375 -72.73153067 327.38787565 -74.03149414 328.07714844 C-77.22399422 329.57381845 -79.53482074 329.48634095 -83 329 C-86.22341676 326.11949992 -87.75697586 324.19081827 -88.625 319.9375 C-87.80186082 316.06874585 -86.05322771 314.32939523 -83 312 C-79.03031546 309.66790378 -74.93170121 307.61609594 -70.8125 305.5625 C-58.77897273 299.49931623 -47.63645392 292.89309024 -36.625 285.125 C-30.54728264 280.85985881 -24.47676379 276.60744498 -18.25 272.5625 C-2.10207736 261.89082938 21.37774576 244.57900596 27 225 C31.57876878 199.96067588 27.31627554 174.86433699 14.43212891 152.80737305 C6.75864068 139.62886646 2.22824796 125.78651909 -1.19140625 110.9609375 C-2.96046574 104.48293222 -5.5890029 98.26060021 -8 92 C-9.12315796 89.02411139 -10.09972274 86.05040145 -11 83 C-11.32726074 81.89406494 -11.65452148 80.78812988 -11.99169922 79.64868164 C-15.08956149 68.37486805 -15.62015268 57.54053078 -15.52148438 45.88818359 C-15.49997332 42.87125785 -15.52143694 39.8566994 -15.546875 36.83984375 C-15.58407989 11.53883365 -15.58407989 11.53883365 -9.58813477 2.98608398 C-6.68058595 0.27302316 -3.86438889 -0.99086895 0 0 Z " fill="#05050F" transform="translate(694,576)"/>
  <path d="M0 0 C3.79312422 1.17242021 4.94620067 2.04992766 7.4375 5.0625 C12.34095525 16.24057783 12.02723504 28.38429082 11.90405273 40.35302734 C11.87485084 43.45333623 11.88353554 46.55195325 11.89648438 49.65234375 C11.89025174 51.65104987 11.88186452 53.64975069 11.87109375 55.6484375 C11.87402939 56.56112396 11.87696503 57.47381042 11.87998962 58.41415405 C11.79155752 64.49262358 10.58365526 69.40198637 8.4375 75.0625 C7.95178648 76.90968322 7.48974685 78.76342443 7.0625 80.625 C4.85267675 89.7085366 2.1726059 98.79580937 -1.25 107.5 C-2.23609351 110.17653953 -2.88648502 112.42770466 -3.4296875 115.18359375 C-4.51615509 120.20014201 -6.1799948 124.89597887 -8 129.6875 C-8.29970703 130.49445313 -8.59941406 131.30140625 -8.90820312 132.1328125 C-11.70709812 139.61272276 -14.8777779 146.82333922 -18.5 153.9375 C-21.05439279 158.99503466 -23.54307603 164.05450008 -25.7734375 169.265625 C-26.5625 171.0625 -26.5625 171.0625 -27.54492188 172.86010742 C-29.47086472 177.02851684 -29.91529533 181.62619277 -30.6875 186.125 C-30.86925781 187.11177734 -31.05101562 188.09855469 -31.23828125 189.11523438 C-33.98583373 204.88783826 -34.06609815 223.51555282 -24.5625 237.0625 C-20.23794676 242.3877044 -15.44757984 247.25515257 -10.5625 252.0625 C-10.04349121 252.57731934 -9.52448242 253.09213867 -8.98974609 253.62255859 C2.10405018 264.5184477 14.84893859 273.11312684 27.79296875 281.63452148 C33.736198 285.55461914 39.50607023 289.66884832 45.2265625 293.90625 C48.18572299 295.89342347 51.08374049 297.47411375 54.28222656 299.01757812 C58.23779526 300.93532099 62.11099869 303.01402365 66 305.0625 C66.81146484 305.48789062 67.62292969 305.91328125 68.45898438 306.3515625 C70.79064299 307.57855315 73.11540567 308.81751864 75.4375 310.0625 C76.12312012 310.42472656 76.80874023 310.78695313 77.51513672 311.16015625 C80.70380976 312.8959824 82.38485734 313.98353601 84.4375 317.0625 C84.94585292 320.9598724 84.76712183 322.56806726 82.5625 325.875 C79.93143401 328.58345029 79.10814276 328.99822655 75.33984375 329.359375 C70.53731989 328.99401783 67.24460804 327.46727852 63 325.3125 C62.28779297 324.96445312 61.57558594 324.61640625 60.84179688 324.2578125 C59.40405857 323.55265475 57.97004 322.83986352 56.53979492 322.11962891 C55.18819372 321.43998273 53.83188588 320.76957484 52.4699707 320.11083984 C46.96370861 317.43264037 41.73736733 314.3546513 36.5 311.1875 C35.23639648 310.43146484 35.23639648 310.43146484 33.94726562 309.66015625 C29.86997851 307.20562313 25.85300651 304.69689964 21.91015625 302.03125 C18.12618862 299.47980317 14.24632334 297.16089083 10.29614258 294.87768555 C0.94216227 289.45360909 -7.53026989 283.52166607 -15.77197266 276.53686523 C-17.77586934 274.88680632 -19.83934269 273.33076433 -21.91015625 271.765625 C-26.90463907 267.89969558 -31.36039678 263.59596806 -35.8125 259.125 C-36.97652344 257.98514648 -36.97652344 257.98514648 -38.1640625 256.82226562 C-49.38479895 245.61110318 -53.12322524 233.51309912 -55.94921875 218.21484375 C-56.49389056 215.05292746 -56.49389056 215.05292746 -57.5625 212.0625 C-58.61221341 193.46060183 -56.21307353 174.82279213 -47.61083984 158.12231445 C-46.54420772 156.02655869 -45.54570142 153.90949931 -44.5625 151.7734375 C-44.0675 150.70222656 -44.0675 150.70222656 -43.5625 149.609375 C-42.89286401 148.15500933 -42.22622083 146.69926214 -41.5625 145.2421875 C-40.03220849 141.94249644 -38.49404334 138.9601337 -36.46484375 135.92578125 C-34.49733911 132.96442416 -33.32384527 130.21434408 -32.125 126.875 C-30.57355731 122.67277946 -28.92934685 118.6046592 -27 114.5625 C-24.65851922 109.54295058 -23.08549194 104.43714383 -21.53125 99.12890625 C-20.45670396 95.7276214 -19.07770835 92.59658134 -17.55566406 89.37817383 C-16.55327073 87.04098093 -15.83074511 84.74313052 -15.140625 82.296875 C-14.22750666 79.16073637 -13.2353328 76.15707142 -11.95703125 73.15234375 C-7.05472595 60.78108115 -7.03855714 48.55552097 -7.125 35.4375 C-7.13109283 34.49993866 -7.13718567 33.56237732 -7.14346313 32.59640503 C-7.16826229 29.90506438 -7.20623785 27.21446461 -7.25390625 24.5234375 C-7.2678241 23.70032578 -7.28174194 22.87721405 -7.29608154 22.02915955 C-7.3071092 17.9126386 -7.3071092 17.9126386 -8.5625 14.0625 C-9.22236125 9.26436605 -9.21114354 6.04529324 -6.5 1.9375 C-3.5625 0.0625 -3.5625 0.0625 0 0 Z " fill="#04040F" transform="translate(308.5625,575.9375)"/>
  <path d="M0 0 C3.42885889 1.16727111 4.73160156 2.1391702 6.9375 5 C7.29980469 8.16259766 7.29980469 8.16259766 7.109375 11.9140625 C7.08138321 12.59329269 7.05339142 13.27252289 7.02455139 13.97233582 C6.96234867 15.43221069 6.89092132 16.89171612 6.81118774 18.35073853 C6.64472178 21.41156826 6.52460791 24.47365843 6.4021759 27.53651428 C6.33963844 29.09140586 6.27483875 30.64620806 6.20780945 32.20091248 C5.90023238 39.40556006 5.77295064 46.60078272 5.75 53.8125 C5.73743164 54.87742676 5.72486328 55.94235352 5.71191406 57.03955078 C5.71030273 58.02294434 5.70869141 59.00633789 5.70703125 60.01953125 C5.70292236 60.86620361 5.69881348 61.71287598 5.69458008 62.58520508 C5.97294896 65.35238755 6.86096424 67.4457366 7.9375 70 C8.24684067 71.4067941 8.50895208 72.8249575 8.71875 74.25 C8.83863281 75.0234375 8.95851563 75.796875 9.08203125 76.59375 C9.31901042 78.19791667 9.55598958 79.80208333 9.79296875 81.40625 C10.43714135 85.56220226 11.28901119 89.10848543 12.9375 93 C13.22491559 94.66062339 13.47344554 96.32833662 13.6875 98 C15.55584216 108.85973881 21.62113939 118.4928926 26.9375 128 C30.24812161 134.62124322 29.65112311 144.70635488 28.125 151.75 C22.32407341 165.37543222 6.41224882 179.51711269 -5.73828125 187.4609375 C-8.1039818 189.02746862 -10.28889428 190.7232885 -12.5 192.5 C-18.00576065 196.8259548 -23.90150036 200.45984835 -29.87255859 204.10498047 C-38.00878204 209.07194525 -45.85311913 214.20870395 -53.46533203 219.95068359 C-58.44723062 223.66302286 -63.63412716 226.88416253 -69.05297852 229.92016602 C-72.03119075 231.62135507 -74.32163632 233.26177672 -76.74609375 235.7109375 C-79.0637859 238.00127072 -79.82334012 238.72401505 -83 238.75 C-86.49100245 238.51770896 -88.20305713 237.43266439 -90.625 234.9375 C-92.68313805 232.13504901 -93.05575628 231.0944121 -93.3125 227.5 C-89.89020269 217.91756753 -81.25290669 213.51336656 -73.10009766 208.30273438 C-69.82090458 206.20618821 -66.5612142 204.08093425 -63.3125 201.9375 C-62.6834375 201.52266357 -62.054375 201.10782715 -61.40625 200.68041992 C-57.62161878 198.14791053 -54.0986132 195.45438851 -50.625 192.5 C-46.34851586 188.87898888 -41.90586654 185.94941003 -37.125 183.0625 C-29.81064252 178.63182817 -23.47099149 173.66019458 -17.0625 168 C-16.32515625 167.38382813 -15.5878125 166.76765625 -14.828125 166.1328125 C-9.72894105 161.84396398 -5.34151309 157.10014567 -1.0625 152 C-0.53011719 151.41347656 0.00226563 150.82695312 0.55078125 150.22265625 C3.89601854 146.21779471 4.70267395 142.84711187 4.421875 137.64453125 C3.71832419 133.80337077 2.15843442 130.63622874 0.43359375 127.15234375 C-4.05910814 117.685998 -7.13380351 107.6699115 -9.3125 97.4375 C-9.46340088 96.73173828 -9.61430176 96.02597656 -9.76977539 95.29882812 C-12.31337632 82.51633784 -13.38081908 69.88238787 -13.26831055 56.87084961 C-13.24986116 54.67094428 -13.24780338 52.47145979 -13.24804688 50.27148438 C-13.19380528 28.13130528 -13.19380528 28.13130528 -11.0625 26 C-10.82427157 22.72152305 -10.66745105 19.45039534 -10.54492188 16.16601562 C-10.27132005 10.57524621 -9.75243507 5.830763 -5.8125 1.5625 C-3.0625 0 -3.0625 0 0 0 Z " fill="#04040F" transform="translate(731.0625,338)"/>
  <path d="M0 0 C3.48292805 1.28716906 4.67583094 2.04261011 6.875 5.0625 C7.63618748 8.60042968 7.84775323 12.1427369 8.0625 15.75 C8.19834137 17.6708223 8.33748163 19.59141516 8.48046875 21.51171875 C8.53356201 22.36080811 8.58665527 23.20989746 8.64135742 24.0847168 C8.66794731 26.06186984 8.66794731 26.06186984 9.875 27.0625 C11.30215292 35.69130331 11.02952637 44.58971206 11.00537109 53.30883789 C10.99993758 55.65191909 11.00538545 57.99481468 11.01171875 60.33789062 C11.01105915 61.83072959 11.00978045 63.32356844 11.0078125 64.81640625 C11.00983673 65.51528458 11.01186096 66.2141629 11.01394653 66.93421936 C10.99001024 71.83247952 10.99001024 71.83247952 9.875 74.0625 C9.67969424 75.49899452 9.53161854 76.94210539 9.41015625 78.38671875 C9.29317383 79.68319336 9.29317383 79.68319336 9.17382812 81.00585938 C9.01797435 82.81556642 8.86427964 84.62546087 8.71289062 86.43554688 C8.2467268 91.55576907 7.37681404 96.12480144 5.875 101.0625 C5.57280559 102.65689475 5.28201543 104.25347509 5 105.8515625 C3.93658053 111.33689616 2.02220848 116.29509129 -0.125 121.4375 C-0.65867187 122.75041016 -0.65867187 122.75041016 -1.203125 124.08984375 C-3.76264431 130.34538534 -3.76264431 130.34538534 -5.20800781 133.20581055 C-7.16283957 137.16387645 -7.14427153 140.81458623 -6.125 145.0625 C-3.28354445 149.84262685 0.15803951 153.94239846 3.875 158.0625 C4.96941406 159.28839844 4.96941406 159.28839844 6.0859375 160.5390625 C13.83893366 168.69556032 23.1015832 175.38726979 32.50390625 181.51171875 C39.5464579 186.11780278 46.49055997 190.84748243 53 196.1875 C57.06468533 199.50308467 61.2859928 202.30741837 65.734375 205.078125 C69.61679712 207.53119768 73.44259074 210.05740384 77.25 212.625 C77.92820801 213.07206299 78.60641602 213.51912598 79.30517578 213.97973633 C84.66704028 217.62104222 88.95488844 221.1999307 91 227.5625 C90.875 231.0625 90.875 231.0625 88.875 234.4375 C85.33270239 237.53701041 83.55173759 238.14601317 78.875 238.0625 C75.47802256 236.24386095 72.38006181 234.0527449 69.25 231.8125 C65.7664014 229.35137355 62.24355369 227.00759323 58.625 224.75 C54.29211097 222.02821337 50.13735595 219.12974552 46 216.125 C39.49032277 211.40897785 32.76284022 207.21085831 25.875 203.0625 C19.35683303 199.09377737 13.27349646 194.93129378 7.38671875 190.0703125 C4.89434242 188.07796191 2.32230153 186.29804772 -0.3125 184.5 C-11.83890879 176.20360903 -28.03662453 162.57786471 -31.125 148.0625 C-32.46364491 136.38174363 -28.86165495 126.9824164 -23.125 117.0625 C-15.66349227 103.37993671 -12.46305731 88.03518836 -10.58203125 72.65625 C-10.125 70.0625 -10.125 70.0625 -9.11083984 67.71166992 C-8.0831701 64.9500938 -7.88031353 63.01171708 -7.89453125 60.08203125 C-7.89630371 59.09871826 -7.89807617 58.11540527 -7.89990234 57.10229492 C-7.91230957 56.0372876 -7.9247168 54.97228027 -7.9375 53.875 C-7.93959473 52.76036377 -7.94168945 51.64572754 -7.94384766 50.49731445 C-7.9840448 43.6371583 -8.21477047 36.81071999 -8.56640625 29.9609375 C-8.67390267 27.65056236 -8.7795164 25.34010689 -8.88485718 23.02963257 C-8.99868834 20.77596872 -9.14708088 18.52622535 -9.29614258 16.2746582 C-9.36309556 14.87458753 -9.42851638 13.47444251 -9.4921875 12.07421875 C-9.56550293 10.84147217 -9.63881836 9.60872559 -9.71435547 8.33862305 C-9.09294212 4.88429592 -8.78902184 4.32919198 -6.29736328 2.12817383 C-3.125 0.0625 -3.125 0.0625 0 0 Z " fill="#03030E" transform="translate(270.125,337.9375)"/>
  <path d="M0 0 C11.90673395 7.22027935 18.44543003 21.36599394 23 34 C23.28029053 34.71873291 23.56058105 35.43746582 23.84936523 36.17797852 C26.87275446 45.18712201 26.48694979 54.56536281 26.44604492 63.95727539 C26.43760757 66.8999811 26.4662426 69.84069179 26.49804688 72.78320312 C26.56200643 89.48435793 24.5292421 105.50590881 18 121 C17.61875977 121.96309082 17.23751953 122.92618164 16.84472656 123.91845703 C15.63079765 126.97773396 14.38217207 130.02076633 13.125 133.0625 C12.71636719 134.07376953 12.30773437 135.08503906 11.88671875 136.12695312 C7.78288351 146.05414336 2.34976875 154.78001043 -3.875 163.5 C-4.39674805 164.2326709 -4.91849609 164.9653418 -5.45605469 165.72021484 C-19.97786189 185.98893095 -19.97786189 185.98893095 -28 190 C-31.43081 190.47089549 -33.92671653 190.66164262 -36.9453125 188.80078125 C-41.1761924 185.28684962 -43.5701399 182.38811169 -44.5625 176.875 C-43.71765799 171.05497725 -40.52846133 167.5906625 -37 163 C-36.11863067 161.79441026 -35.24123895 160.58590569 -34.3671875 159.375 C-30.26689144 153.70249127 -26.13374776 148.09624967 -21.6875 142.6875 C-15.21703593 134.66517666 -10.84713679 125.84498458 -6.61328125 116.515625 C-5.62044907 114.35206819 -4.56905756 112.21296865 -3.42578125 110.125 C-1.58596791 106.09253241 -0.74778557 102.07901643 0.125 97.75 C0.45868589 96.14015665 0.79452112 94.53075686 1.1328125 92.921875 C1.27605957 92.21643555 1.41930664 91.51099609 1.56689453 90.78417969 C2 89 2 89 3 87 C4.31256139 78.46835095 4.21779032 69.75109109 4.24023438 61.13818359 C4.25001421 58.871707 4.28118038 56.60611187 4.3125 54.33984375 C4.36760653 46.69559326 4.06461539 40.13289231 1 33 C0.5875 31.989375 0.175 30.97875 -0.25 29.9375 C-3.81904802 23.94659796 -8.47870691 19.22216531 -14 15 C-15.75451816 11.49096368 -15.6706258 7.81993716 -15 4 C-10.7592814 -1.43681872 -6.48443709 -2.31981565 0 0 Z " fill="#030303" transform="translate(780,521)"/>
  <path d="M0 0 C0.81130875 -0.00902847 1.62261749 -0.01805695 2.45851135 -0.02735901 C4.17583517 -0.04187719 5.89321449 -0.05075214 7.6105957 -0.05444336 C10.24069154 -0.06634644 12.86844619 -0.11551744 15.49804688 -0.16601562 C17.16535311 -0.17547888 18.83267378 -0.18271439 20.5 -0.1875 C21.6813578 -0.21679848 21.6813578 -0.21679848 22.88658142 -0.24668884 C25.11108398 -0.22827148 25.11108398 -0.22827148 28.81640625 0.37109375 C30.83618164 2.90600586 30.83618164 2.90600586 31.81640625 5.37109375 C30.44140625 7.37109375 30.44140625 7.37109375 28.81640625 9.37109375 C28.15640625 9.37109375 27.49640625 9.37109375 26.81640625 9.37109375 C28.83597265 14.70359909 31.01884857 19.86498973 33.61328125 24.9453125 C42.30485307 42.58872613 43.19577173 57.14486108 41.81640625 76.37109375 C42.99203125 76.58765625 42.99203125 76.58765625 44.19140625 76.80859375 C46.81640625 77.37109375 46.81640625 77.37109375 48.81640625 78.37109375 C49.69140625 80.18359375 49.69140625 80.18359375 49.81640625 82.37109375 C48.36157227 84.47900391 48.36157227 84.47900391 45.81640625 86.37109375 C42.82272972 86.74452924 40.20677212 86.88563059 37.21875 86.83203125 C36.3880751 86.83111481 35.55740021 86.83019836 34.70155334 86.82925415 C32.94900788 86.82322243 31.19647252 86.80748916 29.4440918 86.78271484 C26.75986826 86.74617491 24.07702457 86.7416958 21.39257812 86.7421875 C19.68879014 86.73235713 17.98501151 86.72070047 16.28125 86.70703125 C15.07649269 86.70369278 15.07649269 86.70369278 13.84739685 86.70028687 C9.99603745 86.63455808 8.09333491 86.55571286 4.81640625 84.37109375 C4.31640625 81.93359375 4.31640625 81.93359375 4.81640625 79.37109375 C7.19970085 77.55226366 8.77458962 76.37109375 11.81640625 76.37109375 C13.61784783 58.63838482 9.50419552 45.00928059 2.50390625 28.93359375 C2.11615021 28.03576172 1.72839417 27.13792969 1.32888794 26.21289062 C0.20321424 23.6321684 -0.94544317 21.06367153 -2.109375 18.5 C-2.63155106 17.33441307 -2.63155106 17.33441307 -3.16427612 16.14527893 C-5.02255392 12.18608196 -6.43505964 9.81268553 -10.18359375 7.37109375 C-10.55859375 4.80859375 -10.55859375 4.80859375 -10.18359375 2.37109375 C-7.21938082 -0.59311918 -3.97686618 0.02700969 0 0 Z " fill="#020202" transform="translate(501.18359375,588.62890625)"/>
  <path d="M0 0 C4.77048406 0.99385085 6.77090529 3.96998138 9.578125 7.75 C11.48976244 11.61528888 11.72839179 15.17849952 12.0625 19.4375 C12.19361054 20.98616211 12.33029686 22.53436265 12.47265625 24.08203125 C12.55398804 25.1026062 12.55398804 25.1026062 12.63696289 26.14379883 C12.9841749 28.85424946 12.9841749 28.85424946 13.99560547 32.33129883 C15.15483261 36.84141437 15.42320186 41.22754183 15.59765625 45.8671875 C15.63684677 46.71677032 15.67603729 47.56635315 15.71641541 48.44168091 C15.83943707 51.12751223 15.95177433 53.81363593 16.0625 56.5 C16.17808417 59.20769739 16.29603578 61.91522997 16.41929626 64.62258911 C16.4953284 66.30066332 16.56674162 67.97895449 16.6330719 69.65744019 C16.72485417 73.77437372 16.72485417 73.77437372 18 77.625 C18.14714647 78.97651563 18.23893939 80.3342989 18.30102539 81.69238281 C18.34069931 82.54024353 18.38037323 83.38810425 18.42124939 84.26165771 C18.47763329 85.65580902 18.47763329 85.65580902 18.53515625 87.078125 C18.57689468 88.05251526 18.61863312 89.02690552 18.66163635 90.03082275 C19.19340329 103.29077509 19.32591818 116.56273083 19.47680664 129.83154297 C19.66181507 151.70368291 19.66181507 151.70368291 22.54711914 173.35253906 C23.2615515 176.93741044 23.30573778 180.47928858 23.375 184.125 C23.41238281 184.87136719 23.44976562 185.61773438 23.48828125 186.38671875 C23.55565462 190.61626943 23.34259651 192.17760927 20.67578125 195.66015625 C18 197.625 18 197.625 14.8125 197.5625 C12 196.625 12 196.625 10 194.625 C9.69702148 192.56542969 9.69702148 192.56542969 9.62109375 190.046875 C9.56985352 188.67595703 9.56985352 188.67595703 9.51757812 187.27734375 C9.49115234 186.31957031 9.46472656 185.36179687 9.4375 184.375 C9.37705198 182.49468085 9.31333394 180.61446352 9.24609375 178.734375 C9.22216553 177.89874023 9.1982373 177.06310547 9.17358398 176.20214844 C9.04602085 173.59278063 9.04602085 173.59278063 8.51147461 170.92773438 C7.82753052 166.51131638 7.71209005 162.13439147 7.5703125 157.671875 C7.49852899 155.68218988 7.42615981 153.69252582 7.35327148 151.70288086 C7.31628143 150.66839813 7.27929138 149.63391541 7.24118042 148.56808472 C6.61191785 131.27352939 5.63890724 114.23163232 3.30517578 97.07373047 C2.72106709 92.38684237 2.45606687 87.68457213 2.2109375 82.96875 C2.14199289 80.60462002 2.14199289 80.60462002 1 78.625 C0.71909248 76.49723584 0.48795557 74.36281205 0.28125 72.2265625 C0.15363281 70.94265625 0.02601563 69.65875 -0.10546875 68.3359375 C-0.23734367 66.97399358 -0.3688503 65.61201395 -0.5 64.25 C-0.75690216 61.59597867 -1.0180356 58.94247634 -1.28125 56.2890625 C-1.39533203 55.10779785 -1.50941406 53.9265332 -1.62695312 52.70947266 C-1.91453073 49.77888173 -1.91453073 49.77888173 -2.51806641 47.58666992 C-3.17338476 44.91925202 -3.27673831 42.315491 -3.4296875 39.57421875 C-3.50316406 38.40052734 -3.57664062 37.22683594 -3.65234375 36.01757812 C-3.80005205 33.55966022 -3.94074846 31.10131029 -4.07421875 28.64257812 C-4.48564208 22.27248972 -5.07567943 17.30944133 -8 11.625 C-8.5 8.5 -8.5 8.5 -8 5.625 C-5.54405875 2.30225596 -4.0743356 0.84881992 0 0 Z " fill="#050505" transform="translate(452,707.375)"/>
  <path d="M0 0 C3.26465235 2.41300391 4.79662868 3.83061493 5.5 7.875 C5 11 5 11 3.53515625 13.8828125 C1.14823902 19.31073353 1.24922252 25.15852114 0.9375 31 C0.7846074 33.43120305 0.62838313 35.86219898 0.46875 38.29296875 C0.39269531 39.45489746 0.31664062 40.61682617 0.23828125 41.81396484 C-0.13601 46.8185763 -0.82955259 51.74326515 -1.56640625 56.70703125 C-2.18239677 61.38522951 -2.43189502 66.06979536 -2.65625 70.78125 C-3 74 -3 74 -3.97045898 77.25219727 C-4.98717649 80.95331902 -5.47330806 84.36583278 -5.81640625 88.18359375 C-5.9084861 89.17239281 -5.9084861 89.17239281 -6.00242615 90.1811676 C-6.19539133 92.26609524 -6.37930525 94.35169341 -6.5625 96.4375 C-6.75115845 98.51952397 -6.9417234 100.60136201 -7.13328552 102.68312073 C-7.30639043 104.57417754 -7.47475221 106.46566679 -7.64282227 108.35717773 C-7.8858124 110.83541135 -8.17730474 113.3092622 -8.51147461 115.77685547 C-9.15263288 120.7994195 -9.31541283 125.83015774 -9.5 130.88671875 C-9.58332183 132.97981817 -9.66665552 135.07291711 -9.75 137.16601562 C-9.87609616 140.43786609 -10.00084485 143.70976478 -10.125 146.98168945 C-10.24671885 150.15850388 -10.37318891 153.33510416 -10.5 156.51171875 C-10.53544922 157.48888351 -10.57089844 158.46604828 -10.60742188 159.4728241 C-10.64416016 160.38760025 -10.68089844 161.3023764 -10.71875 162.24487305 C-10.76418945 163.44444893 -10.76418945 163.44444893 -10.81054688 164.66825867 C-11.01389322 167.1709943 -11.48897018 169.54357453 -12 172 C-12.09663218 173.73006522 -12.15364168 175.46269215 -12.17578125 177.1953125 C-12.19962891 178.15824219 -12.22347656 179.12117187 -12.24804688 180.11328125 C-12.29117813 182.12868702 -12.3223396 184.14438292 -12.34179688 186.16015625 C-12.36951172 187.12050781 -12.39722656 188.08085938 -12.42578125 189.0703125 C-12.44036377 189.94445801 -12.45494629 190.81860352 -12.4699707 191.71923828 C-13 194 -13 194 -14.84448242 195.81201172 C-17 197 -17 197 -20.0625 196.9375 C-23.56160543 195.82076422 -24.24252224 195.17579315 -26 192 C-26.27151221 189.38122094 -26.37892596 187.04647917 -26.3125 184.4375 C-26.303396 183.72440674 -26.29429199 183.01131348 -26.28491211 182.27661133 C-26.16922718 177.31557219 -25.58559041 172.6013179 -24.5333252 167.74560547 C-22.94886184 159.58864738 -22.83661401 151.2220069 -22.71875 142.9375 C-22.70070313 141.91491089 -22.68265625 140.89232178 -22.6640625 139.83874512 C-22.62593677 137.6715768 -22.58942714 135.50437952 -22.55444336 133.3371582 C-22.46304816 127.73500116 -22.35666161 122.13313418 -22.25 116.53125 C-22.22933472 115.43897095 -22.20866943 114.34669189 -22.18737793 113.22131348 C-22.0213038 104.64493326 -21.80581776 96.07260574 -21.5 87.5 C-21.46455078 86.42363281 -21.42910156 85.34726562 -21.39257812 84.23828125 C-21.3374707 82.80548828 -21.3374707 82.80548828 -21.28125 81.34375 C-21.25095703 80.54130859 -21.22066406 79.73886719 -21.18945312 78.91210938 C-21 77 -21 77 -20 75 C-19.79668367 72.18050559 -19.64673116 69.37808742 -19.53515625 66.5546875 C-19.45657278 64.82030376 -19.37779026 63.08592904 -19.29882812 61.3515625 C-19.17966682 58.6199058 -19.06304346 55.88818508 -18.95043945 53.15625 C-18.83994741 50.51786308 -18.71933989 47.88007873 -18.59765625 45.2421875 C-18.55222435 44.033918 -18.55222435 44.033918 -18.50587463 42.80123901 C-18.25976681 37.60725189 -17.34321187 33.02170914 -16 28 C-15.66348177 25.6595995 -15.66348177 25.6595995 -15.578125 23.59765625 C-14.42373489 7.40627909 -14.42373489 7.40627909 -8 1 C-5.11138291 -0.44430855 -3.20352299 -0.37688506 0 0 Z " fill="#050505" transform="translate(553,708)"/>
  <path d="M0 0 C18.86501356 -0.7809108 36.52961621 1.3240142 54.96289062 5.14892578 C55.81318848 5.32472168 56.66348633 5.50051758 57.53955078 5.68164062 C66.36103207 7.58150301 74.14801731 10.64980831 81.96289062 15.14892578 C83.08244141 15.76767578 83.08244141 15.76767578 84.22460938 16.39892578 C87.58716267 18.47238664 88.87415961 19.90047893 90.21289062 23.64892578 C89.96289062 27.14892578 89.96289062 27.14892578 87.96289062 30.08642578 C84.96289062 32.14892578 84.96289062 32.14892578 81.77539062 32.89892578 C77.04857691 31.96906079 74.33600349 29.91368702 70.58789062 26.97314453 C63.35467875 21.94649283 55.92350208 21.15958867 47.33789062 20.02392578 C46.14292969 19.85505859 44.94796875 19.68619141 43.71679688 19.51220703 C21.63755157 16.4742177 0.25893867 16.54420959 -21.84960938 18.96142578 C-22.62837433 19.04419769 -23.40713928 19.1269696 -24.20950317 19.21224976 C-37.14060801 20.60868153 -47.44175603 22.33120833 -57.97460938 30.39892578 C-61.73785141 32.5493498 -63.76747183 32.84759374 -68.03710938 32.14892578 C-71.03710938 30.08642578 -71.03710938 30.08642578 -73.03710938 27.14892578 C-73.03710938 23.69297294 -73.00523709 21.30546159 -70.73242188 18.59033203 C-68.88173761 17.01682398 -67.04357103 15.87647203 -64.91210938 14.71142578 C-64.20828125 14.32083984 -63.50445312 13.93025391 -62.77929688 13.52783203 C-61.874375 13.07279297 -60.96945312 12.61775391 -60.03710938 12.14892578 C-59.43527832 11.83826172 -58.83344727 11.52759766 -58.21337891 11.20751953 C-51.45789005 7.93667069 -44.49354448 6.47595099 -37.16210938 5.02392578 C-35.22283569 4.63599854 -35.22283569 4.63599854 -33.24438477 4.24023438 C-22.12469701 2.07219696 -11.30518683 0.55435402 0 0 Z " fill="#050508" transform="translate(491.037109375,180.85107421875)"/>
  <path d="M0 0 C2.875 0.5 2.875 0.5 5.875 2.5 C8.50934254 2.17873872 10.50210097 1.68644952 12.875 0.5 C15.625 0 15.625 0 18.875 0.5 C21.41699343 2.50090392 23.28750509 4.68102926 24.875 7.5 C24.81703558 10.16636347 24.78216809 11.59283191 22.875 13.5 C21.43954883 13.74166825 20.00157767 13.96845872 18.5625 14.1875 C15.12107634 14.89038788 15.12107634 14.89038788 12.390625 16.96484375 C11.16826634 18.77920722 11.16826634 18.77920722 9.875 21.5 C10.865 23.170625 10.865 23.170625 11.875 24.875 C13.875 28.25 13.875 28.25 13.875 30.5 C15.54123993 31.16773251 17.20802322 31.83410914 18.875 32.5 C19.88175781 32.9021875 20.88851562 33.304375 21.92578125 33.71875 C30.72548222 37.20785589 30.72548222 37.20785589 39.875 39.5 C40.58269531 39.63019531 41.29039062 39.76039063 42.01953125 39.89453125 C50.94686007 40.76801782 58.39486085 35.76756225 65.875 31.5 C66.49439453 31.14776367 67.11378906 30.79552734 67.75195312 30.43261719 C73.15587641 27.31904006 78.30033011 24.1973539 82.875 19.9375 C85.875 17.5 85.875 17.5 88.8125 17.625 C89.493125 17.91375 90.17375 18.2025 90.875 18.5 C91.205 19.82 91.535 21.14 91.875 22.5 C80.28926793 33.10803316 62.70533087 48.90397725 46.4375 48.875 C45.73391357 48.87701416 45.03032715 48.87902832 44.30541992 48.88110352 C38.34787055 48.767556 33.22262948 47.40403845 27.64453125 45.27734375 C24.52542784 44.40188313 22.94080654 44.54162185 19.875 45.5 C19.27429688 45.84546875 18.67359375 46.1909375 18.0546875 46.546875 C14.7786886 47.97939065 11.51065436 47.78864941 8 47.75 C7.30519531 47.75773438 6.61039062 47.76546875 5.89453125 47.7734375 C1.469437 47.75677048 -1.97801402 46.93438288 -6.125 45.5 C-8.63886647 45.3941151 -8.63886647 45.3941151 -11.0625 45.75 C-11.85527344 45.83765625 -12.64804687 45.9253125 -13.46484375 46.015625 C-16.27073861 46.47621996 -16.27073861 46.47621996 -19.5 47.5078125 C-28.74720184 50.03883542 -36.81754049 49.80011252 -45.1875 45.125 C-47.55224093 43.6538956 -49.84309759 42.09593564 -52.125 40.5 C-52.72763672 40.08830566 -53.33027344 39.67661133 -53.95117188 39.25244141 C-57.53989849 36.79444849 -61.06305512 34.26178061 -64.55029297 31.66210938 C-66.01766578 30.57921099 -67.50997493 29.53032963 -69.00390625 28.484375 C-70.23947266 27.59492187 -70.23947266 27.59492187 -71.5 26.6875 C-72.20898438 26.18605469 -72.91796875 25.68460938 -73.6484375 25.16796875 C-75.125 23.5 -75.125 23.5 -75.3515625 20.80078125 C-75.27679688 20.04152344 -75.20203125 19.28226563 -75.125 18.5 C-72.90234375 17.76953125 -72.90234375 17.76953125 -70.125 17.5 C-68.00390625 18.94921875 -68.00390625 18.94921875 -65.6875 21.1875 C-60.12070431 26.04983186 -54.12497319 29.50398171 -47.625 33 C-46.64474854 33.52811279 -45.66449707 34.05622559 -44.65454102 34.6003418 C-33.57263384 40.48829682 -25.81278514 40.21191625 -13.8046875 36.72265625 C-9.6165881 35.33106908 -5.83149116 33.5947321 -1.98046875 31.453125 C-0.125 30.5 -0.125 30.5 1.875 30.5 C2.16375 29.571875 2.4525 28.64375 2.75 27.6875 C3.875 24.5 3.875 24.5 5.875 21.5 C3.74769534 17.07917424 3.74769534 17.07917424 -0.32421875 14.7265625 C-1.90880918 14.4152581 -3.50217749 14.145045 -5.1015625 13.921875 C-7.125 13.5 -7.125 13.5 -9.125 11.5 C-8.96827848 5.85802522 -5.67401455 0.90784233 0 0 Z " fill="#080808" transform="translate(500.125,508.5)"/>
  <path d="M0 0 C6.56825536 1.63292434 10.28889399 6.39623207 13.79296875 11.8984375 C15.26221399 14.4270403 16.69633831 16.96178963 18.10546875 19.5234375 C18.82742432 20.82958008 18.82742432 20.82958008 19.56396484 22.16210938 C22.93498628 28.28292857 26.25156788 34.43171768 29.54199219 40.59619141 C30.92392532 43.18353966 32.31419392 45.76617001 33.70703125 48.34765625 C43.34349281 66.31463119 52.26892736 84.70037239 60.10546875 103.5234375 C63.41864767 111.13622947 63.41864767 111.13622947 67.41796875 118.3984375 C69.10358071 121.51994113 69.69988823 123.05599051 69.10546875 126.5234375 C67.10546875 128.5234375 67.10546875 128.5234375 64.35546875 129.2734375 C61.10546875 128.5234375 61.10546875 128.5234375 59.625 126.78125 C57.97732032 124.0866532 56.52522833 121.34507557 55.10546875 118.5234375 C54.58339844 117.49605469 54.06132812 116.46867188 53.5234375 115.41015625 C52.3663284 113.10406762 51.21841682 110.79478882 50.078125 108.48046875 C37.84528279 83.78279296 24.16836278 59.75305863 9.140625 36.65234375 C6.59275256 32.73517326 4.10174424 28.78321836 1.61328125 24.828125 C0.13531355 22.50063666 0.13531355 22.50063666 -1.58984375 20.34375 C-2.89453125 18.5234375 -2.89453125 18.5234375 -2.89453125 16.5234375 C-3.65765625 16.4409375 -4.42078125 16.3584375 -5.20703125 16.2734375 C-7.89453125 15.5234375 -7.89453125 15.5234375 -9.70703125 13.8359375 C-11.29642084 10.74081041 -11.45613124 8.96323743 -10.89453125 5.5234375 C-7.94897064 1.28919412 -5.29041932 -0.41688107 0 0 Z " fill="#060606" transform="translate(373.89453125,782.4765625)"/>
  <path d="M0 0 C3.44652326 2.44128731 4.78056289 3.82966874 5.5625 8 C4.86732112 11.70762068 3.73207764 13.41970445 1 16 C-0.32 16 -1.64 16 -3 16 C-3.2578125 16.54140625 -3.515625 17.0828125 -3.78125 17.640625 C-5.22451301 20.43463415 -6.84410714 23.07614022 -8.5 25.75 C-9.0244873 26.59872681 -9.0244873 26.59872681 -9.55957031 27.46459961 C-11.47090203 30.55268406 -13.39512743 33.63246793 -15.328125 36.70703125 C-26.29455088 54.15127858 -36.65693184 71.80462864 -46.37548828 89.97753906 C-48.51979908 93.96710439 -50.69842227 97.93741111 -52.87768555 101.90795898 C-57.07392648 109.55366891 -61.2139416 117.19756065 -65.01171875 125.05078125 C-66 127 -66 127 -67 128 C-69.9375 128.1875 -69.9375 128.1875 -73 128 C-75 126 -75 126 -75.375 123.75 C-74.96690881 120.75733124 -73.94138005 119.30229594 -72.19506836 116.90087891 C-70.70908136 114.53726404 -69.73254337 112.11408876 -68.69140625 109.5234375 C-66.15696133 103.33521828 -63.43669768 97.2540903 -60.625 91.1875 C-60.11533691 90.08728516 -59.60567383 88.98707031 -59.08056641 87.85351562 C-40.59125342 48.11231003 -40.59125342 48.11231003 -30.18701172 30.08886719 C-28.88489199 27.79743642 -27.62904602 25.48424105 -26.37890625 23.1640625 C-25.93909424 22.35300049 -25.49928223 21.54193848 -25.04614258 20.70629883 C-24.21585089 19.17286315 -23.390954 17.63648662 -22.57299805 16.09643555 C-17.76497063 7.29106614 -11.33739255 -2.42291051 0 0 Z " fill="#060606" transform="translate(634,783)"/>
  <path d="M0 0 C4.62 0 9.24 0 14 0 C8.09761635 20.26485055 8.09761635 20.26485055 4.86328125 27.8515625 C3.59807198 31.00027336 2.71806146 34.24152536 1.78125 37.5 C0.71220089 40.92095715 -0.665413 44.18888 -2.03125 47.5 C-2.99095431 49.97665628 -3.76632402 52.44808355 -4.5 55 C-5.73960742 59.304941 -7.31001823 63.38796731 -9.015625 67.52734375 C-10.51691259 71.2984352 -11.75412729 75.13779461 -13 79 C-17.62 79 -22.24 79 -27 79 C-19.22359935 55.49316453 -19.22359935 55.49316453 -15.08618164 43.90283203 C-13.43481171 39.26675125 -11.85479961 34.61094125 -10.3125 29.9375 C-8.90150565 25.66868216 -7.44343384 21.4431119 -5.82421875 17.25 C-3.7371039 11.5524732 -1.89834863 5.76257609 0 0 Z " fill="#050505" transform="translate(453,610)"/>
  <path d="M0 0 C1.6640625 1.25 1.6640625 1.25 3 3 C3.32297297 5.27758863 3.31244789 7.44776508 3.30078125 9.74609375 C4.41899782 13.35062426 6.77276393 14.22262825 10 16 C12.51777679 17.03995128 14.91328911 17.94513983 17.5 18.75 C18.18835938 18.9668042 18.87671875 19.1836084 19.5859375 19.40698242 C26.44626119 21.40241311 32.86947334 21.50136516 40 21 C39.1550546 14.82497644 39.1550546 14.82497644 35.8125 9.8125 C35.214375 9.214375 34.61625 8.61625 34 8 C34.25 4.75 34.25 4.75 35 2 C37.625 1.1875 37.625 1.1875 41 1 C45.11153978 3.57978967 47.80367201 6.1609867 49.53125 10.83984375 C50.73999857 16.41016009 51.17831531 22.50369067 48.71484375 27.72265625 C45.25269784 32.32044912 40.56924686 33.57348471 35.03515625 34.4921875 C22.06395243 35.2633649 6.77887634 31.00536956 -3.125 22.4375 C-7.12429748 18.44552724 -10.42569201 13.70814944 -10.4375 7.875 C-10 4 -10 4 -8.375 1.5 C-5.31593299 -0.43204232 -3.5572204 -0.52979878 0 0 Z " fill="#0A0A14" transform="translate(524,917)"/>
  <path d="M0 0 C3.0625 0.4375 3.0625 0.4375 5.4375 1.9375 C7.7203649 5.44959984 7.89124295 8.43917875 7.0625 12.4375 C3.90979564 19.8868103 -2.00701293 25.40827223 -9.41796875 28.51953125 C-10.98143424 29.11121869 -12.55061958 29.68799941 -14.125 30.25 C-14.91841797 30.54841797 -15.71183594 30.84683594 -16.52929688 31.15429688 C-26.01453769 34.68239233 -36.43537836 36.80046196 -46.125 32.625 C-48.87239532 31.25392891 -51.15908709 29.96584606 -52.9375 27.4375 C-53.32126937 24.76301426 -53.50824535 22.4257682 -53.5 19.75 C-53.4997583 19.03118652 -53.4995166 18.31237305 -53.49926758 17.57177734 C-53.32645191 12.22237433 -52.2110806 8.85976407 -48.54296875 4.8203125 C-46.9375 3.4375 -46.9375 3.4375 -43.9375 1.4375 C-40.75 1.8125 -40.75 1.8125 -37.9375 2.4375 C-37.1875 5.1875 -37.1875 5.1875 -36.9375 8.4375 C-38.27083333 9.77083333 -39.60416667 11.10416667 -40.9375 12.4375 C-41.87819402 15.39323259 -42.44075983 18.37862629 -42.9375 21.4375 C-31.07167352 21.98585655 -20.26595031 21.42970322 -9.6875 15.25 C-6.39522679 11.88290239 -6.17196151 10.08888878 -6.203125 5.5234375 C-5.9375 3.4375 -5.9375 3.4375 -4.60546875 1.69140625 C-2.9375 0.4375 -2.9375 0.4375 0 0 Z " fill="#090913" transform="translate(480.9375,916.5625)"/>
  <path d="M0 0 C0.95070898 4.88318704 0.95070898 4.88318704 0 8 C-3.27597545 11.13327198 -7.08078885 13.25632384 -11 15.5 C-12.57394531 16.44746094 -12.57394531 16.44746094 -14.1796875 17.4140625 C-16.77207836 18.96949702 -19.37753605 20.49601439 -22 22 C-17.76294732 25.5114157 -13.29737974 28.60002545 -8.75 31.6875 C-7.30665377 32.66963612 -5.86391232 33.6526618 -4.421875 34.63671875 C-3.78862305 35.06686279 -3.15537109 35.49700684 -2.50292969 35.94018555 C-1 37 -1 37 0 38 C0.08631874 39.34267413 0.10706473 40.68974322 0.09765625 42.03515625 C0.09443359 42.84404297 0.09121094 43.65292969 0.08789062 44.48632812 C0.07532227 45.7615332 0.07532227 45.7615332 0.0625 47.0625 C0.05798828 47.91650391 0.05347656 48.77050781 0.04882812 49.65039062 C0.03700373 51.76695663 0.01906769 53.88348685 0 56 C-8.63651685 50.53455845 -17.23320547 45.00822778 -25.79833984 39.43164062 C-27.27371122 38.47227294 -28.75061843 37.51526328 -30.22900391 36.56054688 C-32.34470823 35.19302783 -34.45426099 33.81649151 -36.5625 32.4375 C-37.21186523 32.02008545 -37.86123047 31.6026709 -38.53027344 31.17260742 C-40.05608509 30.16756555 -41.53399672 29.0904333 -43 28 C-43 27.34 -43 26.68 -43 26 C-41.06665039 24.57055664 -41.06665039 24.57055664 -38.34765625 22.91015625 C-36.85226318 21.98795288 -36.85226318 21.98795288 -35.32666016 21.04711914 C-34.2494873 20.39219482 -33.17231445 19.73727051 -32.0625 19.0625 C-29.86250292 17.70959819 -27.66328928 16.35542161 -25.46484375 15 C-24.37155762 14.32710937 -23.27827148 13.65421875 -22.15185547 12.9609375 C-17.04292967 9.7824021 -12.01262926 6.4848161 -7.00415039 3.15063477 C-2.21317746 0 -2.21317746 0 0 0 Z " fill="#060606" transform="translate(409,612)"/>
  <path d="M0 0 C9.86414613 6.01803411 19.26718434 12.69455076 28.69335938 19.36865234 C30.7027552 20.7897767 32.71755039 22.2027379 34.734375 23.61328125 C35.72953125 24.31839844 36.7246875 25.02351562 37.75 25.75 C39.01070312 26.63945313 39.01070312 26.63945313 40.296875 27.546875 C40.85890625 28.02640625 41.4209375 28.5059375 42 29 C42 29.66 42 30.32 42 31 C40.26611328 32.24584961 40.26611328 32.24584961 37.8203125 33.65234375 C36.91893555 34.17675049 36.01755859 34.70115723 35.08886719 35.24145508 C34.11079102 35.8011499 33.13271484 36.36084473 32.125 36.9375 C30.11120147 38.10543092 28.09819283 39.27472476 26.0859375 40.4453125 C25.06854492 41.03602539 24.05115234 41.62673828 23.00292969 42.23535156 C17.76555438 45.31305471 12.60758871 48.52033401 7.46142578 51.74780273 C2.2147669 55 2.2147669 55 0 55 C-0.65625 51.93359375 -0.65625 51.93359375 0 48 C3.15605904 45.12025268 6.78574928 43.1442969 10.5 41.0625 C11.50160156 40.47404297 12.50320313 39.88558594 13.53515625 39.27929688 C16.01094457 37.82919229 18.49818979 36.40457506 21 35 C18.4598572 32.27628385 16.27949943 30.43874799 12.890625 28.90625 C3.34189367 24.08860599 3.34189367 24.08860599 0 20 C-2.05775622 13.55627611 -1.06690016 6.57036703 0 0 Z " fill="#040404" transform="translate(592,612)"/>
  <path d="M0 0 C0.98484375 -0.03738281 1.9696875 -0.07476562 2.984375 -0.11328125 C10.20829773 -0.20113977 10.20829773 -0.20113977 14.15625 2.671875 C16.5459069 6.17535503 16.61606344 8.21657178 16 12.375 C14.21884 14.97775141 12.98456544 15.37901376 9.890625 16.18359375 C8.08851563 16.49490234 8.08851563 16.49490234 6.25 16.8125 C-0.4811662 18.15182948 -4.62423078 19.8164561 -10.09765625 23.96484375 C-14.79211221 27.38704578 -18.18964055 29.29585783 -24.11328125 28.8203125 C-26 28.375 -26 28.375 -28.0625 26.875 C-30.22587935 21.10598841 -29.41858563 16.67017216 -27 11.1875 C-24.34331479 6.28168923 -21.16064701 3.47639983 -16 1.375 C-10.66869648 0.13858411 -5.45052406 0.07847613 0 0 Z " fill="#FAFAFA" transform="translate(375,366.625)"/>
  <path d="M0 0 C2.625 0.375 2.625 0.375 5 1 C4.5152727 5.79341445 2.20327316 8.89568407 -0.625 12.625 C-7.97952706 22.45394739 -14.26171126 32.97927324 -20.62646484 43.46313477 C-21.76014632 45.32920109 -22.89759383 47.19293825 -24.03515625 49.05664062 C-24.76845851 50.26288144 -25.50153952 51.46925679 -26.234375 52.67578125 C-26.88631836 53.74739502 -27.53826172 54.81900879 -28.20996094 55.9230957 C-29.93869448 58.89462173 -31.46918038 61.92343555 -33 65 C-34 66 -34 66 -36.4375 66.1875 C-39 66 -39 66 -41 64 C-41.77553475 57.79572203 -40.01338243 54.44809856 -36.6875 49.5 C-36.01678467 48.46613159 -36.01678467 48.46613159 -35.33251953 47.41137695 C-30.892409 40.65103511 -26.1101697 34.14265325 -21.25341797 27.67822266 C-19.45136204 25.2654193 -17.69587598 22.81974407 -15.9375 20.375 C-12.89256195 16.182694 -9.77829129 12.04851634 -6.625 7.9375 C-5.98099243 7.09614502 -5.98099243 7.09614502 -5.32397461 6.23779297 C-3.63202618 4.04336255 -1.96170185 1.96170185 0 0 Z " fill="#080808" transform="translate(567,289)"/>
  <path d="M0 0 C3.64637544 -0.54293458 4.84384012 -0.1139373 7.875 2.09765625 C8.93111699 3.07048006 9.97196214 4.06004928 11 5.0625 C11.56178955 5.59762207 12.1235791 6.13274414 12.70239258 6.68408203 C42.94525388 36.03064036 42.94525388 36.03064036 44.3125 50.25 C44 53 44 53 42 55 C38.92467772 54.85143371 37.47240449 54.49785017 35.33203125 52.2421875 C34.83058594 51.46101563 34.32914062 50.67984375 33.8125 49.875 C33.21566406 48.97007812 32.61882812 48.06515625 32.00390625 47.1328125 C31.34261719 46.09898437 30.68132812 45.06515625 30 44 C21.35717715 30.6852786 12.66150783 17.76639573 0.703125 7.18359375 C-1 5 -1 5 -0.765625 2.22265625 C-0.51296875 1.48917969 -0.2603125 0.75570313 0 0 Z " fill="#090909" transform="translate(443,297)"/>
  <path d="M0 0 C0.97259766 -0.00257813 1.94519531 -0.00515625 2.94726562 -0.0078125 C3.96626953 -0.00007812 4.98527344 0.00765625 6.03515625 0.015625 C7.05029297 0.00789062 8.06542969 0.00015625 9.11132812 -0.0078125 C10.08521484 -0.00523437 11.05910156 -0.00265625 12.0625 0 C12.95573975 0.00225586 13.84897949 0.00451172 14.76928711 0.00683594 C17.09765625 0.265625 17.09765625 0.265625 20.09765625 2.265625 C20.72265625 4.578125 20.72265625 4.578125 20.09765625 7.265625 C17.55847844 9.69900373 14.72010955 12.265625 11.09765625 12.265625 C10.70964844 13.52246094 10.32164062 14.77929688 9.921875 16.07421875 C8.04047235 21.71842671 5.51518984 26.98799195 2.91015625 32.328125 C2.44673828 33.28912109 1.98332031 34.25011719 1.50585938 35.24023438 C0.37459165 37.5844077 -0.76153386 39.92608471 -1.90234375 42.265625 C-4.54663455 39.7448313 -5.90453859 37.84109349 -6.90234375 34.265625 C-6.77648862 28.97970952 -4.30661043 24.67177119 -1.9609375 20.046875 C-0.77853876 16.94035136 -0.71330113 14.56175275 -0.90234375 11.265625 C-2.88234375 10.275625 -4.86234375 9.285625 -6.90234375 8.265625 C-7.02734375 5.390625 -7.02734375 5.390625 -6.90234375 2.265625 C-4.3779468 -0.25877195 -3.49177556 0.00882956 0 0 Z " fill="#050505" transform="translate(546.90234375,588.734375)"/>
  <path d="M0 0 C2.875 0.5 2.875 0.5 5.875 2.5 C8.50934254 2.17873872 10.50210097 1.68644952 12.875 0.5 C15.625 0 15.625 0 18.875 0.5 C21.41699343 2.50090392 23.28750509 4.68102926 24.875 7.5 C24.81703558 10.16636347 24.78216809 11.59283191 22.875 13.5 C21.41963197 13.76672083 19.96060858 14.01365557 18.5 14.25 C14.59668516 15.00308929 14.59668516 15.00308929 12.0625 18.0625 C11.670625 18.866875 11.27875 19.67125 10.875 20.5 C8.9375 21.5625 8.9375 21.5625 6.875 21.5 C4.64156796 19.64944202 3.17308458 18.09616917 1.875 15.5 C-0.17876006 14.88634292 -0.17876006 14.88634292 -2.5625 14.5 C-6.90582192 13.71917808 -6.90582192 13.71917808 -9.125 11.5 C-8.96827848 5.85802522 -5.67401455 0.90784233 0 0 Z " fill="#CB4769" transform="translate(500.125,508.5)"/>
  <path d="M0 0 C1.9375 1.125 1.9375 1.125 3 3 C3.0625 5.9375 3.0625 5.9375 2 9 C1.071875 9.598125 0.14375 10.19625 -0.8125 10.8125 C-4.67298389 13.46185169 -5.44358183 15.64935111 -7.140625 19.87109375 C-8.13180739 22.32652286 -9.03714595 24.19417427 -11 26 C-13.5625 26.375 -13.5625 26.375 -16 26 C-18.718516 23.281484 -18.36261605 21.67205652 -18.4375 17.875 C-18.32880676 11.73383198 -17.46902227 7.37919267 -13 3 C-8.65955307 0.47464906 -5.01694583 -0.68412898 0 0 Z " fill="#FAFAFA" transform="translate(556,375)"/>
  <path d="M0 0 C3.36720387 1.39332574 4.9859524 2.9789286 7 6 C4.23547967 7.38226016 1.9538637 7.09525387 -1.125 7.0625 C-2.22070312 7.05347656 -3.31640625 7.04445313 -4.4453125 7.03515625 C-5.70988281 7.01775391 -5.70988281 7.01775391 -7 7 C-4.66666667 4.66666667 -2.33333333 2.33333333 0 0 Z " fill="#E2E2E2" transform="translate(507,542)"/>
</svg>