<?xml version="1.0" encoding="utf-8"?>
<svg version="1.1" width="500" height="500" xmlns="http://www.w3.org/2000/svg">
  <defs/>
  <path d="M0 0 C0.65513266 -0.00282738 1.31026531 -0.00565475 1.98525047 -0.00856781 C5.46193204 -0.02350952 8.93857275 -0.03276694 12.4152832 -0.03710938 C15.25167881 -0.0414702 18.08776615 -0.05527476 20.92407227 -0.078125 C36.30662951 -0.19957204 51.30298038 -0.19948817 66.38671875 3.203125 C67.37406006 3.40196289 68.36140137 3.60080078 69.37866211 3.80566406 C71.83257589 4.3093826 74.2648383 4.86281769 76.69921875 5.453125 C77.9975061 5.76781738 77.9975061 5.76781738 79.32202148 6.08886719 C119.61191001 16.16770222 155.75222308 36.19064396 186.234375 64.23828125 C188.22326915 66.0539142 190.26158993 67.78500886 192.32421875 69.515625 C201.23042249 77.31302426 208.64916919 86.56114887 215.8359375 95.91796875 C217.93716127 98.65135025 220.1477211 101.26858091 222.38671875 103.890625 C227.79501534 110.63717085 231.86971787 118.26450884 236.05371094 125.80419922 C237.26755624 127.98867614 238.50125809 130.16063834 239.73828125 132.33203125 C256.81969946 162.86791444 267.46936703 198.64143959 267.58984375 233.6953125 C267.59554382 234.99526154 267.6012439 236.29521057 267.6071167 237.634552 C267.61757614 240.38299951 267.62345007 243.13141826 267.62695312 245.87988281 C267.63131659 248.66094232 267.6451342 251.44168788 267.66796875 254.22265625 C267.7907624 269.48505689 267.73938398 284.2577067 264.38671875 299.203125 C264.18788086 300.19119141 263.98904297 301.17925781 263.78417969 302.19726562 C263.28020828 304.65035332 262.72684807 307.08197857 262.13671875 309.515625 C261.92692383 310.3811499 261.71712891 311.2466748 261.50097656 312.13842773 C251.42214153 352.42831626 231.39919979 388.56862933 203.3515625 419.05078125 C201.53592955 421.0396754 199.80483489 423.07799618 198.07421875 425.140625 C190.27681949 434.04682874 181.02869488 441.46557544 171.671875 448.65234375 C168.9384935 450.75356752 166.32126284 452.96412735 163.69921875 455.203125 C156.9526729 460.61142159 149.32533491 464.68612412 141.78564453 468.87011719 C139.60116761 470.08396249 137.42920541 471.31766434 135.2578125 472.5546875 C110.27686938 486.52873678 83.41508935 494.30119352 55.38671875 499.203125 C54.39430176 499.38415771 53.40188477 499.56519043 52.37939453 499.75170898 C46.61031288 500.54878209 40.76131234 500.40700143 34.94921875 500.44140625 C33.63751709 500.449478 32.32581543 500.45754974 30.97436523 500.46586609 C28.19384905 500.48084645 25.41335781 500.49069972 22.6328125 500.49829102 C19.83050148 500.50705628 17.02870175 500.52770936 14.2265625 500.55981445 C-9.96306833 500.83079841 -32.3839803 498.06563744 -55.61328125 491.203125 C-56.33225586 490.99494141 -57.05123047 490.78675781 -57.79199219 490.57226562 C-77.41683512 484.79764005 -96.13935208 475.77970335 -113.61328125 465.203125 C-114.1969043 464.85604492 -114.78052734 464.50896484 -115.38183594 464.15136719 C-128.51843075 456.29280323 -140.21941927 446.51284184 -151.46484375 436.1640625 C-153.43126939 434.36925219 -155.44686552 432.66124836 -157.48828125 430.953125 C-167.80634309 421.92222581 -176.36389301 411.09417128 -184.61328125 400.203125 C-185.64195312 398.86894531 -185.64195312 398.86894531 -186.69140625 397.5078125 C-210.67417498 365.62827845 -225.30592678 327.40855134 -231.61328125 288.203125 C-231.78456543 287.25042725 -231.95584961 286.29772949 -232.13232422 285.31616211 C-232.93843103 279.58684288 -232.81668215 273.79385751 -232.8515625 268.01953125 C-232.85963425 266.73239731 -232.86770599 265.44526337 -232.87602234 264.11912537 C-232.89100318 261.38988383 -232.90085548 258.6606677 -232.90844727 255.93139648 C-232.91720277 253.18441871 -232.93783132 250.43796419 -232.9699707 247.69116211 C-233.24909805 223.28941008 -230.57477959 200.59807185 -223.61328125 177.203125 C-223.30100586 176.12683838 -223.30100586 176.12683838 -222.98242188 175.02880859 C-217.20852327 155.40199479 -208.19076517 136.6785503 -197.61328125 119.203125 C-197.09266113 118.32769043 -197.09266113 118.32769043 -196.56152344 117.43457031 C-188.70381349 104.29940308 -178.92495006 92.60039074 -168.578125 81.35546875 C-166.76249205 79.3665746 -165.03139739 77.32825382 -163.30078125 75.265625 C-155.43894384 66.25991748 -145.94368888 58.61561551 -136.61328125 51.203125 C-135.66453125 50.42453125 -134.71578125 49.6459375 -133.73828125 48.84375 C-101.57442806 23.07984719 -61.0195396 7.70366888 -20.61328125 1.203125 C-19.6694458 1.03111572 -18.72561035 0.85910645 -17.75317383 0.68188477 C-11.87580659 -0.14512143 -5.92266708 0.0199201 0 0 Z " fill="#313030" transform="translate(232.61328125,-0.203125)"/>
  <path d="M0 0 C1.06098372 0.00092179 2.12196745 0.00184359 3.2151022 0.00279331 C4.42811504 0.00141865 5.64112789 0.00004398 6.8908987 -0.00137234 C8.24737478 0.00216727 9.60385061 0.00580208 10.96032619 0.00952244 C12.37917485 0.00980431 13.79802365 0.00964658 15.21687222 0.00907993 C19.08033881 0.00879194 22.94377463 0.01468892 26.80723405 0.02165389 C30.84047653 0.02788716 34.87371965 0.02849121 38.90696621 0.0296793 C46.54970549 0.03279269 54.19243053 0.04100619 61.83516353 0.05102879 C70.53393099 0.06218967 79.23269911 0.06770031 87.93147194 0.07272422 C105.83033965 0.0831888 123.72919408 0.1007884 141.6280508 0.12304783 C141.9580508 0.78304783 142.2880508 1.44304783 142.6280508 2.12304783 C141.46529039 3.8365895 140.30252997 5.55013116 139.13976955 7.26367283 C138.58497166 8.08127331 138.58497166 8.08127331 138.01896572 8.91539097 C135.92009718 12.00847039 133.82120905 15.10153651 131.72228909 18.19458103 C127.39231789 24.57542591 123.0625715 30.956423 118.73351955 37.33789158 C109.09643004 51.54350148 99.45058707 65.74311609 89.79553127 79.93652439 C86.2702513 85.11921804 82.74583889 90.30250159 79.22137356 95.48574924 C77.39733151 98.16825751 75.57323599 100.8507294 73.74914455 103.53320408 C72.70877997 105.063152 71.66841539 106.59309991 70.6280508 108.12304783 C66.96074991 106.9006142 66.50376197 105.84236729 64.4327383 102.65429783 C63.80842922 101.7039365 63.18412014 100.75357517 62.5408926 99.77441502 C61.86840481 98.73446384 61.19591702 97.69451267 60.5030508 96.62304783 C59.42144408 94.97509622 58.33980795 93.32716304 57.25645351 91.68035984 C56.50585435 90.53906101 55.75616343 89.39716439 55.00733852 88.25470066 C51.17690052 82.41524489 47.25293012 76.64084145 43.3155508 70.87304783 C41.89227648 68.78457243 40.46910095 66.6960297 39.04601955 64.60742283 C38.32591702 63.55103611 37.60581448 62.49464939 36.86389065 61.40625095 C32.14975799 54.48381637 27.45154906 47.55055551 22.75207424 40.61816502 C18.75078553 34.71700828 14.74165347 28.82140987 10.71789455 22.93554783 C9.5432819 21.21542408 8.36884401 19.49518114 7.19445705 17.7749033 C6.09207818 16.16186363 4.98704974 14.55063573 3.88195705 12.93945408 C3.21937893 11.96879002 2.5568008 10.99812595 1.87414455 9.99804783 C1.29334133 9.1498447 0.71253811 8.30164158 0.11413479 7.42773533 C-1.2104932 5.37344122 -2.33300864 3.33266596 -3.3719492 1.12304783 C-2.3719492 0.12304783 -2.3719492 0.12304783 0 0 Z " fill="#FE5657" transform="translate(180.37194919586182,180.87695217132568)"/>
  <path d="M 0 0 C 3.129 1.353 4.865 2.728 6.926 5.43 C 7.739 6.485 7.739 6.485 8.569 7.562 C 9.145 8.325 9.72 9.089 10.313 9.875 C 10.915 10.662 11.517 11.449 12.138 12.26 C 14.101 14.833 16.052 17.415 18 20 C 18.688 20.91 19.376 21.82 20.085 22.758 C 32.153 38.729 32.153 38.729 35 43 C 35.66 43 36.32 43 37 43 C 38.382 41.489 38.382 41.489 39.766 39.477 C 40.319 38.711 40.873 37.946 41.444 37.157 C 42.04 36.321 42.636 35.486 43.25 34.625 C 48.248 27.726 53.321 20.904 58.563 14.188 C 59.133 13.454 59.704 12.721 60.292 11.965 C 63.458 7.915 66.686 3.931 70 0 C 73.688 1.666 76.866 3.945 80.125 6.313 C 81.359 7.204 82.594 8.096 83.828 8.988 C 84.491 9.469 85.155 9.949 85.838 10.444 C 88.19 12.137 90.555 13.809 92.922 15.48 C 94.573 16.654 96.224 17.827 97.875 19 C 99.08 19.846 99.08 19.846 100.309 20.708 C 101.05 21.238 101.791 21.767 102.555 22.313 C 103.22 22.783 103.885 23.254 104.57 23.738 C 105.042 24.155 105.514 24.571 106 25 C 106 25.66 106 26.32 106 27 C 100.501 29.527 95 32.049 89.496 34.566 C 84.864 36.686 80.235 38.813 75.61 40.95 C 72.675 42.304 69.738 43.653 66.8 45 C 65.363 45.661 63.926 46.324 62.491 46.989 C 54.811 50.549 47.247 53.935 39 56 C 41.598 63.975 44.391 71.849 47.375 79.688 C 50.128 86.984 52.873 94.282 55.5 101.625 C 55.864 102.626 60.627 113.978 60.999 114.999 C 62.332 118.762 58.982 117.434 59 115 C 59.66 115 60.32 115 61 115 C 61.636 116.852 61.636 116.852 62.285 118.742 C 65.611 128.363 69.037 137.915 72.865 147.349 C 74.078 150.381 75 152.702 75 156 C 49.26 156 23.52 156 -3 156 C -2.287 152.436 -1.565 149.538 -0.328 146.191 C 0.004 145.285 0.337 144.379 0.68 143.446 C 1.033 142.494 1.386 141.543 1.75 140.563 C 2.474 138.593 3.198 136.623 3.922 134.652 C 4.276 133.692 4.63 132.731 4.994 131.742 C 6.351 128.044 7.68 124.336 9 120.625 C 9.392 119.524 9.784 118.423 10.188 117.289 C 10.456 116.534 10.724 115.778 11 115 C 11.66 115 12.32 115 13 115 C 12.97 115.908 10.819 116.311 11.001 115 C 11.658 111.511 15.02 105.845 16.258 102.52 C 16.482 101.913 16.706 101.306 16.937 100.681 C 17.661 98.723 18.393 96.768 19.125 94.813 C 19.625 93.463 20.125 92.114 20.625 90.764 C 22.077 86.841 23.538 82.92 25 79 C 26.077 76.102 27.153 73.203 28.226 70.303 C 28.809 68.73 29.393 67.157 29.981 65.585 C 31.158 62.413 32.22 59.291 33 56 C 32.43 55.853 31.859 55.706 31.272 55.555 C 23.765 53.477 16.95 50.354 9.938 47 C 7.469 45.833 4.999 44.672 2.527 43.512 C 1.593 43.073 1.593 43.073 0.641 42.624 C -6.905 39.087 -14.539 35.755 -22.18 32.428 C -23.152 32.004 -24.124 31.581 -25.125 31.145 C -25.973 30.777 -26.821 30.409 -27.695 30.031 C -29.829 29.076 -31.918 28.063 -34 27 C -34 26.34 -34 25.68 -34 25 C -32.602 23.77 -32.602 23.77 -30.625 22.383 C -29.894 21.864 -29.163 21.344 -28.41 20.809 C -27.614 20.253 -26.819 19.698 -26 19.125 C -24.356 17.958 -22.713 16.79 -21.07 15.621 C -20.23 15.024 -19.39 14.427 -18.524 13.812 C -14.598 10.994 -10.734 8.097 -6.875 5.188 C -6.183 4.666 -5.491 4.145 -4.777 3.608 C -3.184 2.407 -1.592 1.204 0 0 Z" fill="#FD5758" transform="translate(214,294)"/>
  <path d="M0 0 C-1.60441663 10.86360202 -4.6281908 21.40291976 -7.4375 32 C-8.51901399 36.10361868 -9.59749558 40.20803201 -10.67578125 44.3125 C-10.9503717 45.35631836 -11.22496216 46.40013672 -11.50787354 47.47558594 C-13.42334788 54.76814748 -15.30673645 62.06841531 -17.16796875 69.375 C-17.54467964 70.85359497 -17.54467964 70.85359497 -17.92900085 72.36206055 C-18.89890372 76.17249088 -19.86761721 79.98321421 -20.83248901 83.79492188 C-21.49333616 86.4053984 -22.15668944 89.01522805 -22.8203125 91.625 C-23.01251877 92.3886084 -23.20472504 93.1522168 -23.40275574 93.93896484 C-24.44319755 98.02360896 -25.61051613 102.01613218 -27 106 C-31.49952425 103.54184781 -35.12304275 100.44011154 -38.9375 97.0625 C-40.27445082 95.89159729 -41.61169731 94.7210321 -42.94921875 93.55078125 C-43.62388184 92.95861816 -44.29854492 92.36645508 -44.99365234 91.75634766 C-48.06333715 89.06915947 -51.15344983 86.40615192 -54.25 83.75 C-54.83136719 83.25113281 -55.41273438 82.75226563 -56.01171875 82.23828125 C-59.44938377 79.29837768 -62.92393569 76.41175673 -66.4375 73.5625 C-71.47884012 69.46872454 -76.38302252 65.2310891 -81.27929688 60.96630859 C-87.46615259 55.58057138 -93.72389665 50.28124042 -100 45 C-95.30157645 39.46080591 -86.82272951 36.94292925 -80.125 34.5625 C-72.80750747 31.93492439 -65.83155479 28.30012273 -58.81738281 24.9609375 C-57.33571109 24.25569049 -55.85352956 23.55151357 -54.37084961 22.84838867 C-52.96664544 22.182165 -51.56370261 21.51327278 -50.16235352 20.84106445 C-46.64456215 19.17152386 -43.11244583 17.62973459 -39.484375 16.21484375 C-35.0406254 14.46401749 -30.68984819 12.53358564 -26.34765625 10.546875 C-25.67502243 10.23948898 -25.00238861 9.93210297 -24.30937195 9.61540222 C-21.51162653 8.33479443 -18.71524197 7.05132278 -15.92163086 5.76171875 C-13.85754879 4.81012266 -11.79038051 3.86552508 -9.72265625 2.921875 C-9.09142349 2.62819031 -8.46019073 2.33450562 -7.80982971 2.03192139 C-5.0053783 0.75696338 -3.12197974 0 0 0 Z " fill="#FE5758" transform="translate(374,64)"/>
  <path d="M0 0 C5.04097918 0.56786699 9.16017248 2.25689443 13.671875 4.45703125 C14.39433411 4.80126633 15.11679321 5.1455014 15.86114502 5.50016785 C18.16089722 6.59720192 20.45566028 7.7041968 22.75 8.8125 C25.76361419 10.26073749 28.77931239 11.70453937 31.796875 13.14453125 C32.5237149 13.4916214 33.25055481 13.83871155 33.99942017 14.19631958 C38.50154938 16.33152365 43.03183717 18.29440259 47.68359375 20.0847168 C52.23842533 21.88447055 56.67289142 23.9622804 61.125 26 C62.06214844 26.42539063 62.99929687 26.85078125 63.96484375 27.2890625 C68.13692092 29.19129629 72.28395086 31.12003138 76.375 33.19140625 C79.16098722 34.60173709 81.94862051 35.83884195 84.875 36.9375 C90.08751685 38.96908654 95.03794404 41.42395393 100 44 C92.07594358 52.01050068 83.75419469 59.49012895 74.98046875 66.5546875 C71.42709981 69.47003344 67.96265407 72.47799995 64.5 75.5 C59.26617026 80.06643747 53.95634191 84.51109964 48.5546875 88.87890625 C45.90445997 91.07932452 43.3557381 93.3645728 40.8125 95.6875 C36.72944169 99.41124918 32.49953499 102.79502396 28 106 C25.68448083 102.52672124 24.79764963 99.12498874 23.75 95.14453125 C23.42861557 93.94839958 23.42861557 93.94839958 23.10073853 92.72810364 C22.39446968 90.09113534 21.69693926 87.45194817 21 84.8125 C20.5097217 82.97115976 20.01932292 81.1298516 19.52880859 79.28857422 C15.69170182 64.83273739 12.019391 50.33669725 8.4375 35.81567383 C8.05470697 34.26513191 7.67189477 32.71459473 7.2890625 31.1640625 C7.10539124 30.41837509 6.92171997 29.67268768 6.73248291 28.90440369 C5.72395597 24.83358573 4.68158412 20.77389657 3.60058594 16.72167969 C3.25294693 15.41812027 3.25294693 15.41812027 2.89828491 14.08822632 C2.44985262 12.41493255 1.99804297 10.74253917 1.54238892 9.07119751 C0.70922219 5.96777727 0 3.22885548 0 0 Z " fill="#FE5758" transform="translate(126,64)"/>
  <path d="M0 0 C3.77449667 1.48818261 5.34910634 3.5051907 7.625 6.8125 C10.62305069 11.07084237 13.68556119 15.25849267 16.875 19.375 C17.29692627 19.92099854 17.71885254 20.46699707 18.15356445 21.02954102 C19.01222071 22.14017829 19.87135183 23.25044859 20.73095703 24.36035156 C49.61659193 61.68161435 49.61659193 61.68161435 59 75 C58.67 75.66 58.34 76.32 58 77 C55.71845679 77.74255406 53.49069372 78.35883502 51.1640625 78.92578125 C50.43764557 79.10995605 49.71122864 79.29413086 48.96279907 79.48388672 C46.51883109 80.10155251 44.07209938 80.70736817 41.625 81.3125 C39.0139558 81.9649479 36.40342559 82.61942196 33.79296875 83.2742157 C31.91756283 83.74452407 30.04190382 84.21382417 28.16601562 84.6822052 C21.66201872 86.31180147 15.17516953 87.99942132 8.69454956 89.71955872 C4.03108494 90.95684598 -0.63585157 92.18074358 -5.30303955 93.40390015 C-7.60306185 94.0101734 -9.90153601 94.6223502 -12.19842529 95.24038696 C-15.43555718 96.11005938 -18.67772849 96.95771626 -21.921875 97.80078125 C-22.89828949 98.06890625 -23.87470398 98.33703125 -24.88070679 98.61328125 C-25.77697784 98.84184814 -26.6732489 99.07041504 -27.59667969 99.3059082 C-28.76925323 99.61707329 -28.76925323 99.61707329 -29.96551514 99.93452454 C-32 100 -32 100 -33.77520752 98.54338074 C-34.17938904 98.03406509 -34.58357056 97.52474945 -35 97 C-34.08042789 93.70939635 -33.07966435 90.44913249 -32.0625 87.1875 C-31.67481445 85.7943457 -31.67481445 85.7943457 -31.27929688 84.37304688 C-30.99248047 83.48037109 -30.70566406 82.58769531 -30.41015625 81.66796875 C-30.16402588 80.84578857 -29.91789551 80.0236084 -29.66430664 79.17651367 C-25.34880157 73.5328687 -15.10568673 73.04707593 -8.49609375 71.73828125 C-7.5322023 71.54276169 -6.56831085 71.34724213 -5.57521057 71.14579773 C-2.53034527 70.52941404 0.51601701 69.92083214 3.5625 69.3125 C5.64138043 68.89309523 7.7201576 68.47317824 9.79882812 68.05273438 C14.86471132 67.02923325 19.93195114 66.01272058 25 65 C23.68867252 62.30327256 22.40366098 60.10766831 20.41796875 57.85546875 C19.90427734 57.26822021 19.39058594 56.68097168 18.86132812 56.07592773 C18.30896484 55.45274658 17.75660156 54.82956543 17.1875 54.1875 C16.0142235 52.84904548 14.84104947 51.51050112 13.66796875 50.171875 C12.76183838 49.14223633 12.76183838 49.14223633 11.83740234 48.09179688 C8.87608688 44.72047733 5.93832215 41.32885428 3 37.9375 C2.47301514 37.33123779 1.94603027 36.72497559 1.40307617 36.1003418 C0.40373259 34.94899708 -0.58900979 33.79188071 -1.57421875 32.62841797 C-2.97509776 30.98570745 -2.97509776 30.98570745 -4.51953125 29.51611328 C-7.36732862 26.60457389 -8 25.27944903 -8 21.15234375 C-7.1213417 16.79946224 -5.62859386 12.68391796 -4 8.5625 C-3.72671875 7.84384766 -3.4534375 7.12519531 -3.171875 6.38476562 C-1.15826613 1.15826613 -1.15826613 1.15826613 0 0 Z " fill="#FE5758" transform="translate(349,324)"/>
  <path d="M0 0 C3 1 3 1 3.9831543 2.77832031 C4.26070557 3.53725586 4.53825684 4.29619141 4.82421875 5.078125 C5.13037109 5.90957031 5.43652344 6.74101562 5.75195312 7.59765625 C6.06068359 8.47292969 6.36941406 9.34820312 6.6875 10.25 C7.00783203 11.10980469 7.32816406 11.96960938 7.65820312 12.85546875 C9.17436905 17.05159534 10.36930142 20.47933819 10 25 C8.34765625 27.2890625 8.34765625 27.2890625 6.0625 29.625 C2.71996777 33.15061303 -0.45742479 36.71153774 -3.5 40.5 C-7.82004699 45.83785911 -12.38470902 50.9179942 -17 56 C-21.18910341 59.97872964 -21.18910341 59.97872964 -23 65 C-22.4097554 65.12083954 -21.8195108 65.24167908 -21.21138 65.36618042 C-15.06204459 66.62607167 -8.91407172 67.89245515 -2.7668457 69.16259766 C-0.47324292 69.63561574 1.82070083 70.1069837 4.11499023 70.57666016 C7.41481336 71.25248451 10.71336027 71.9342555 14.01171875 72.6171875 C15.54792122 72.92981033 15.54792122 72.92981033 17.11515808 73.24874878 C18.07577652 73.44880524 19.03639496 73.64886169 20.02612305 73.85498047 C20.86773483 74.02818817 21.70934662 74.20139587 22.57646179 74.37985229 C25.18775855 75.04804465 27.55904155 75.85418492 30 77 C31.21020508 79.15478516 31.21020508 79.15478516 32.01953125 81.7890625 C32.31923828 82.73007812 32.61894531 83.67109375 32.92773438 84.640625 C33.21970703 85.62546875 33.51167969 86.6103125 33.8125 87.625 C34.12380859 88.61757813 34.43511719 89.61015625 34.75585938 90.6328125 C35.52174045 93.08363194 36.26882067 95.53864817 37 98 C34 100 34 100 31.5632782 99.72488403 C30.59453262 99.47809906 29.62578705 99.23131409 28.62768555 98.97705078 C27.52258636 98.70215317 26.41748718 98.42725555 25.27890015 98.14402771 C24.07698029 97.83095169 22.87506042 97.51787567 21.63671875 97.1953125 C20.38855377 96.88082657 19.14038879 96.56634064 17.85440063 96.24232483 C14.48831654 95.39367704 11.12656087 94.52896256 7.76553726 93.66051865 C4.3193259 92.77241598 0.86976079 91.89752865 -2.5793457 91.02075195 C-9.22685933 89.32814997 -15.86955241 87.61733079 -22.51086426 85.90057373 C-25.59177923 85.10536503 -28.67383144 84.31489261 -31.75683594 83.52783203 C-36.07028747 82.42651637 -40.37982168 81.31119397 -44.6875 80.1875 C-45.87577393 79.88150879 -47.06404785 79.57551758 -48.28833008 79.26025391 C-49.33142334 78.9822998 -50.3745166 78.7043457 -51.44921875 78.41796875 C-52.31893311 78.18875732 -53.18864746 77.9595459 -54.0847168 77.72338867 C-56 77 -56 77 -57 75 C-48.38700346 63.18235156 -39.59820562 51.52860262 -30.578125 40.01904297 C-27.48185619 36.05769658 -24.42466632 32.06644336 -21.36328125 28.078125 C-19.73822015 25.9615165 -18.11106948 23.84670141 -16.48046875 21.734375 C-10.92545175 14.5347666 -5.43724397 7.28905895 0 0 Z " fill="#FE5758" transform="translate(149,324)"/>
  <path d="M0 0 C2.61712286 2.36271395 4.17321749 4.83435853 5.86328125 7.91796875 C6.68892578 9.41142822 6.68892578 9.41142822 7.53125 10.93505859 C8.41296875 12.54501709 8.41296875 12.54501709 9.3125 14.1875 C10.56715522 16.45545439 11.82371799 18.72235438 13.08203125 20.98828125 C13.4037027 21.56779541 13.72537415 22.14730957 14.05679321 22.74438477 C17.99371207 29.81684959 22.09413435 36.79354076 26.2043457 43.76635742 C27.81424002 46.50449636 29.4101983 49.25015211 31 52 C31.87785156 53.50095215 31.87785156 53.50095215 32.7734375 55.03222656 C33.33289063 56.01416992 33.89234375 56.99611328 34.46875 58.0078125 C34.97857422 58.89355957 35.48839844 59.77930664 36.01367188 60.69189453 C37 63 37 63 36 66 C33.60522461 67.5871582 33.60522461 67.5871582 30.40234375 69.30078125 C29.82474304 69.61393784 29.24714233 69.92709442 28.65203857 70.2497406 C27.40343248 70.92574183 26.15257167 71.59759134 24.89974976 72.26574707 C21.5842712 74.03437356 18.28496431 75.83269136 14.984375 77.62890625 C14.31407761 77.99277435 13.64378021 78.35664246 12.95317078 78.73153687 C5.45885468 82.81315401 -1.8927301 87.12902952 -9.23266602 91.48168945 C-14.40340079 94.53593671 -19.59155838 97.38771636 -25 100 C-23.59113086 91.47546816 -21.63449008 83.14273296 -19.515625 74.76953125 C-19.17381886 73.40793107 -18.83233448 72.04625008 -18.4911499 70.68449402 C-17.59570628 67.11408401 -16.69604656 63.54475012 -15.79541016 59.97564697 C-14.90019505 56.42514131 -14.00878959 52.87367999 -13.1171875 49.32226562 C-12.07261227 45.16201788 -11.02735777 41.00194753 -9.97839355 36.84280396 C-8.36482186 30.44353102 -6.75985647 24.04239285 -5.18164062 17.63427734 C-4.90382751 16.5096257 -4.6260144 15.38497406 -4.33978271 14.22624207 C-3.82401305 12.13526276 -3.31104388 10.04359 -2.80133057 7.9511261 C-2.46412994 6.58639412 -2.46412994 6.58639412 -2.12011719 5.1940918 C-1.92649597 4.40270309 -1.73287476 3.61131439 -1.53338623 2.79594421 C-1 1 -1 1 0 0 Z " fill="#FE5758" transform="translate(353,191)"/>
  <path d="M0 0 C2 1 2 1 2.7940979 3.33460999 C3.17759903 4.89193092 3.17759903 4.89193092 3.56884766 6.48071289 C3.86320709 7.65867935 4.15756653 8.83664581 4.46084595 10.05030823 C4.77872905 11.3577225 5.09646338 12.66517296 5.4140625 13.97265625 C5.75003542 15.32964302 6.08674986 16.68644639 6.42416382 18.04307556 C7.31937192 21.65075546 8.20472873 25.26078378 9.0880127 28.87139893 C9.95550345 32.4110728 10.83139884 35.94866113 11.70703125 39.48632812 C12.75032378 43.70225011 13.79196395 47.91854563 14.82550049 52.13687134 C16.62758612 59.48633547 18.46009269 66.82649807 20.34277344 74.15576172 C20.90812876 76.36901519 21.47293346 78.58240853 22.0376091 80.79583549 C22.40068607 82.21135727 22.76671772 83.62612473 23.1358223 85.04008675 C23.64515294 86.99156433 24.14388842 88.94579805 24.64208984 90.90014648 C24.92917816 92.00905746 25.21626648 93.11796844 25.51205444 94.26048279 C26 97 26 97 25 100 C24.28271729 99.58862793 23.56543457 99.17725586 22.82641602 98.75341797 C19.40584083 96.79266871 15.98443643 94.83337226 12.5625 92.875 C11.93718384 92.51707367 11.31186768 92.15914734 10.66760254 91.79037476 C0.53978487 85.99591733 -9.62131298 80.26527463 -19.82592773 74.60693359 C-25.32024519 71.5491543 -30.70026891 68.3845439 -36 65 C-34.70803074 60.75540641 -33.08904687 57.10956143 -30.8671875 53.2734375 C-30.23312988 52.17185303 -29.59907227 51.07026855 -28.94580078 49.93530273 C-28.25561817 48.74848612 -27.56534917 47.56171974 -26.875 46.375 C-26.16464389 45.14493467 -25.45485474 43.91454176 -24.74560547 42.68383789 C-23.26153099 40.10946237 -21.77498542 37.53653543 -20.28710938 34.96435547 C-17.99454094 30.99623176 -15.72138377 27.01721464 -13.453125 23.03515625 C-13.08764557 22.39376709 -12.72216614 21.75237793 -12.34561157 21.09155273 C-10.92217402 18.59316247 -9.49903001 16.09460564 -8.07659912 13.59564209 C-7.09638079 11.87436443 -6.11463093 10.15395921 -5.1328125 8.43359375 C-4.57480957 7.45447021 -4.01680664 6.47534668 -3.44189453 5.46655273 C-2.35518814 3.60759664 -1.19442919 1.79164378 0 0 Z " fill="#FE5758" transform="translate(146,191)"/>
  <path d="M0 0 C25.74 0 51.48 0 78 0 C76.40601419 3.98496452 75.07114246 6.58196774 72.65625 9.9921875 C71.65972412 11.40951172 71.65972412 11.40951172 70.64306641 12.85546875 C69.93585449 13.85191406 69.22864258 14.84835938 68.5 15.875 C67.03797293 17.95496373 65.57703423 20.0356929 64.1171875 22.1171875 C63.05322754 23.6326416 63.05322754 23.6326416 61.96777344 25.17871094 C59.47316831 28.7553433 57.03299383 32.36466443 54.625 36 C54.24214844 36.57613037 53.85929687 37.15226074 53.46484375 37.74584961 C51.37328652 40.90147765 49.30368535 44.07075673 47.2421875 47.24609375 C46.78376465 47.94669922 46.3253418 48.64730469 45.85302734 49.36914062 C44.96974802 50.7194009 44.09219096 52.07342674 43.22119141 53.43164062 C42.19937252 54.98973622 41.10601547 56.50049825 40 58 C39.34 58 38.68 58 38 58 C36.55305811 56.0528025 35.23976092 54.10511101 33.9375 52.0625 C33.04054432 50.6865329 32.14198326 49.31161154 31.2421875 47.9375 C30.73526367 47.16148437 30.22833984 46.38546875 29.70605469 45.5859375 C26.37839147 40.54206102 22.9647279 35.55623786 19.5625 30.5625 C18.83224609 29.48806641 18.10199219 28.41363281 17.34960938 27.30664062 C14.07429924 22.49172983 10.78986362 17.68428312 7.4609375 12.90625 C6.94329834 12.16173584 6.42565918 11.41722168 5.89233398 10.65014648 C4.94809187 9.2951852 3.99990959 7.94295804 3.04711914 6.59399414 C0 2.22063036 0 2.22063036 0 0 Z " fill="#313030" transform="translate(211,199)"/>
  <path d="M0 0 C4.1030686 1.2249741 7.36438139 2.67820521 10.875 5.125 C12.04675781 5.93324219 12.04675781 5.93324219 13.2421875 6.7578125 C14.11230469 7.37269531 14.11230469 7.37269531 15 8 C13.57343605 11.78974331 11.84224358 15.25926779 9.875 18.796875 C8.9461499 20.46991699 8.9461499 20.46991699 7.99853516 22.17675781 C7.33261016 23.36798023 6.66642651 24.55905809 6 25.75 C5.66297058 26.3543689 5.32594116 26.95873779 4.97869873 27.5814209 C-0.53787971 37.4734652 -6.1736456 47.28696949 -12 57 C-12.8698177 58.45441152 -13.73960882 59.90883892 -14.609375 61.36328125 C-16.7340324 64.912213 -18.86506364 68.45724329 -21 72 C-25.1030686 70.7750259 -28.36438139 69.32179479 -31.875 66.875 C-32.65617187 66.33617187 -33.43734375 65.79734375 -34.2421875 65.2421875 C-34.82226562 64.83226562 -35.40234375 64.42234375 -36 64 C-34.57343605 60.21025669 -32.84224358 56.74073221 -30.875 53.203125 C-30.2557666 52.08776367 -29.6365332 50.97240234 -28.99853516 49.82324219 C-28.33261016 48.63201977 -27.66642651 47.44094191 -27 46.25 C-26.66297058 45.6456311 -26.32594116 45.04126221 -25.97869873 44.4185791 C-20.46212029 34.5265348 -14.8263544 24.71303051 -9 15 C-8.1301823 13.54558848 -7.26039118 12.09116108 -6.390625 10.63671875 C-4.2659676 7.087787 -2.13493636 3.54275671 0 0 Z " fill="#FE5657" transform="translate(319,335)"/>
</svg>