<?xml version="1.0" encoding="UTF-8"?>
<svg version="1.1" xmlns="http://www.w3.org/2000/svg" width="1000" height="1000">
<path d="M0 0 C3.85153093 0.01709079 7.70243953 0.00690063 11.55394936 -0.01031685 C31.4348109 -0.08563044 50.87763204 0.87163081 70.62304688 3.39111328 C71.51286255 3.50453064 72.40267822 3.617948 73.31945801 3.73480225 C78.31469791 4.39143762 83.28286234 5.1631556 88.24804688 6.01611328 C88.97278198 6.13783905 89.69751709 6.25956482 90.44421387 6.38497925 C102.37759847 8.40642111 114.13591278 11.00641702 125.87304688 13.95361328 C126.60469055 14.1371637 127.33633423 14.32071411 128.09014893 14.50982666 C201.27532923 33.03449529 270.08924353 68.2233209 327.30102539 117.54003906 C329.42638262 119.37100148 331.56550706 121.18265711 333.72241211 122.97631836 C342.53731564 130.34829486 350.75838277 138.21598306 358.85668945 146.36401367 C360.94389879 148.46200836 363.04168277 150.54900443 365.140625 152.63525391 C371.72982932 159.21833199 378.08640664 165.80524872 383.83959961 173.14233398 C385.59840389 175.36004052 387.44925041 177.44105486 389.37304688 179.51611328 C450.1789859 247.30570471 487.96344687 339.14451588 504.82617188 479.82861328 C504.82899925 480.5969046 504.83182663 481.36519592 504.83473969 482.1567688 C504.84962951 486.23618901 504.8589189 490.3155749 504.86328125 494.39501953 C504.86763134 497.69721739 504.88140208 500.99914889 504.90429688 504.30126953 C505.04625015 525.22274713 504.41928976 545.62144245 501.62304688 566.39111328 C501.50709167 567.26711182 501.39113647 568.14311035 501.27166748 569.0456543 C500.5893744 574.09515502 499.79992299 579.11983198 498.93554688 584.14111328 C498.81121277 584.8765033 498.68687866 585.61189331 498.55877686 586.36956787 C483.94610889 672.2016124 446.13826642 751.26822856 379.81835938 831.98486328 C378.6358844 833.28095685 377.46007001 834.58411058 376.328125 835.92456055 C370.54208462 842.73635808 364.19756083 849.0026734 357.88183594 855.31762695 C355.88641274 857.3152328 353.89913631 859.32070681 351.91210938 861.32666016 C345.49152188 867.77484889 339.06102483 873.96076579 331.89599609 879.58569336 C329.67113354 881.3529177 327.58101646 883.20992929 325.49804688 885.14111328 C303.91949665 904.49665122 278.84199772 920.78083847 253.75146484 935.17041016 C252.35254288 935.97272833 250.95566161 936.77861711 249.56103516 937.58837891 C182.87937584 976.2343299 102.47646239 1000.39801911 25.18554688 1000.59423828 C24.41725555 1000.59706566 23.64896423 1000.59989304 22.85739136 1000.60280609 C18.77797114 1000.61769592 14.69858525 1000.6269853 10.61914062 1000.63134766 C7.31694276 1000.63569774 4.01501127 1000.64946849 0.71289062 1000.67236328 C-20.20858697 1000.81431656 -40.6072823 1000.18735616 -61.37695312 997.39111328 C-62.25295166 997.27515808 -63.1289502 997.15920288 -64.03149414 997.03973389 C-69.08100242 996.35743979 -74.10561486 995.56767594 -79.12695312 994.70361328 C-79.86134613 994.57961151 -80.59573914 994.45560974 -81.35238647 994.32785034 C-123.61821756 987.14293447 -164.4061123 974.247274 -203.37695312 956.39111328 C-204.37404297 955.93510742 -205.37113281 955.47910156 -206.3984375 955.00927734 C-250.08546618 934.87897982 -291.52103142 908.2583247 -326.97070312 875.58642578 C-328.26679669 874.4039508 -329.56995043 873.22813642 -330.91040039 872.09619141 C-337.72219792 866.31015103 -343.98851325 859.96562723 -350.3034668 853.64990234 C-352.30107264 851.65447914 -354.30654666 849.66720272 -356.3125 847.68017578 C-362.76068873 841.25958828 -368.94660563 834.82909123 -374.5715332 827.6640625 C-376.33875754 825.43919995 -378.19576914 823.34908287 -380.12695312 821.26611328 C-399.48249107 799.68756306 -415.76667832 774.61006412 -430.15625 749.51953125 C-430.95856817 748.12060929 -431.76445696 746.72372801 -432.57421875 745.32910156 C-455.96198474 704.97467882 -472.86175606 660.79734375 -483.37695312 615.39111328 C-483.76874756 613.70816162 -483.76874756 613.70816162 -484.16845703 611.99121094 C-487.5485062 597.21628321 -490.10720437 582.39516646 -492.18945312 567.39111328 C-492.34743378 566.25622971 -492.34743378 566.25622971 -492.50860596 565.09841919 C-494.5369458 550.37177237 -495.54234507 535.81669789 -495.58007812 520.95361328 C-495.58431919 519.8011763 -495.58431919 519.8011763 -495.58864594 518.62545776 C-495.60353576 514.54603755 -495.61282515 510.46665166 -495.6171875 506.38720703 C-495.62153759 503.08500917 -495.63530833 499.78307768 -495.65820312 496.48095703 C-495.8001564 475.55947944 -495.17319601 455.16078411 -492.37695312 434.39111328 C-492.26099792 433.51511475 -492.14504272 432.63911621 -492.02557373 431.73657227 C-491.34327963 426.68706398 -490.55351578 421.66245154 -489.68945312 416.64111328 C-489.56545135 415.90672028 -489.44144958 415.17232727 -489.31369019 414.41567993 C-482.12877432 372.14984885 -469.23311384 331.36195411 -451.37695312 292.39111328 C-450.92094727 291.39402344 -450.46494141 290.39693359 -449.99511719 289.36962891 C-429.86481966 245.68260023 -403.24416455 204.24703499 -370.57226562 168.79736328 C-369.38421588 167.49515929 -368.20311877 166.18568738 -367.06445312 164.84008789 C-361.40879701 158.19060653 -355.23179682 152.05987278 -349.06298828 145.8918457 C-347.1399913 143.96666626 -345.22514738 142.03362297 -343.31054688 140.10009766 C-337.03714311 133.79867903 -330.74273129 127.77672063 -323.74072266 122.28125 C-321.22604812 120.27044539 -318.86412884 118.14061698 -316.50195312 115.95361328 C-244.31124537 50.43884872 -143.6960314 11.99657213 0 0 Z " fill="#FAFAFB" transform="translate(495.376953125,-0.39111328125)"/>
<path d="M0 0 C2.68396916 0.41428823 5.36986276 0.81355141 8.05651855 1.21002197 C12.68099394 1.89557301 17.29999394 2.61075602 21.9163208 3.34915161 C23.65877221 3.62655453 25.40212115 3.89839311 27.14642334 4.16390991 C42.82238437 6.58019304 56.90075727 10.51294983 68.27233887 22.14898682 C71.54822162 25.3363322 74.12509697 25.55342485 78.52233887 25.58648682 C79.80431152 25.60775635 79.80431152 25.60775635 81.11218262 25.62945557 C84.64036108 25.30060481 86.71845645 24.42870363 89.01452637 21.69976807 C89.49147949 21.04363525 89.96843262 20.38750244 90.45983887 19.71148682 C99.75274863 8.90896935 114.24514154 6.57333621 127.58483887 4.39898682 C128.7601416 4.20594971 129.93544434 4.0129126 131.1463623 3.81402588 C145.95072137 1.41826871 160.79804404 -0.71114877 175.66946411 -2.64691162 C177.6350272 -2.90373806 179.5995827 -3.16824017 181.56408691 -3.43304443 C190.29166469 -4.53395432 198.79664785 -4.76229904 207.58483887 -4.60101318 C209.05910946 -4.58751459 210.53339532 -4.57560841 212.00769043 -4.56512451 C215.92430189 -4.53411649 219.83954897 -4.47130715 223.75549316 -4.39349365 C225.35173581 -4.36514352 226.94812251 -4.3439995 228.54455566 -4.33001709 C252.15808124 -4.11291449 252.15808124 -4.11291449 260.4432373 1.70367432 C267.52303924 9.40250375 268.02626011 21.27600644 267.92468262 31.11773682 C267.20096641 38.1053416 263.82720181 43.20933514 259.14733887 48.27398682 C248.42515998 60.0195407 244.95612557 77.2286682 243.58483887 92.64898682 C241.9958258 110.36339704 234.74054551 125.26366739 221.58483887 137.39898682 C207.79940359 147.60378956 190.80168833 155.24155156 173.58483887 156.39898682 C172.53940918 156.53304932 171.49397949 156.66711182 170.41687012 156.80523682 C153.25479248 158.08572344 134.64027903 149.69288805 121.45593262 138.94586182 C112.56043398 131.05488888 106.71519582 122.9580669 101.55700684 112.39019775 C100.57387011 110.37652042 99.56891701 108.37515315 98.55749512 106.37554932 C97.20658609 103.69991544 95.86695753 101.01916607 94.53796387 98.33258057 C93.25145722 95.73324654 91.94966558 93.14267316 90.63171387 90.55914307 C87.59642849 84.59532143 84.80146333 78.71636653 82.58483887 72.39898682 C82.03111613 71.10353317 81.46878684 69.8117198 80.89733887 68.52398682 C79.58483887 65.39898682 79.58483887 65.39898682 79.58483887 63.39898682 C78.92483887 63.39898682 78.26483887 63.39898682 77.58483887 63.39898682 C77.49202637 63.92363525 77.39921387 64.44828369 77.30358887 64.98883057 C76.33843982 68.22522712 74.71754997 71.02587381 73.08483887 73.96148682 C69.8264136 79.93005179 66.83410622 85.98679189 63.95983887 92.14898682 C61.16935786 98.11065649 58.33962024 104.00393554 55.09265137 109.73492432 C53.96881332 111.72056564 52.88676918 113.72997302 51.82702637 115.75054932 C40.59066263 136.90254687 22.82802828 148.78475995 0.07116699 155.76177979 C-6.14458813 157.35478066 -12.05776451 157.13450051 -18.41516113 156.39898682 C-19.42691406 156.29964844 -19.42691406 156.29964844 -20.45910645 156.19830322 C-40.09034954 154.15625012 -61.73723591 144.44710401 -74.45812988 129.03570557 C-82.97167963 117.56535411 -88.26801349 104.53886265 -88.85266113 90.14898682 C-89.58782822 74.09783869 -94.90347972 56.12265201 -106.87219238 45.07867432 C-113.0101865 38.3968073 -112.68567806 27.88806574 -112.41516113 19.39898682 C-112.39840332 18.64230713 -112.38164551 17.88562744 -112.36437988 17.10601807 C-111.94652421 10.36063371 -109.62820681 3.29138231 -104.49719238 -1.32757568 C-100.15583674 -3.98288889 -95.39578841 -3.88892613 -90.42297363 -4.14007568 C-89.6308548 -4.18129547 -88.83873596 -4.22251526 -88.02261353 -4.26498413 C-58.31381266 -5.72065974 -29.3873624 -4.57802741 0 0 Z " fill="#000000" transform="translate(430.4151611328125,354.60101318359375)"/>
<path d="M0 0 C1.15530716 0.01135986 1.15530716 0.01135986 2.33395386 0.02294922 C5.48529322 0.07917118 8.02057585 0.2347232 11.03125 1.23828125 C12.51090926 1.38401183 13.99528843 1.48491393 15.48046875 1.5546875 C16.32802734 1.59658203 17.17558594 1.63847656 18.04882812 1.68164062 C18.92990234 1.72095703 19.81097656 1.76027344 20.71875 1.80078125 C21.61142578 1.84396484 22.50410156 1.88714844 23.42382812 1.93164062 C25.62615108 2.03763478 27.82858473 2.13970176 30.03125 2.23828125 C30.28957274 5.7159115 30.50745671 9.19500223 30.71875 12.67578125 C30.79158203 13.64966797 30.86441406 14.62355469 30.93945312 15.62695312 C31.40816196 23.87071447 30.35417455 30.3959088 25.28125 37.05078125 C21.94639727 41.76126073 20.16065448 46.82881761 18.28125 52.23828125 C17.84087402 53.50248901 17.84087402 53.50248901 17.39160156 54.79223633 C14.77288 62.56893115 13.05550987 70.12496574 12.28125 78.30078125 C10.65493573 90.77336072 6.3521514 104.38061742 -2.96875 113.23828125 C-7.4100491 116.39815231 -12.21314945 118.88974754 -17.08886719 121.30419922 C-18.72375093 122.11654535 -20.33678909 122.97256995 -21.9453125 123.8359375 C-26.8195389 126.42395554 -31.49220524 128.38061682 -36.96875 129.23828125 C-38.01675781 129.46515625 -39.06476563 129.69203125 -40.14453125 129.92578125 C-55.91934951 132.28463258 -72.33464026 124.70501076 -85.09375 115.73828125 C-98.03360733 104.74800361 -103.28576301 87.72968281 -108.96875 72.23828125 C-109.39800781 71.09359375 -109.39800781 71.09359375 -109.8359375 69.92578125 C-110.62503205 67.7130625 -111.31408849 65.49445934 -111.96875 63.23828125 C-112.38833984 61.84222656 -112.38833984 61.84222656 -112.81640625 60.41796875 C-114.86280304 52.51792535 -115.2828795 44.93713804 -115.34375 36.80078125 C-115.35752686 35.77009521 -115.37130371 34.73940918 -115.38549805 33.67749023 C-115.34944665 27.77515544 -114.9979805 23.36416255 -111.96875 18.23828125 C-103.87478129 10.99167034 -93.37068332 8.47162853 -82.90625 6.67578125 C-81.7527002 6.47380127 -80.59915039 6.27182129 -79.41064453 6.0637207 C-75.60126258 5.42092217 -71.78787102 4.82036895 -67.96875 4.23828125 C-66.98367462 4.08782349 -66.98367462 4.08782349 -65.97869873 3.93432617 C-43.96735816 0.61180924 -22.2481674 -0.26752079 0 0 Z " fill="#2E2E31" transform="translate(645.96875,365.76171875)"/>
<path d="M0 0 C1.10189163 0.13004929 1.10189163 0.13004929 2.2260437 0.26272583 C13.32000455 1.58250384 24.33080148 3.26043902 35.3125 5.3125 C36.57094727 5.5408252 37.82939453 5.76915039 39.12597656 6.00439453 C47.56405559 7.67116143 57.8855267 9.99884921 63.25 17.375 C69.85562058 32.49775774 65.20771845 54.31193515 60.25 69.375 C59.3224221 71.66388548 58.32405363 73.90156167 57.28076172 76.13989258 C56.23369476 78.41035635 55.28531006 80.70270656 54.35546875 83.0234375 C47.12005136 100.94745468 39.62391632 113.42887775 21.25 121.375 C20.61030273 121.6735791 19.97060547 121.9721582 19.31152344 122.27978516 C8.14317317 127.46490792 -0.568352 129.63181058 -12.75 127.375 C-13.78898437 127.189375 -14.82796875 127.00375 -15.8984375 126.8125 C-23.39686735 124.96198775 -29.96379964 121.3402273 -36.6875 117.625 C-37.58815186 117.13604248 -38.48880371 116.64708496 -39.41674805 116.14331055 C-45.33920436 112.73428421 -49.14653362 109.17858238 -52.75 103.375 C-53.25789063 102.55773437 -53.76578125 101.74046875 -54.2890625 100.8984375 C-59.46004007 90.6680862 -61.79870963 80.03972259 -63.26953125 68.73828125 C-65.27276051 54.71567642 -70.16187369 41.32108629 -78.33203125 29.7421875 C-80.77821794 25.65847088 -80.87469538 21.74421228 -80.62890625 17.07421875 C-80.58056641 16.09775391 -80.53222656 15.12128906 -80.48242188 14.11523438 C-80.42634766 13.10783203 -80.37027344 12.10042969 -80.3125 11.0625 C-80.26029297 10.03576172 -80.20808594 9.00902344 -80.15429688 7.95117188 C-80.02507334 5.42543913 -79.89012709 2.90014739 -79.75 0.375 C-73.83189362 0.08429414 -67.91352941 -0.20020722 -61.99487305 -0.47949219 C-59.99056375 -0.57488214 -57.98632794 -0.67183177 -55.98217773 -0.77050781 C-37.17689441 -1.6945077 -18.72080775 -2.2799727 0 0 Z " fill="#2E2E31" transform="translate(419.75,367.625)"/>
<path d="M0 0 C4.40674003 1.93158869 6.49962194 4.9387869 8.51953125 9.22265625 C12.32511959 19.32875535 12.859618 29.56319424 12.96923828 40.26367188 C13.00017756 43.01579399 13.0738652 45.76448876 13.15234375 48.515625 C13.37946385 58.83297095 12.77981621 68.0080339 10 78 C9.77183594 78.90234375 9.54367187 79.8046875 9.30859375 80.734375 C7.39558599 88.12405068 5.03500148 95.38580139 2.73193359 102.66088867 C1.85248661 105.47142288 0.99587845 108.28866761 0.13671875 111.10546875 C-10.54826633 145.82853866 -10.54826633 145.82853866 -18.1171875 157.88671875 C-31.13865288 179.41806296 -34.71192694 204.65067344 -29 229 C-26.53249414 236.91267702 -21.26739075 242.40734796 -15.62109375 248.23828125 C-13 251 -13 251 -11.07421875 253.51953125 C-8.48288606 256.61839426 -5.57246789 258.9290885 -2.375 261.375 C-1.44131592 262.09780151 -1.44131592 262.09780151 -0.48876953 262.83520508 C7.30500708 268.83064957 15.41845174 274.29098282 23.62109375 279.70703125 C26.09024781 281.3612392 28.5063541 283.07647741 30.91015625 284.82421875 C42.19112423 293.01060728 53.81854648 300.17485175 66.4453125 306.1171875 C81.40317769 313.16465951 81.40317769 313.16465951 85 320 C85.85053587 323.72927266 85.81198531 325.60315813 83.8828125 328.921875 C81.19592368 332.43661604 78.65723753 334.86313235 74.21020508 335.97973633 C69.01486392 336.02736842 64.2174249 333.11727715 59.625 330.9375 C58.53960937 330.44572266 57.45421875 329.95394531 56.3359375 329.44726562 C47.17274314 325.24746821 38.51835238 320.43521035 30 315.0625 C29.2999585 314.62357422 28.59991699 314.18464844 27.87866211 313.73242188 C24.39991007 311.54339887 20.95503911 309.32121097 17.5625 307 C14.08026029 304.62939835 10.47841583 302.52700778 6.82861328 300.42944336 C0.29682153 296.66954643 -5.82986609 292.88525839 -11.6015625 288 C-14.37785448 285.68491613 -17.26922813 283.57036043 -20.1875 281.4375 C-24.2480244 278.41414658 -27.89712391 275.33031875 -31.375 271.66015625 C-33.08099913 269.91724849 -34.87992354 268.37718091 -36.75 266.8125 C-50.05756826 255.24295723 -56.7561517 244.04383251 -60.54125977 226.96313477 C-60.84774146 225.65157581 -61.18448551 224.34673313 -61.55053711 223.05053711 C-62.99203435 217.90087283 -63.27792476 213.14592655 -63.1875 207.8125 C-63.1767041 206.97662354 -63.1659082 206.14074707 -63.15478516 205.27954102 C-63.12748265 203.61039429 -63.09380625 201.94133756 -63.05322266 200.27246094 C-63.00822735 198.35128527 -62.99121636 196.42948495 -62.98046875 194.5078125 C-62.23137876 172.70097071 -49.34272374 151.4488236 -39.71411133 132.45483398 C-34.7116999 122.5369983 -30.6943856 112.41915543 -27.28125 101.8515625 C-25.97515231 97.85367911 -24.4998371 93.92855329 -23 90 C-15.64143272 70.64793909 -12.97505108 53.4875357 -12.8125 32.8125 C-12.79304321 31.50442383 -12.79304321 31.50442383 -12.77319336 30.16992188 C-12.76579277 25.0664754 -13.45319921 20.90941122 -15 16 C-15 9.7730197 -13.68155703 6.88747798 -9.47265625 2.34765625 C-6.45150699 -0.41705594 -3.99585487 -0.52775442 0 0 Z " fill="#000000" transform="translate(311,573)"/>
<path d="M0 0 C3.57356727 2.27477076 6.27854553 4.82763648 8.5 8.4375 C9.29195129 12.49625036 8.46928394 16.14684227 7.46484375 20.11328125 C6.20747048 27.92167493 6.88135263 36.11483511 7 44 C7.00725098 44.81355957 7.01450195 45.62711914 7.02197266 46.46533203 C7.16581806 58.04854431 9.21470808 68.07558231 13 79 C13.24443848 79.72106934 13.48887695 80.44213867 13.74072266 81.18505859 C16.5410822 89.43249241 19.55310964 97.59329412 22.73046875 105.703125 C23.63843905 108.06105403 24.51507365 110.41782902 25.36328125 112.796875 C28.00567711 120.15957951 30.96789133 127.18979994 34.53955078 134.15551758 C56.60936946 177.34253794 56.60936946 177.34253794 57 198 C57.0731879 199.43104268 57.1474761 200.86202935 57.22265625 202.29296875 C57.90973587 219.68432808 54.88644541 241.30445929 42.75 254.625 C42.26619873 255.17494629 41.78239746 255.72489258 41.28393555 256.29150391 C34.977778 263.3938882 28.21221357 269.82857335 21 276 C20.44828125 276.49113281 19.8965625 276.98226563 19.328125 277.48828125 C15.05016379 281.26714698 10.51264662 284.61460004 5.87109375 287.93359375 C4.03345131 289.25619627 2.21129052 290.60075156 0.41015625 291.97265625 C-5.51930222 296.45764514 -11.64982037 300.14518619 -18.15356445 303.70800781 C-22.90021168 306.32520679 -27.32239311 309.20030235 -31.71484375 312.3828125 C-42.54658256 320.04835074 -54.66939499 326.09172915 -66.75 331.5 C-67.73871094 331.96664063 -68.72742188 332.43328125 -69.74609375 332.9140625 C-77.83576952 336.52147466 -77.83576952 336.52147466 -81.98828125 335.48046875 C-86.23686454 333.39199525 -88.627992 331.08051725 -91 327 C-91.86395332 323.3448129 -91.73428967 321.39543171 -89.98046875 318.0625 C-85.40855772 311.88619802 -78.98060212 309.18215467 -72.21875 306.015625 C-68.17273789 304.11882483 -64.29924816 301.99499387 -60.4375 299.75 C-59.36371094 299.12609375 -58.28992188 298.5021875 -57.18359375 297.859375 C-55.60771484 296.93898438 -55.60771484 296.93898438 -54 296 C-52.88109375 295.38125 -51.7621875 294.7625 -50.609375 294.125 C-46.48340006 291.77055608 -42.66487851 289.02251513 -38.8125 286.25 C-33.736512 282.62783848 -28.64447349 279.05656777 -23.4375 275.625 C-18.82271622 272.57359195 -14.35828721 269.40677032 -10 266 C-9.16339844 265.34902344 -8.32679688 264.69804688 -7.46484375 264.02734375 C-3.04588053 260.54553915 1.05198901 257.01565604 5 253 C5.81339844 252.22140625 6.62679687 251.4428125 7.46484375 250.640625 C16.7966305 241.61842359 22.39012585 233.63473364 24.625 220.75 C24.82609375 219.68072266 24.82609375 219.68072266 25.03125 218.58984375 C26.51026542 210.21378706 26.16643693 202.41031751 24.6875 194.0625 C24.54852295 193.27037109 24.4095459 192.47824219 24.26635742 191.66210938 C21.62570114 177.07933593 15.66081593 164.01540913 8.88647461 150.89648438 C2.66833044 138.85342649 -1.42532234 126.39928929 -5.015625 113.34765625 C-5.97681514 110.07884692 -7.10832697 106.93636696 -8.3125 103.75 C-10.8584252 96.79431029 -12.81930544 89.71116757 -14.75 82.5625 C-15.20886597 80.87302246 -15.20886597 80.87302246 -15.67700195 79.14941406 C-18.32062385 69.21004867 -19.13129834 60.26724152 -19 50 C-18.99436035 48.91009766 -18.9887207 47.82019531 -18.98291016 46.69726562 C-18.72504613 14.06043791 -18.72504613 14.06043791 -11.32421875 3.640625 C-7.91866733 0.34834025 -4.7493203 -1.18733007 0 0 Z " fill="#010101" transform="translate(694,573)"/>
<path d="M0 0 C1.87740608 0.96821057 3.7496971 1.94639322 5.6171875 2.93359375 C6.61709717 3.45880615 7.61700684 3.98401855 8.6472168 4.52514648 C16.16138747 8.53138179 23.30941267 12.92509174 30.3828125 17.65625 C34.6908549 20.5348433 39.11466652 23.20244579 43.5546875 25.87109375 C57.15296605 34.10743166 69.96287001 43.32209976 82.60864258 52.94311523 C84.61908409 54.46729831 86.63904173 55.97828571 88.66015625 57.48828125 C92.45891284 60.33481742 96.17482968 63.2707513 99.8671875 66.25390625 C101.60705281 67.65719047 103.35702832 69.04803761 105.1171875 70.42578125 C110.5528964 74.73958511 115.62933849 79.30336244 120.5546875 84.18359375 C121.11518799 84.73490967 121.67568848 85.28622559 122.25317383 85.85424805 C126.24201554 89.87377787 128.73577032 92.90115973 129.0546875 98.62109375 C128.96312141 103.65722887 126.77872774 106.18340695 123.4140625 109.7421875 C120.12797644 112.52734581 117.57860569 113.7533656 113.2421875 113.43359375 C105.99236193 112.41148719 101.82884021 106.99697212 97.3046875 101.68359375 C86.59519487 89.10842027 72.87826232 78.1112541 59.75390625 68.140625 C56.99444747 65.98167021 54.34588909 63.70659096 51.6796875 61.43359375 C46.88899124 57.38565287 41.88970261 53.84451531 36.62890625 50.43359375 C33.16855874 48.15829676 29.79425014 45.78467252 26.4296875 43.37109375 C25.53938843 42.73409546 25.53938843 42.73409546 24.63110352 42.08422852 C21.96477482 40.17036519 19.31594806 38.23928236 16.6875 36.2734375 C11.5255799 32.42114401 6.2508185 28.88871607 0.7421875 25.55859375 C-0.17904907 24.99869751 -0.17904907 24.99869751 -1.11889648 24.42749023 C-5.13277079 22.04254429 -9.18199663 20.12914969 -13.5078125 18.37109375 C-15.26430168 23.86196748 -16.09596348 29.13900285 -16.6328125 34.87109375 C-16.71700439 35.7525708 -16.80119629 36.63404785 -16.88793945 37.54223633 C-17.57218777 45.18682216 -17.74591408 52.6943705 -17.5078125 60.37109375 C-17.50136719 61.58667969 -17.49492187 62.80226563 -17.48828125 64.0546875 C-16.8300737 88.65214745 -10.16231868 113.34343439 1.27197266 135.03662109 C2.62333474 137.62200009 3.93934224 140.22385124 5.25390625 142.828125 C10.1010265 152.36737971 15.11919776 161.73909908 20.8046875 170.80859375 C21.27165039 171.55858643 21.73861328 172.3085791 22.21972656 173.08129883 C25.11823143 177.60114847 28.30949196 181.59783637 31.96557617 185.53149414 C34.46999276 188.5493702 35.42442485 190.77252372 35.8671875 194.68359375 C35.26590484 200.59620652 33.17699997 203.97929214 28.6171875 207.74609375 C25.31479539 209.46333765 23.21168987 210.29518554 19.4921875 210.37109375 C5.73827077 205.54683956 -1.34882246 191.39129981 -8.27490234 179.44580078 C-9.91590722 176.68436326 -11.72375108 174.04173559 -13.5078125 171.37109375 C-19.27781994 162.05580339 -23.09463359 151.6728868 -27.203125 141.54882812 C-28.06789264 139.44257521 -28.95315696 137.34461338 -29.859375 135.25585938 C-32.60226706 128.91139539 -34.68936341 122.75403132 -36.1328125 115.99609375 C-36.33737061 115.05330566 -36.54192871 114.11051758 -36.75268555 113.13916016 C-43.90816503 79.12167733 -44.38336435 42.81432127 -34.08374023 9.34985352 C-33.47559869 7.26041426 -32.9903043 5.16072435 -32.5078125 3.0390625 C-31.34873433 -1.21240002 -29.90702414 -2.89295542 -26.5078125 -5.62890625 C-17.0978498 -8.76556048 -8.42024493 -4.16574997 0 0 Z " fill="#010101" transform="translate(280.5078125,120.62890625)"/>
<path d="M0 0 C4.73643811 3.71234338 6.75130231 7.17006021 7.8125 13.0625 C8.16634766 14.92455078 8.16634766 14.92455078 8.52734375 16.82421875 C8.71272705 17.80527588 8.71272705 17.80527588 8.90185547 18.80615234 C9.31283498 20.81413668 9.79815033 22.78670264 10.31640625 24.76953125 C17.52525709 52.43233039 17.56472736 82.81037421 12.3125 110.8125 C12.13509277 111.75834961 11.95768555 112.70419922 11.77490234 113.67871094 C5.4094542 145.824494 -12.58707453 193.56163261 -39.6875 213.8125 C-43.87161311 215.45854867 -46.95744512 216.02285479 -51.375 214.75 C-55.88973325 212.10930697 -60.02796977 208.94195709 -61.6875 203.8125 C-62.63436706 197.77622249 -60.72362546 194.64861166 -57.32421875 189.91796875 C-56.03570289 188.26042686 -54.68474658 186.6514171 -53.3125 185.0625 C-49.09241479 180.14354717 -45.96930441 174.37839291 -42.6875 168.8125 C-42.1613208 167.92691406 -42.1613208 167.92691406 -41.62451172 167.0234375 C-35.98956258 157.4830014 -31.10107242 147.65164961 -26.4050293 137.61767578 C-25.96457275 136.67778809 -25.52411621 135.73790039 -25.0703125 134.76953125 C-24.68246582 133.93397705 -24.29461914 133.09842285 -23.89501953 132.23754883 C-22.6875 129.8125 -22.6875 129.8125 -21.13012695 127.27416992 C-19.78662825 124.98165047 -18.96365779 123.00672996 -18.22265625 120.46875 C-17.98184326 119.64600586 -17.74103027 118.82326172 -17.49291992 117.97558594 C-8.96072923 87.39092078 -5.77532496 56.2675672 -11.6875 24.8125 C-17.74844017 25.72983149 -22.44952603 28.776856 -27.6875 31.8125 C-28.3475 32.1940625 -29.0075 32.575625 -29.6875 32.96875 C-35.97478123 36.76279902 -41.86795771 41.17091245 -47.81884766 45.46435547 C-50.87520033 47.66936977 -53.93626967 49.86775045 -57 52.0625 C-57.58773193 52.48418457 -58.17546387 52.90586914 -58.78100586 53.34033203 C-61.93442001 55.5935987 -65.11963206 57.77233352 -68.375 59.875 C-76.74522409 65.39349028 -84.21232075 72.22767374 -91.83740234 78.71655273 C-95.37077721 81.71892146 -98.95123858 84.65370313 -102.5625 87.5625 C-106.27428096 90.58134356 -109.70613033 93.70535565 -113.0234375 97.1484375 C-114.77179144 98.89679144 -116.60769271 100.47175562 -118.5 102.0625 C-122.88050049 105.8038224 -126.55790368 110.08235892 -130.29296875 114.45703125 C-133.52823705 117.63952192 -136.18083628 118.62015995 -140.625 119.1875 C-145.87162056 118.54505667 -148.79751388 115.64444354 -152.5625 112.125 C-154.93658573 108.4242193 -155.24617077 106.42623663 -155.25390625 102.15625 C-153.77989867 96.05690829 -148.83711913 91.63991826 -144.5 87.375 C-143.92121094 86.80152832 -143.34242188 86.22805664 -142.74609375 85.63720703 C-139.03204244 82.00465852 -135.22133269 78.68611356 -131.03515625 75.6015625 C-128.68858147 73.81332415 -126.46846799 71.91158783 -124.24584961 69.97265625 C-118.28900102 64.79013517 -112.10266417 60.19472917 -105.54931641 55.79345703 C-101.58774701 53.13188123 -97.76463584 50.37627556 -94 47.4375 C-88.0210221 42.89701275 -81.70243196 39.00411885 -75.29321289 35.10205078 C-70.36361879 32.09812657 -65.47892552 29.04627792 -60.65234375 25.87890625 C-50.0220081 18.9103825 -39.34131738 12.31458492 -28.0625 6.4375 C-27.02577148 5.89609375 -25.98904297 5.3546875 -24.92089844 4.796875 C-8.30253974 -3.66856407 -8.30253974 -3.66856407 0 0 Z " fill="#010101" transform="translate(744.6875,115.1875)"/>
<path d="M0 0 C4.26718245 0.8983542 6.08114566 2.40109218 9.1796875 5.33984375 C12.823276 11.69039206 11.5572556 19.95585782 11.125 27 C10.65343007 36.31196511 10.38850217 45.61376868 10.3125 54.9375 C10.29131104 56.12956055 10.27012207 57.32162109 10.24829102 58.54980469 C10.22097297 65.40711345 10.92442233 71.44555238 12.82348633 78.04296875 C13.59603391 80.87283582 14.07519369 83.66171657 14.5 86.5625 C16.96761305 101.7827373 21.9054597 116.22101917 29.75 129.53125 C32.77497814 134.90319393 32.77349319 139.5886959 32.8125 145.625 C32.8434375 146.81029297 32.8434375 146.81029297 32.875 148.01953125 C32.93107499 156.44479856 29.38857464 161.37029356 24 167.5 C23.46769775 168.11125732 22.93539551 168.72251465 22.38696289 169.35229492 C11.38630904 181.86892255 -0.87315837 192.11792724 -14.4375 201.75 C-15.22511719 202.32363281 -16.01273438 202.89726563 -16.82421875 203.48828125 C-22.34193248 207.45556302 -28.06176333 210.95716844 -33.90478516 214.41381836 C-39.27502438 217.60812627 -44.36554018 221.10133433 -49.4375 224.75 C-51.57987671 226.2553086 -53.72458837 227.756284 -55.875 229.25 C-56.42164307 229.63051514 -56.96828613 230.01103027 -57.53149414 230.40307617 C-61.96318242 233.4680373 -66.49637232 236.34224555 -71.09765625 239.14453125 C-73.51830302 240.69424614 -73.51830302 240.69424614 -75.53125 242.890625 C-78.33613728 245.62653964 -80.59237934 245.68254174 -84.4375 245.75 C-89.18618683 243.89685392 -92.7468038 240.01616963 -95.4375 235.75 C-96.33049623 232.04063103 -96.11234877 230.04406484 -94.34765625 226.66015625 C-88.32445466 217.93954123 -78.81654313 212.6333561 -70.125 206.90625 C-68.6248885 205.91683569 -67.12489016 204.92724981 -65.625 203.9375 C-64.87114014 203.44193604 -64.11728027 202.94637207 -63.34057617 202.43579102 C-57.09681709 198.28987129 -51.17730984 193.79540856 -45.27246094 189.18432617 C-41.74632907 186.44954699 -38.28194809 183.9284986 -34.375 181.75 C-23.7349843 175.72734961 -13.58415153 166.82069302 -5.4375 157.75 C-4.756875 157.05777344 -4.07625 156.36554688 -3.375 155.65234375 C-0.58137356 152.55862072 1.3730725 150.22332498 1.9140625 146.015625 C1.59949892 140.59314811 0.10400297 136.71090259 -2.36547852 131.96069336 C-4.26534305 128.04284472 -5.60417666 123.93096301 -7 119.8125 C-7.29068359 118.97009766 -7.58136719 118.12769531 -7.88085938 117.25976562 C-8.74134217 114.75916796 -9.59343859 112.25619242 -10.4375 109.75 C-10.67321213 109.08863037 -10.90892426 108.42726074 -11.15177917 107.74584961 C-12.97616926 102.51553269 -14.26009027 97.40193338 -15.10546875 91.9296875 C-15.23181198 91.11523163 -15.35815521 90.30077576 -15.48832703 89.4616394 C-16.68336594 81.09781702 -16.8591092 72.80475711 -16.77368164 64.36816406 C-16.74980525 61.85449655 -16.75319404 59.34187971 -16.75976562 56.828125 C-16.7451078 48.60422667 -16.37185411 40.72195065 -14.92993164 32.60107422 C-14.46295723 29.89739194 -14.15042875 27.2321519 -13.91015625 24.5 C-13.80477539 23.31083984 -13.80477539 23.31083984 -13.69726562 22.09765625 C-13.56317406 20.50183392 -13.43581304 18.90543476 -13.31445312 17.30859375 C-12.73802963 11.00428631 -11.19155642 7.54392134 -6.6875 2.9375 C-3.4375 0.75 -3.4375 0.75 0 0 Z " fill="#000000" transform="translate(730.4375,334.25)"/>
<path d="M0 0 C4.57025451 1.0259755 7.1214787 3.09330703 10.0625 6.6875 C13.13573557 13.6304108 13.69302999 21.07758142 14.1875 28.5625 C14.3331338 30.58093342 14.48146154 32.59917473 14.6328125 34.6171875 C14.69227051 35.49616699 14.75172852 36.37514648 14.81298828 37.28076172 C14.98993506 39.62337872 14.98993506 39.62337872 15.57885742 41.578125 C16.69823762 46.46022743 16.24837971 51.68792881 16.24780273 56.68457031 C16.24997131 58.78471701 16.26809432 60.88432237 16.28710938 62.984375 C16.31828525 70.48284099 15.79688626 77.39396293 14.0625 84.6875 C13.74984973 86.85123836 13.45596843 89.01783676 13.1875 91.1875 C11.13872008 105.54448047 7.81284959 118.32144757 1.8671875 131.578125 C-0.70202301 137.36871 -2.62361216 142.22782704 -1.9375 148.6875 C-0.37960572 151.51868984 -0.37960572 151.51868984 1.9375 154 C2.75863281 154.9384375 3.57976562 155.876875 4.42578125 156.84375 C10.86890184 163.79277487 17.25766173 170.28071318 25.0625 175.6875 C25.82046875 176.22761719 26.5784375 176.76773438 27.359375 177.32421875 C31.80683759 180.47568508 36.31499506 183.51406791 40.875 186.5 C45.18473155 189.35299831 49.31233001 192.37141913 53.375 195.5625 C58.01195074 199.20186532 62.76234815 202.57394153 67.6875 205.8125 C91.45426655 221.47103311 91.45426655 221.47103311 95.0625 228.6875 C95.6530955 232.37872186 95.70462477 234.73944143 93.5703125 237.890625 C87.93958038 244.38582637 87.93958038 244.38582637 82.5625 245.25 C77.31706252 245.19339456 74.56333343 242.21492989 70.76171875 238.90234375 C68.00225585 236.63806667 65.23603779 234.93016412 62.125 233.1875 C57.15222563 230.38477857 52.62029783 227.26490387 48.04296875 223.86328125 C40.38270268 218.27118662 32.54655247 212.88014172 24.125 208.5 C19.92907318 206.29421175 16.70689234 203.79309952 13.25390625 200.5703125 C10.68658506 198.36452139 7.96053634 196.59819345 5.125 194.75 C-8.8836825 185.38112268 -27.30447896 169.9785545 -32.9375 153.6875 C-34.15906286 142.15489577 -32.66619171 133.20007438 -26.58203125 123.50390625 C-19.6314306 111.60038353 -17.13277499 98.56573619 -14.46923828 85.20898438 C-13.83573557 82.20493664 -13.01436235 79.26843304 -12.1875 76.3125 C-8.27715177 59.12931264 -9.84878866 40.81286389 -11.43823242 23.4128418 C-12.51173946 10.24290324 -12.51173946 10.24290324 -7.54296875 3.91015625 C-5.08816537 1.90168076 -3.09050516 0.72330972 0 0 Z " fill="#010101" transform="translate(268.9375,334.3125)"/>
<path d="M0 0 C1.10794922 -0.04253906 1.10794922 -0.04253906 2.23828125 -0.0859375 C10.46214608 1.4617755 16.16297788 9.85268481 20.6875 16.375 C28.2455743 28.72111955 32.59721465 41.51506552 33.25 55.875 C33.2917334 56.76920654 33.3334668 57.66341309 33.37646484 58.5847168 C33.68287389 65.52144233 33.87137016 72.43171254 33.6875 79.375 C33.66236328 81.01662109 33.66236328 81.01662109 33.63671875 82.69140625 C32.97557014 99.90015999 28.81856372 116.66603464 21.63330078 132.27734375 C20.63126003 134.49973252 19.70040406 136.74373463 18.77734375 139 C14.78410482 148.62034815 10.27108447 156.25564266 3.6875 164.375 C2.46237277 166.07133001 1.25314489 167.77929172 0.0625 169.5 C-0.494375 170.30050781 -1.05125 171.10101562 -1.625 171.92578125 C-2.79748654 173.62751519 -3.96371215 175.33357306 -5.125 177.04296875 C-15.5326721 192.22830068 -15.5326721 192.22830068 -23.26171875 193.76171875 C-28.36152646 194.04342241 -31.38247641 192.76911128 -35.3125 189.375 C-38.53520894 185.64344228 -40.10659568 182.53858402 -39.8203125 177.5 C-38.78079972 173.15003885 -35.97834542 169.8781943 -33.3125 166.375 C-32.06224731 164.62518052 -30.8122597 162.87517162 -29.5625 161.125 C-27.35788188 158.106823 -25.12407528 155.1178184 -22.82421875 152.171875 C-22.39657227 151.62305664 -21.96892578 151.07423828 -21.52832031 150.50878906 C-20.32478788 148.97058451 -19.11380667 147.43821642 -17.90234375 145.90625 C-11.74131509 137.72549356 -6.85456638 128.99587939 -2.625 119.6875 C-2.14877197 118.64021729 -1.67254395 117.59293457 -1.18188477 116.51391602 C2.46189178 108.292207 5.28539979 100.27615445 6.6875 91.375 C6.94152588 89.76250366 6.94152588 89.76250366 7.20068359 88.11743164 C9.93111807 69.38205561 13.42169706 44.00920223 1.47460938 27.72143555 C-0.6613668 25.05748781 -2.57034868 23.20481987 -5.4375 21.3125 C-8.56228234 19.20666842 -9.83679103 17.81832092 -11.3125 14.375 C-11.91116575 10.35538714 -11.49721519 8.70621345 -9.5 5.125 C-6.59986611 1.47911739 -4.58968547 0.07926918 0 0 Z " fill="#010101" transform="translate(774.3125,518.625)"/>
<path d="M0 0 C12.92148683 7.44412989 20.16566634 24.75267088 26.33203125 37.6640625 C28.16148394 41.32296787 30.13805836 44.87924004 32.13012695 48.45141602 C38.65096549 60.16929847 44.35732829 72.13518091 49.82177734 84.37646484 C51.38339136 87.85369324 52.99996934 91.30194645 54.625 94.75 C56.55377353 98.84864376 58.43067225 102.96094143 60.25 107.109375 C60.64364746 108.00172852 61.03729492 108.89408203 61.44287109 109.81347656 C62.20786481 111.55201247 62.96644238 113.29339181 63.71728516 115.03808594 C65.99466402 120.20291144 68.64534424 124.46606253 72 129 C74.16735524 135.50206573 72.88701181 141.01696196 70 147 C69.04175747 148.36365283 68.05278825 149.70794169 67 151 C66.67 151.99 66.34 152.98 66 154 C73.35073565 152.88044908 80.2778944 151.1080344 87.34765625 148.8046875 C90 148 90 148 92 148 C91.7834375 146.2675 91.7834375 146.2675 91.5625 144.5 C91.54493705 139.57359301 93.79465738 137.11313742 96.98046875 133.56640625 C99.36237833 131.71892899 101.01536659 131.26562271 104 131 C109.41298189 133.22071052 113.74347573 138.11738549 116.0625 143.4375 C115.84472518 152.36626767 110.06535963 158.07569525 104 164 C94.36453299 172.55616956 78.59379744 176.71359036 65.84765625 176.26953125 C57.27018637 175.45767196 52.74797064 172.40807404 46.75 166.25390625 C43.73986542 162.37701416 43.60093721 158.30133139 43.6484375 153.51171875 C44.43602763 147.88482479 47.26788933 142.68529687 51.3125 138.75 C53.27854574 137.06915636 53.27854574 137.06915636 53.296875 134.234375 C52.95349005 130.49328631 51.9502442 128.6496129 49.9375 125.5 C47.31245851 121.22118238 44.90106569 116.94368731 42.6875 112.4375 C31.35511505 89.47187032 19.15452975 66.90934834 4.99609375 45.55859375 C2.14095659 41.24707135 -0.5880887 36.87057896 -3.25 32.4375 C-3.6210083 31.82374512 -3.9920166 31.20999023 -4.37426758 30.57763672 C-5.87091144 28.06465554 -7.07123111 25.78630666 -8 23 C-8.721875 22.7525 -9.44375 22.505 -10.1875 22.25 C-14.24733115 20.4456306 -16.63064579 17.7221538 -19 14 C-19.75 11 -19.75 11 -19 8 C-14.17073921 0.63228161 -8.74123415 -2.8632704 0 0 Z " fill="#010101" transform="translate(378,780)"/>
<path d="M0 0 C4.31060864 2.67070318 6.50783923 5.76959808 8.375 10.4375 C7.82638532 15.64933947 4.99853077 18.72774927 1 22 C0.30261719 22.15726563 -0.39476562 22.31453125 -1.11328125 22.4765625 C-1.73589844 22.64929688 -2.35851562 22.82203125 -3 23 C-3.71323818 24.30901242 -4.37239701 25.64783998 -5 27 C-6.74488993 30.0485046 -8.56548592 33.05198606 -10.375 36.0625 C-10.90883301 36.95372559 -11.44266602 37.84495117 -11.99267578 38.76318359 C-15.05627067 43.85358884 -18.19267717 48.88444659 -21.42041016 53.87207031 C-28.70791924 65.15926968 -35.00545311 76.90857293 -41.28613281 88.77832031 C-43.94177454 93.77032149 -46.65715996 98.72916689 -49.375 103.6875 C-52.08873353 108.63945148 -54.79803919 113.59137306 -57.41796875 118.59375 C-57.78422363 119.29153564 -58.15047852 119.98932129 -58.52783203 120.70825195 C-59.48326553 122.53592996 -60.43141845 124.36740901 -61.37890625 126.19921875 C-63 129 -63 129 -64.77734375 130.58203125 C-66.27718559 131.99513141 -66.27718559 131.99513141 -65.90234375 134.4296875 C-64.88412113 137.33007919 -63.663375 138.89746102 -61.5625 141.125 C-56.69948809 146.34334681 -55.1382492 149.91472853 -55 157 C-55.39905588 163.01909281 -57.71975443 166.50798173 -62.1328125 170.52734375 C-68.68510985 175.69515986 -75.84693769 176.78610794 -84 176 C-98.75296078 173.37795344 -113.55510149 168.5564843 -122.5234375 155.83984375 C-125.00801876 151.8384325 -127.05997076 147.86704678 -126.75 143.0625 C-125.04169745 138.36466798 -121.09628284 134.70580151 -117 132 C-113.42793891 131.44761942 -111.73577037 131.53737515 -108.6640625 133.46875 C-103.24985088 138.86221751 -103.24985088 138.86221751 -102.4921875 142.3125 C-102.5 144.5 -102.5 144.5 -103 148 C-102.20335937 148.19335938 -101.40671875 148.38671875 -100.5859375 148.5859375 C-91.5447263 150.80774366 -91.5447263 150.80774366 -87.8125 152.125 C-83.92883611 153.33325099 -80.04083467 153.65877396 -76 154 C-76.33773437 153.48050781 -76.67546875 152.96101562 -77.0234375 152.42578125 C-77.46945312 151.72839844 -77.91546875 151.03101563 -78.375 150.3125 C-78.81585937 149.62800781 -79.25671875 148.94351563 -79.7109375 148.23828125 C-83.14522012 142.27511779 -84.18698066 136.80715425 -83 130 C-81.56140862 127.1672681 -79.93427423 124.72353912 -78.01953125 122.19140625 C-75.62103813 118.40113763 -74.04945682 114.51622852 -72.37231445 110.36499023 C-69.95257926 104.43166696 -67.3107989 98.59549918 -64.6875 92.75 C-64.4010965 92.11149109 -64.11469299 91.47298218 -63.8196106 90.81512451 C-59.44756206 81.08321712 -54.92801215 71.46354726 -50 62 C-49.08966768 60.23446577 -48.17952609 58.46883319 -47.26953125 56.703125 C-44.2104082 50.78577354 -41.1127686 44.88928134 -38 39 C-37.47792969 38.00967773 -36.95585938 37.01935547 -36.41796875 35.99902344 C-15.20511447 -4.09748215 -15.20511447 -4.09748215 0 0 Z " fill="#010101" transform="translate(635,780)"/>
<path d="M0 0 C2.0826461 -0.00218638 4.16476195 -0.02036316 6.24731445 -0.03930664 C8.22634766 -0.04220703 8.22634766 -0.04220703 10.24536133 -0.04516602 C11.4505542 -0.0492749 12.65574707 -0.05338379 13.89746094 -0.05761719 C17.87196636 0.23872098 20.74488203 1.16380803 23.96801758 3.49780273 C25.15551758 5.18530273 25.15551758 5.18530273 25.65551758 7.68530273 C25.15551758 10.18530273 25.15551758 10.18530273 22.65551758 11.99780273 C21.83051758 12.38967773 21.00551758 12.78155273 20.15551758 13.18530273 C21.91255405 19.48492129 24.22172384 23.975684 28.15551758 29.18530273 C28.15551758 29.84530273 28.15551758 30.50530273 28.15551758 31.18530273 C32.03815009 27.94977565 33.12294735 25.09001133 34.15551758 20.18530273 C34.43395508 18.88592773 34.43395508 18.88592773 34.71801758 17.56030273 C33.88834167 14.05722668 31.62043603 12.99502197 28.68676758 11.10327148 C28.18145508 10.8003418 27.67614258 10.49741211 27.15551758 10.18530273 C27.75816658 4.76146167 27.75816658 4.76146167 29.40551758 2.37280273 C33.6759751 -0.52500773 39.17770903 0.00239481 44.15551758 -0.00219727 C44.85418945 -0.01444336 45.55286133 -0.02668945 46.27270508 -0.03930664 C51.36821674 -0.0537279 55.23486217 0.39269102 59.03051758 3.93530273 C60.15551758 6.18530273 60.15551758 6.18530273 60.15551758 9.24780273 C58.88637902 12.97589725 57.59038644 13.42792797 54.15551758 15.18530273 C50.80014904 18.10083979 49.04446154 20.99856837 47.17504883 25.00952148 C46.38904297 26.6753125 46.38904297 26.6753125 45.5871582 28.37475586 C45.0528418 29.52911133 44.51852539 30.6834668 43.96801758 31.87280273 C42.89283677 34.16914522 41.81610005 36.46476009 40.73754883 38.75952148 C40.26551025 39.77618896 39.79347168 40.79285645 39.30712891 41.84033203 C38.15551758 44.18530273 38.15551758 44.18530273 37.15551758 45.18530273 C36.8404188 49.67113007 36.7986947 54.16258868 36.75048828 58.65795898 C36.72893993 60.1692596 36.69487327 61.68043645 36.64794922 63.19116211 C36.5808114 65.37206621 36.55347023 67.5503849 36.53442383 69.73217773 C36.4968396 71.69429199 36.4968396 71.69429199 36.45849609 73.69604492 C37.4171279 78.49491208 39.27741412 79.35260108 43.15551758 82.18530273 C43.84301758 84.74780273 43.84301758 84.74780273 43.15551758 87.18530273 C37.23075251 93.1100678 30.99468726 92.34250056 23.07739258 92.37084961 C22.01875 92.37072876 22.01875 92.37072876 20.9387207 92.37060547 C18.79463746 92.37278836 16.65107217 92.39095398 14.50708008 92.40991211 C13.13208182 92.41284727 11.75708114 92.41483125 10.38208008 92.41577148 C8.5193042 92.42193481 8.5193042 92.42193481 6.61889648 92.42822266 C1.54019729 92.07200486 -1.76059172 91.38328719 -5.21948242 87.56030273 C-6.02385742 86.38467773 -6.02385742 86.38467773 -6.84448242 85.18530273 C-4.26818613 80.41915459 -4.26818613 80.41915459 -1.81323242 79.06420898 C1.92188346 75.49954482 1.3536001 70.49541713 1.47583008 65.64526367 C0.89194738 50.27455176 -7.16516143 35.57518854 -13.40533447 21.79589844 C-15.84448242 16.38525186 -15.84448242 16.38525186 -15.84448242 14.18530273 C-16.74166992 14.03061523 -16.74166992 14.03061523 -17.65698242 13.87280273 C-20.23205352 13.06349468 -21.32600155 12.42306401 -22.84448242 10.18530273 C-22.84448242 7.74780273 -22.84448242 7.74780273 -21.84448242 5.18530273 C-15.4247298 -1.06094306 -8.50794956 -0.001002 0 0 Z " fill="#020202" transform="translate(459.844482421875,585.814697265625)"/>
<path d="M0 0 C32.43864621 -0.63887043 61.0172212 2.72852052 87.11962891 23.50390625 C89.05712891 26.06640625 89.05712891 26.06640625 89.86962891 29.44140625 C88.82654474 34.09516638 86.96711424 35.92741063 83.25244141 38.80078125 C80.72024791 40.26062234 78.96322091 40.60674041 76.10400391 39.84765625 C74.58417655 39.26756947 73.07522376 38.65882298 71.57275391 38.03515625 C64.25373614 35.01460924 57.11577857 33.00528492 49.36962891 31.37890625 C48.42740479 31.1768457 47.48518066 30.97478516 46.5144043 30.76660156 C31.15673663 27.66539761 15.81823864 26.68363604 0.18212891 26.75390625 C-0.64471405 26.75539673 -1.47155701 26.75688721 -2.32345581 26.75842285 C-21.78374175 26.82134869 -40.76437915 28.10624072 -58.31787109 37.31640625 C-66.08181073 41.30550007 -66.08181073 41.30550007 -70.94287109 40.06640625 C-73.85198806 38.10016514 -75.99907444 35.99353533 -77.94287109 33.06640625 C-78.74518441 28.9089645 -78.31978476 26.88876335 -76.56787109 23.06640625 C-70.49049962 16.12083885 -62.27297172 11.8053293 -53.94287109 8.06640625 C-53.26482422 7.75703125 -52.58677734 7.44765625 -51.88818359 7.12890625 C-47.44944944 5.27497713 -43.38111187 4.72483092 -38.60302734 4.37890625 C-35.806691 4.05040859 -33.32828264 3.36465035 -30.63037109 2.56640625 C-20.63721446 -0.0432716 -10.2616149 0.23155461 0 0 Z " fill="#020202" transform="translate(493.94287109375,175.93359375)"/>
<path d="M0 0 C9.68403674 8.24479561 10.35740455 19.16642102 11.5703125 31.046875 C11.8142645 33.29123339 12.09605392 35.53416389 12.49560547 37.75610352 C13.07024485 41.45176344 13.31112596 45.12528686 13.5 48.85546875 C13.54060547 49.59775223 13.58121094 50.34003571 13.62304688 51.10481262 C13.75185017 53.46555101 13.87628317 55.82649002 14 58.1875 C14.12417772 60.53062682 14.24939666 62.87368361 14.37695312 65.21662903 C14.45584446 66.66808668 14.53283902 68.11964942 14.60742188 69.57133484 C14.81962494 73.50212322 15.12463353 77.41151821 15.50219727 81.33007812 C16.02804701 86.96341312 16.27611157 92.58487457 16.46484375 98.23828125 C16.54345635 100.38086538 16.622238 102.52344331 16.70117188 104.66601562 C16.81962823 107.97136142 16.93627473 111.27674821 17.04956055 114.58227539 C17.44191015 125.90424223 17.92635785 137.1721735 19.03515625 148.44921875 C19.91283186 157.40050666 20.43259094 166.28864717 20.48046875 175.28369141 C20.4937437 176.79006599 20.52161932 178.29636781 20.5625 179.80224609 C20.90261853 192.33614532 20.90261853 192.33614532 18.734375 196.33300781 C16.37967315 198.79699347 14.2934187 199.92664532 11 200.75 C6.84570707 199.71142677 4.38468707 197.45380295 2 194 C1.11258294 190.94528206 1.04846624 188.00020214 1.01171875 184.83203125 C0.97818802 183.9565715 0.94465729 183.08111176 0.91011047 182.17912292 C0.80890732 179.39036736 0.74711686 176.6024243 0.6875 173.8125 C0.62966082 171.95759588 0.56913886 170.10277337 0.50585938 168.24804688 C0.4144841 165.55642598 0.32516767 162.8649534 0.24757385 160.17289734 C0.09131251 154.87363137 -0.23351664 149.63235276 -0.78344727 144.35766602 C-1.09029271 141.01695972 -1.15764719 137.68192668 -1.23974609 134.3293457 C-1.81791276 112.34155093 -4.64766252 90.35547393 -7.92089844 68.62011719 C-9.00753599 61.28754653 -9.83282743 53.93217889 -10.625 46.5625 C-10.80977905 44.85610352 -10.80977905 44.85610352 -10.99829102 43.11523438 C-11.73657363 36.0905799 -12.28492036 29.07834006 -12.67089844 22.02514648 C-12.97754036 19.20645203 -13.53616799 17.09779115 -14.625 14.5 C-16.17138812 10.56373934 -16.45983825 8.95015055 -15 5 C-10.60573044 -0.60105404 -6.97372875 -3.35275421 0 0 Z " fill="#010101" transform="translate(457,707)"/>
<path d="M0 0 C4.82443695 1.16720249 7.07768895 2.90551373 9.875 6.9375 C11.10349594 9.61128528 11.16179848 11.06060803 10.25 13.84844971 C9.981875 14.57038513 9.71375 15.29232056 9.4375 16.03613281 C7.83883925 20.71476706 7.20399043 25.13639615 6.8125 30.046875 C6.697995 31.30710983 6.697995 31.30710983 6.58117676 32.59280396 C6.4200361 34.37330139 6.26342247 36.1542137 6.11108398 37.93548584 C5.7125143 42.58158419 5.27766394 47.22427752 4.84375 51.8671875 C4.76024292 52.76724518 4.67673584 53.66730286 4.59069824 54.59463501 C3.94868079 61.41428529 3.09112814 68.17341859 2.0461731 74.94264221 C-1.1448491 95.94724378 -3.29834064 116.98178322 -4.1796875 138.20703125 C-4.21552696 139.05058167 -4.25136642 139.89413208 -4.28829193 140.76324463 C-4.61611036 148.53519115 -4.9180408 156.30793207 -5.18310547 164.08227539 C-5.33202901 168.40970029 -5.50866963 172.73526519 -5.7027626 177.06088829 C-5.76999692 178.68272146 -5.82667595 180.30503125 -5.87209702 181.92762184 C-6.26819112 195.9736832 -6.26819112 195.9736832 -10.02001953 199.91674805 C-13.125 201.9375 -13.125 201.9375 -16.125 202.6875 C-20.30548412 201.64237897 -22.82408491 199.49443146 -25.125 195.9375 C-25.90507071 192.43518839 -25.73304374 189.06932111 -25.5625 185.5 C-25.53655762 184.46157959 -25.51061523 183.42315918 -25.48388672 182.35327148 C-25.42291988 180.08667092 -25.34776458 177.8204185 -25.26025391 175.5546875 C-25.12052712 171.81787865 -25.03042882 168.08226277 -24.94921875 164.34375 C-24.8846979 161.72911946 -24.81831636 159.11453412 -24.75 156.5 C-24.71962646 155.32574463 -24.68925293 154.15148926 -24.65795898 152.94165039 C-24.40152671 145.12283554 -23.85791387 137.36041008 -23.203125 129.56640625 C-22.36994202 119.62168928 -21.73355598 109.67498374 -21.1953125 99.7109375 C-21.11697822 98.28154427 -21.03853714 96.85215689 -20.95999146 95.42277527 C-20.6412335 89.60074988 -20.32419014 83.77868011 -20.02587891 77.95556641 C-19.21171395 62.14391821 -18.14784544 46.43429982 -16.1171875 30.7265625 C-15.95155304 29.43938324 -15.78591858 28.15220398 -15.61526489 26.82601929 C-12.08851345 0.92988565 -12.08851345 0.92988565 0 0 Z " fill="#010101" transform="translate(550.125,705.0625)"/>
<path d="M0 0 C1.093125 0.350625 2.18625 0.70125 3.3125 1.0625 C5.96184822 1.77683121 5.96184822 1.77683121 8.3125 2.0625 C9.3025 1.4025 10.2925 0.7425 11.3125 0.0625 C14.42524311 -0.18163671 15.58350737 -0.25364802 18.3125 1.0625 C21.32101572 4.16042965 23.84181971 7.52653938 26.3125 11.0625 C24.85685353 14.95905583 24.00309324 16.96783897 20.3125 19.0625 C19.11625 19.371875 17.92 19.68125 16.6875 20 C13.33412144 20.74987995 13.33412144 20.74987995 11.6875 22.8125 C11.13538268 25.19255785 11.13538268 25.19255785 12.0625 28 C18.18722125 36.33642615 30.61513299 38.34026328 40.3125 40.0625 C53.48680349 41.80216043 68.2310256 30.66861239 78.3125 23.0625 C79.40140997 22.08953878 80.4851645 21.11076198 81.5625 20.125 C84.3125 18.0625 84.3125 18.0625 87 18.0625 C89.46044852 19.12647774 90.82133288 19.82574932 92.3125 22.0625 C91.98057069 26.85472937 88.30859723 29.21021105 84.93847656 32.20874023 C80.06534056 36.44299173 74.85443606 39.78707369 69.3125 43.0625 C68.00424955 43.85910461 66.69701847 44.65738491 65.390625 45.45703125 C64.03167997 46.28456066 62.67230777 47.11138901 61.3125 47.9375 C60.34135254 48.52833374 60.34135254 48.52833374 59.35058594 49.13110352 C51.81922875 53.65289858 44.03818358 54.48037399 35.35302734 52.64941406 C32.28408046 51.83009895 29.28034428 50.86164159 26.2734375 49.83984375 C22.54913145 48.86209058 20.85416536 49.25109718 17.53125 51 C16.68046875 51.5259375 16.68046875 51.5259375 15.8125 52.0625 C10.8985582 54.93590664 7.0736184 55.4530843 1.3125 55.0625 C-2.39128769 53.70444451 -5.40798483 52.24884345 -8.6875 50.0625 C-12.8296385 50.34332295 -16.3266796 50.9567423 -20.3125 52.125 C-29.24489685 54.41084959 -38.22671978 54.28560091 -46.265625 49.609375 C-47.46445312 48.84367188 -47.46445312 48.84367188 -48.6875 48.0625 C-49.56921875 47.53140625 -50.4509375 47.0003125 -51.359375 46.453125 C-76.83048866 30.76752394 -76.83048866 30.76752394 -79.5 24.00390625 C-79.6875 22.0625 -79.6875 22.0625 -78.0625 19.75 C-75.6875 18.0625 -75.6875 18.0625 -73.27734375 18.26953125 C-70.45416907 19.1339422 -69.07749224 20.12466569 -66.875 22.0625 C-62.69316329 25.4655047 -58.32045209 28.13616028 -53.625 30.75 C-52.96459717 31.11802734 -52.30419434 31.48605469 -51.6237793 31.86523438 C-48.26171688 33.71384826 -44.8721854 35.50946845 -41.4609375 37.265625 C-40.84009277 37.58563477 -40.21924805 37.90564453 -39.57958984 38.23535156 C-32.28646672 41.42362268 -25.47840349 39.8170147 -18.0625 37.9375 C-17.26287842 37.73777588 -16.46325684 37.53805176 -15.6394043 37.33227539 C-10.19528599 35.83066274 -4.99711837 33.81679671 -0.6875 30.0625 C0.52599996 27.64718656 0.8874161 25.77240988 1.3125 23.0625 C-0.66954939 20.33718209 -2.45285568 19.80184452 -5.625 19.1875 C-9.02660564 18.46082182 -9.63120815 18.12160644 -12.1875 15.4375 C-12.6825 14.65375 -13.1775 13.87 -13.6875 13.0625 C-11.48169416 6.68021916 -7.20103386 0.12205142 0 0 Z " fill="#020202" transform="translate(501.6875,505.9375)"/>
<path d="M0 0 C1.1240625 -0.0103125 2.248125 -0.020625 3.40625 -0.03125 C7.04493251 0.59357427 8.21463922 1.67690727 10.5 4.5 C8.3028847 12.08767361 5.8165752 19.55396213 3.2265625 27.015625 C2.82094086 28.18905457 2.41531921 29.36248413 1.99740601 30.57147217 C1.14278025 33.04260747 0.28718309 35.51340701 -0.56933594 37.98388672 C-1.86605661 41.72420331 -3.15985982 45.46551864 -4.453125 49.20703125 C-6.08567083 53.92870336 -7.7250936 58.64789607 -9.37011719 63.36523438 C-10.62796309 66.97396416 -11.869631 70.58637679 -13.07519531 74.21289062 C-13.49639648 75.45748047 -13.91759766 76.70207031 -14.3515625 77.984375 C-14.68236816 78.98694336 -15.01317383 79.98951172 -15.35400391 81.02246094 C-16.67091868 83.8695106 -18.08031426 85.51582326 -20.5 87.5 C-23.59375 88.03125 -23.59375 88.03125 -27 88 C-28.1240625 88.0103125 -29.248125 88.020625 -30.40625 88.03125 C-33.5 87.5 -33.5 87.5 -36.03125 86.03125 C-37.95737884 82.71175136 -37.15233847 80.82660435 -36.26760864 77.22659302 C-34.75819119 71.86504957 -32.93257447 66.61556111 -31.10546875 61.35546875 C-30.67623611 60.10929276 -30.24700348 58.86311676 -29.80476379 57.57917786 C-28.89926242 54.95167356 -27.99035428 52.32538143 -27.07885742 49.69995117 C-25.92323456 46.37070741 -24.77539463 43.03884542 -23.63006115 39.70604992 C-22.73634807 37.10789842 -21.83880816 34.51108113 -20.94014931 31.91463661 C-20.31303095 30.1009893 -19.68871828 28.28637259 -19.0644989 26.47172546 C-17.12895437 20.90851141 -15.12195249 15.37939399 -12.95043945 9.90356445 C-12.57603226 8.95842484 -12.20162506 8.01328522 -11.81587219 7.039505 C-8.90911537 1.4297478 -6.25267701 -0.05736401 0 0 Z " fill="#010101" transform="translate(559.5,590.5)"/>
<path d="M0 0 C5.890625 4.578125 5.890625 4.578125 6.875 8.375 C4.90753532 16.5259251 -4.16355228 20.565783 -10.875 24.71484375 C-11.57625 25.13894531 -12.2775 25.56304688 -13 26 C-9.51948524 29.67343013 -5.7294328 32.32707027 -1.53515625 35.12109375 C5.62754957 40.42966309 5.62754957 40.42966309 6.45727539 43.92797852 C6.63652461 46.16132692 6.63360984 48.32350088 6.5625 50.5625 C6.57345703 51.31724609 6.58441406 52.07199219 6.59570312 52.84960938 C6.5486177 56.4124065 6.25439239 58.63093621 4.21484375 61.58984375 C2 63 2 63 0.10974121 62.74043274 C-2.18862843 61.93379915 -3.94403938 60.91337457 -5.97070312 59.56323242 C-6.73829956 59.05567917 -7.505896 58.54812592 -8.29675293 58.02519226 C-9.11663696 57.4741835 -9.936521 56.92317474 -10.78125 56.35546875 C-11.63174927 55.78927322 -12.48224854 55.2230777 -13.35852051 54.63972473 C-15.15575682 53.44124084 -16.95108282 52.23988803 -18.74462891 51.03588867 C-21.4847606 49.19772307 -24.23207316 47.3707016 -26.98046875 45.54492188 C-28.72700404 44.3782649 -30.47311217 43.21096814 -32.21875 42.04296875 C-33.03863403 41.49803268 -33.85851807 40.95309662 -34.70324707 40.39164734 C-38.4775037 37.8495206 -41.94394418 35.41646886 -45 32 C-42.80084194 26.40214313 -37.68177989 23.69027739 -32.75390625 20.64453125 C-31.75746094 20.02586182 -30.76101563 19.40719238 -29.734375 18.76977539 C-28.68765625 18.12387451 -27.6409375 17.47797363 -26.5625 16.8125 C-24.40712192 15.47465111 -22.25217239 14.13611154 -20.09765625 12.796875 C-18.53362061 11.82524414 -18.53362061 11.82524414 -16.93798828 10.83398438 C-11.2520272 7.28462924 -5.62077317 3.65152341 0 0 Z " fill="#010101" transform="translate(416,608)"/>
<path d="M0 0 C6.09223792 3.06223599 11.62145546 6.76312801 17.11914062 10.77172852 C20.69636061 13.37321318 24.30998137 15.90037247 27.984375 18.36328125 C28.83596191 18.935625 29.68754883 19.50796875 30.56494141 20.09765625 C32.24014077 21.21978102 33.91936783 22.33592188 35.60302734 23.4453125 C39.77887651 26.25184527 43.11345473 28.77940273 46 33 C39.34970123 39.57319764 31.6092357 44.02339022 23.5625 48.625 C22.27753754 49.36900251 20.99302927 50.11379002 19.70898438 50.859375 C13.1785154 54.64297313 6.61694438 58.36938564 0 62 C-2.63856867 59.85616296 -3.8649297 58.50651363 -4.75 55.1875 C-3.11200946 48.22604019 4.28029537 44.75399112 10 41.1875 C10.94875 40.62417969 11.8975 40.06085937 12.875 39.48046875 C13.57625 38.99191406 14.2775 38.50335937 15 38 C15 37.34 15 36.68 15 36 C12.61232811 34.29536858 10.22459794 32.69392254 7.75 31.125 C-1.98182956 24.92532786 -1.98182956 24.92532786 -4 22 C-4.56830271 18.98403427 -4.55867268 16.06075788 -4.5 13 C-4.51546875 12.19304688 -4.5309375 11.38609375 -4.546875 10.5546875 C-4.5078385 4.6406578 -4.5078385 4.6406578 -1.96875 1.4375 C-1.3190625 0.963125 -0.669375 0.48875 0 0 Z " fill="#010101" transform="translate(584,609)"/>
<path d="M0 0 C2.53618374 1.39081044 4.16671141 2.7670333 5.9375 5.0625 C5.6232769 8.97755 3.30393211 11.43837598 0.9375 14.4375 C-4.15367363 21.05289859 -8.65261865 27.98084332 -13.0625 35.0625 C-13.69236816 36.06877441 -14.32223633 37.07504883 -14.97119141 38.11181641 C-16.76811268 40.98614224 -18.56018787 43.86330956 -20.34713745 46.74383545 C-21.06751422 47.90409187 -21.78927102 49.06349274 -22.51248169 50.22198486 C-27.12766348 57.47885961 -27.12766348 57.47885961 -30.88671875 65.19140625 C-32.32116033 68.69411243 -33.81083583 70.15908683 -37.0625 72.0625 C-40.17290788 72.15970025 -41.37097715 70.82942837 -43.875 68.9375 C-46.0625 66.0625 -46.0625 66.0625 -45.9296875 62.76953125 C-44.9890127 58.74835836 -43.67227491 56.29331109 -41.375 52.875 C-40.98199707 52.28605957 -40.58899414 51.69711914 -40.18408203 51.09033203 C-38.82592548 49.06991247 -37.44582592 47.06576258 -36.0625 45.0625 C-35.54961426 44.31242676 -35.03672852 43.56235352 -34.50830078 42.78955078 C-27.86730234 33.09174275 -21.02356529 23.54930977 -14 14.125 C-13.38108887 13.29081543 -12.76217773 12.45663086 -12.12451172 11.59716797 C-3.48758546 0.10568441 -3.48758546 0.10568441 0 0 Z " fill="#020202" transform="translate(569.0625,285.9375)"/>
<path d="M0 0 C3.80363705 1.24831847 6.21636126 3.62474836 9.03515625 6.3515625 C9.6079834 6.89506348 10.18081055 7.43856445 10.77099609 7.99853516 C41.91051092 37.86277112 41.91051092 37.86277112 44.22265625 52.7265625 C43.73679925 56.26637779 43.39746804 56.6316003 40.78515625 58.7890625 C39.30015625 59.8409375 39.30015625 59.8409375 37.78515625 60.9140625 C29.95553223 58.84151497 25.91758882 50.83154596 22.03515625 44.2890625 C15.5701758 33.69658264 8.17841299 24.22147186 -0.23046875 15.08203125 C-2.65584931 12.43225525 -4.94458904 9.69695537 -7.21484375 6.9140625 C-4.04507867 -0.15695191 -4.04507867 -0.15695191 0 0 Z " fill="#030303" transform="translate(446.21484375,294.0859375)"/>
<path d="M0 0 C0.98484375 -0.03738281 1.9696875 -0.07476562 2.984375 -0.11328125 C10.20829773 -0.20113977 10.20829773 -0.20113977 14.15625 2.671875 C16.5459069 6.17535503 16.61606344 8.21657178 16 12.375 C14.21884 14.97775141 12.98456544 15.37901376 9.890625 16.18359375 C8.08851563 16.49490234 8.08851563 16.49490234 6.25 16.8125 C-0.4811662 18.15182948 -4.62423078 19.8164561 -10.09765625 23.96484375 C-14.79211221 27.38704578 -18.18964055 29.29585783 -24.11328125 28.8203125 C-26 28.375 -26 28.375 -28.0625 26.875 C-30.22587935 21.10598841 -29.41858563 16.67017216 -27 11.1875 C-24.34331479 6.28168923 -21.16064701 3.47639983 -16 1.375 C-10.66869648 0.13858411 -5.45052406 0.07847613 0 0 Z " fill="#FAFAFA" transform="translate(375,366.625)"/>
<path d="M0 0 C1.093125 0.350625 2.18625 0.70125 3.3125 1.0625 C5.96184822 1.77683121 5.96184822 1.77683121 8.3125 2.0625 C9.3025 1.4025 10.2925 0.7425 11.3125 0.0625 C14.42524311 -0.18163671 15.58350737 -0.25364802 18.3125 1.0625 C21.32101572 4.16042965 23.84181971 7.52653938 26.3125 11.0625 C24.85685353 14.95905583 24.00309324 16.96783897 20.3125 19.0625 C17.98239091 19.74034992 15.64890176 20.40666793 13.3125 21.0625 C12.4875 21.619375 11.6625 22.17625 10.8125 22.75 C7.2887669 24.59995988 5.09712583 24.04369929 1.3125 23.0625 C0.3125 22.0625 -0.6875 21.0625 -1.6875 20.0625 C-2.98986762 19.72848761 -4.30484913 19.44230853 -5.625 19.1875 C-9.02660564 18.46082182 -9.63120815 18.12160644 -12.1875 15.4375 C-12.6825 14.65375 -13.1775 13.87 -13.6875 13.0625 C-11.48169416 6.68021916 -7.20103386 0.12205142 0 0 Z " fill="#CA4567" transform="translate(501.6875,505.9375)"/>
<path d="M0 0 C1.125 1.875 1.125 1.875 1.1875 4.8125 C0.125 7.875 0.125 7.875 -2.6875 9.6875 C-6.54798389 12.33685169 -7.31858183 14.52435111 -9.015625 18.74609375 C-10.00680739 21.20152286 -10.91214595 23.06917427 -12.875 24.875 C-15.4375 25.25 -15.4375 25.25 -17.875 24.875 C-20.593516 22.156484 -20.23761605 20.54705652 -20.3125 16.75 C-20.21278624 11.44757391 -19.68742242 7.69059156 -16.5 3.3984375 C-12.36404797 -0.47901753 -5.17167226 -3.10300335 0 0 Z " fill="#FAFAFA" transform="translate(557.875,376.125)"/>
<path d="M0 0 C0.66 0 1.32 0 2 0 C2.33 0.99 2.66 1.98 3 3 C4.96147874 4.38938077 6.96166576 5.7260411 9 7 C9.33 7.33 9.66 7.66 10 8 C9.5169775 12.83022498 8.69678133 17.44548169 7 22 C4.92578125 23.19921875 4.92578125 23.19921875 3 24 C-1.20484217 18.24385683 -4.14086809 12.89835786 -6 6 C-5.195625 5.566875 -4.39125 5.13375 -3.5625 4.6875 C-0.72153646 3.19525998 -0.72153646 3.19525998 0 0 Z " fill="#F3F3F4" transform="translate(485,593)"/>
<path d="M0 0 C2.52557477 0.24441046 3.7852602 0.82360659 5.75 2.4375 C7 4 7 4 7 6 C3.52674819 7.1577506 0.63932552 7.06866652 -3 7 C-2.25 2.25 -2.25 2.25 0 0 Z " fill="#F7F7F7" transform="translate(506,545)"/>
</svg>
