<?xml version="1.0" encoding="utf-8"?>
<svg version="1.1" width="500" height="501" xmlns="http://www.w3.org/2000/svg">
  <defs/>
  <path d="M 0 0 C 8.041 -0.233 16.081 -0.41 24.124 -0.518 C 27.861 -0.57 31.594 -0.64 35.329 -0.754 C 38.941 -0.864 42.55 -0.923 46.164 -0.949 C 47.535 -0.967 48.905 -1.003 50.275 -1.057 C 56.369 -1.289 61.095 -1.391 66.139 2.293 C 68.615 4.756 70.933 14.428 73.071 17.187 C 77.499 11.067 75.678 3.33 77 0 C 84.276 -0.227 91.55 -0.41 98.829 -0.518 C 102.21 -0.57 105.589 -0.64 108.968 -0.754 C 112.863 -0.876 116.755 -0.933 120.652 -0.977 C 121.853 -1.028 123.053 -1.08 124.29 -1.133 C 129.386 -1.136 132.687 -0.99 136.835 2.139 C 142.886 8.522 142.886 8.522 143.184 12.377 C 142.742 14.755 141.934 16.768 141 19 C 140.307 21.165 139.619 23.332 138.938 25.5 C 137.146 30.854 137.146 30.854 136 32 C 134.347 32.048 132.692 32.037 131.039 32 C 117.612 31.422 117.612 31.422 105.875 36.813 C 104.223 38.516 102.6 40.247 101 42 C 98.737 44.039 96.397 45.982 94.063 47.938 C 92.879 48.96 91.697 49.983 90.516 51.008 C 88.231 52.972 85.915 54.879 83.547 56.742 C 83.002 57.177 82.456 57.611 81.894 58.059 C 80.413 59.233 78.92 60.392 77.426 61.551 C 74.447 64.558 73.438 67.051 72 71 C 67.38 71 62.76 71 58 71 C 80.033 70.694 80.033 70.694 85.875 76.063 C 87.805 78.285 87.805 78.285 89 80 C 87.925 85.666 86.387 90.909 84.418 96.336 C 84.185 96.979 83.953 97.623 83.713 98.286 C 83.145 99.858 82.573 101.429 82 103 C 73.272 103.209 64.546 103.369 55.816 103.466 C 51.762 103.513 47.709 103.577 43.656 103.679 C 39.74 103.777 35.825 103.831 31.907 103.854 C 30.418 103.87 28.928 103.903 27.439 103.952 C 15.856 104.316 15.856 104.316 11.288 101.077 C 7.929 97.447 6.209 94.834 5 90 C 27.44 90 49.88 90 73 90 C 71.921 88.696 71.921 88.696 69.336 88.88 C 68.148 88.882 66.96 88.884 65.736 88.886 C 65.082 88.886 64.429 88.886 63.755 88.886 C 61.586 88.887 59.416 88.895 57.246 88.902 C 55.745 88.904 54.245 88.906 52.744 88.907 C 48.787 88.91 44.83 88.92 40.873 88.931 C 36.838 88.942 32.803 88.946 28.768 88.951 C 20.845 88.962 12.923 88.979 5 89 C 5.429 87.29 5.869 85.582 6.313 83.875 C 6.556 82.924 6.8 81.972 7.051 80.992 C 8 78 8 78 11 72 C 16.61 72 22.22 72 28 72 C 28.773 69.463 28.773 69.463 29.563 66.875 C 29.853 65.924 30.143 64.972 30.441 63.992 C 31.451 58.582 29.932 54.36 27.488 49.551 C 26.977 48.537 26.466 47.523 25.939 46.479 C 25.403 45.434 24.866 44.389 24.313 43.313 C 23.795 42.287 23.277 41.262 22.744 40.205 C 19.656 34.117 17.068 27.848 13.715 21.901 C 12.94 19.839 12.734 19.895 12 18 C 6.39 18 0.78 18 -5 18 C -4.286 13.001 -3.672 9.595 -1.937 5.063 C -1.575 4.105 -1.213 3.147 -0.84 2.16 C -0.563 1.447 -0.286 0.734 0 0 Z M 60 3 C 61 5 61 5 61 5 L 60 3 Z M 59 6 C 60 8 60 8 60 8 L 59 6 Z M 58 9 C 59 11 59 11 59 11 L 58 9 Z M 129 9 C 130 11 130 11 130 11 L 129 9 Z M 57 12 C 58 14 58 14 58 14 L 57 12 Z M 128 12 C 129 14 129 14 129 14 L 128 12 Z M 71 14 C 72 16 72 16 72 16 L 71 14 Z M 56 15 C 57 17 57 17 57 17 L 56 15 Z M 127 15 C 128 17 128 17 128 17 L 127 15 Z M 70 17 C 70 17.66 70 18.32 70 19 C 72.97 19.495 68.444 20.201 71.474 20.706 C 65.364 26.39 63.791 31.131 57 36 C 54.36 30.72 51.72 25.44 49 20 C 52.465 19.505 52.465 19.505 56 19 C 56 18.67 56 18.34 56 18 C 52.04 18 48.08 18 44 18 C 45.432 21.086 46.87 24.169 48.313 27.25 C 48.717 28.123 49.121 28.995 49.537 29.895 C 49.933 30.739 50.33 31.583 50.738 32.453 C 51.1 33.228 51.461 34.003 51.833 34.802 C 53.032 37.061 54.414 38.998 56 41 C 56.666 40.383 57.333 39.765 58.02 39.129 C 63.728 33.883 69.527 28.847 75.59 24.008 C 77.84 22.133 79.929 20.071 82 18 C 78.04 17.67 74.08 17.34 70 17 Z M 110.011 18.032 C 110.011 18.362 108.82 18.569 108.82 18.909 C 107.212 21.128 121.713 20.985 127 19.59 C 127 19.26 126.818 18.158 126.818 17.818 C 121.858 17.99 115.791 17.539 110.011 18.032 Z M 61 59 C 62 62 62 62 62 62 L 61 59 Z M 60 62 C 61 65 61 65 61 65 L 60 62 Z M 59 65 C 60 68 60 68 60 68 L 59 65 Z M 77 73 C 78 75 78 75 78 75 L 77 73 Z M 76 76 C 77 78 77 78 77 78 L 76 76 Z M 75 79 C 76 81 76 81 76 81 L 75 79 Z M 74 82 C 75 84 75 84 75 84 L 74 82 Z M 73 85 C 74 87 74 87 74 87 L 73 85 Z" fill="#F6A62E" transform="translate(230,186)"/>
  <path d="M 0 0 C 0.995 -0.019 1.99 -0.038 3.015 -0.057 C 7.58 0.004 11.743 -0.047 16.296 0.99 C 17.182 1.727 14.792 6.505 14.792 7.525 C 14.712 6.419 15.286 2 16.306 0.98 C 19.818 3.254 24.296 6.487 26.676 9.547 C 23.053 15.267 19.156 20.462 14.768 25.617 C 11.28 29.747 8.019 34.017 4.801 38.359 C 0.333 44.384 -4.262 50.281 -8.969 56.119 C -12.508 60.513 -15.975 64.953 -19.404 69.434 C -24.716 76.374 -30.096 83.263 -35.466 90.159 C -37.376 92.613 -39.284 95.068 -41.191 97.523 C -41.821 98.333 -42.45 99.143 -43.099 99.978 C -44.301 101.526 -45.504 103.074 -46.706 104.622 C -47.777 106 -48.855 107.373 -49.941 108.741 C -51.475 110.688 -51.475 110.688 -53.187 113.496 C -56.436 116.614 -59.514 116.544 -63.887 116.547 C -64.686 116.551 -65.485 116.556 -66.308 116.56 C -72.361 116.273 -75.822 114.569 -79.949 110.172 C -84.324 105.087 -84.324 105.087 -84.324 102.547 C -83.341 101.53 -82.337 100.534 -81.324 99.547 C -79.947 97.773 -78.596 95.978 -77.262 94.172 C -76.458 93.089 -75.653 92.007 -74.848 90.926 C -74.432 90.368 -74.017 89.81 -73.589 89.235 C -71.546 86.508 -69.468 83.808 -67.387 81.109 C -66.971 80.57 -66.555 80.031 -66.127 79.475 C -65.281 78.379 -64.436 77.284 -63.59 76.188 C -61.499 73.477 -59.412 70.762 -57.324 68.047 C -56.491 66.964 -55.658 65.88 -54.824 64.797 C -54.412 64.261 -53.999 63.724 -53.574 63.172 C -41.699 47.734 -41.699 47.734 -29.824 32.297 C -29.411 31.76 -28.999 31.224 -28.573 30.671 C -27.743 29.591 -26.912 28.511 -26.081 27.431 C -22.249 22.451 -22.249 22.451 -18.425 17.466 C -17.571 16.36 -16.709 15.261 -15.837 14.169 C -13.928 11.763 -12.292 9.482 -10.914 6.73 C -8.307 1.874 -5.471 0.087 0 0 Z M 11.42 5.291 C 13.552 6.681 15.776 8.187 15.096 9.547 C 16.086 8.887 -5.372 9.646 12.42 7.291 C 12.09 6.631 11.76 5.971 11.42 5.291 Z M 10.676 9.547 C 9.686 10.537 11.603 12.683 10.583 13.703 C 10.913 14.363 8.336 13.867 8.676 14.547 C 9.666 13.557 -11.759 12.637 8.909 12.282 C 1.224 6.964 11.016 10.227 10.676 9.547 Z M 6.676 14.547 C 6.016 15.867 5.356 17.187 4.676 18.547 C 5.666 17.887 -8.509 13.059 -7.489 12.379 C -7.819 11.719 7.016 15.227 6.676 14.547 Z M 3.676 18.547 C 3.016 19.867 2.356 21.187 1.676 22.547 C 2.666 21.887 -16.692 18.18 -15.672 17.5 C -16.002 16.84 4.016 19.227 3.676 18.547 Z M -0.324 23.547 C -0.984 24.867 -1.644 26.187 -2.324 27.547 C -1.334 26.887 -19.677 22.725 -18.657 22.045 C -18.987 21.385 0.016 24.227 -0.324 23.547 Z M -4.324 28.547 C -4.324 31.547 -4.324 31.547 -4.324 31.547 L -4.324 28.547 Z M -7.324 32.547 C -7.324 35.547 -7.324 35.547 -7.324 35.547 L -7.324 32.547 Z M -11.324 37.547 C -11.324 40.547 -11.324 40.547 -11.324 40.547 L -11.324 37.547 Z M -14.324 41.547 C -14.324 44.547 -14.324 44.547 -14.324 44.547 L -14.324 41.547 Z M -18.324 46.547 C -17.324 48.547 -17.324 48.547 -17.324 48.547 L -18.324 46.547 Z M -21.324 50.547 C -21.324 53.547 -21.324 53.547 -21.324 53.547 L -21.324 50.547 Z M -25.324 55.547 C -24.324 57.547 -24.324 57.547 -24.324 57.547 L -25.324 55.547 Z M -28.324 59.547 C -27.324 61.547 -27.324 61.547 -27.324 61.547 L -28.324 59.547 Z M -32.324 64.547 C -31.324 66.547 -31.324 66.547 -31.324 66.547 L -32.324 64.547 Z" fill="#EFA332" transform="translate(199.32421875,185.453125)"/>
  <path d="M0 0 C-2.47112945 15.16499541 -2.47112945 15.16499541 -7.94256592 19.56060791 C-13.73294116 22.78094121 -20.10084867 24.49732186 -26.4375 26.3125 C-28.30876361 26.90413402 -30.1779423 27.50240488 -32.04492188 28.10742188 C-35.66130764 29.26775977 -39.2855041 30.3904256 -42.92529297 31.47509766 C-47.57098605 32.86082095 -52.18478091 34.32641413 -56.78515625 35.85546875 C-57.97117432 36.24758545 -59.15719238 36.63970215 -60.37915039 37.04370117 C-62.89263375 37.75200399 -62.89263375 37.75200399 -64 39 C-62.91058105 39.49927002 -61.82116211 39.99854004 -60.69873047 40.51293945 C-56.63917424 42.37372288 -52.58023848 44.23585638 -48.52148438 46.09838867 C-46.76807149 46.9027911 -45.01449279 47.70683217 -43.26074219 48.51049805 C-40.73328179 49.66879786 -38.20642966 50.82841565 -35.6796875 51.98828125 C-34.90132538 52.34465164 -34.12296326 52.70102203 -33.3210144 53.06819153 C-29.17495527 54.97303472 -25.0681841 56.93195926 -21 59 C-21.97076654 64.01562714 -23.13532663 68.58967744 -25.078125 73.3203125 C-25.61808105 74.64313232 -25.61808105 74.64313232 -26.16894531 75.99267578 C-26.58031738 76.98630127 -26.58031738 76.98630127 -27 78 C-39.57834546 72.43709537 -52.05464099 66.66548697 -64.5 60.8125 C-65.58979156 60.30082275 -65.58979156 60.30082275 -66.70159912 59.77880859 C-75.52731418 55.63279005 -84.30405092 51.41338104 -93 47 C-91.828125 40.84765625 -91.828125 40.84765625 -91 38 C-90.82233093 37.31541718 -90.64466187 36.63083435 -90.46160889 35.92550659 C-89.19068225 32.1398351 -88.06809987 29.67514964 -84.62530518 27.49894714 C-81.49657711 26.19189188 -78.35834818 25.11923374 -75.125 24.09765625 C-73.93189209 23.69018661 -72.73878418 23.28271698 -71.50952148 22.86289978 C-68.32489835 21.78173907 -65.13344 20.73069425 -61.93438721 19.69366455 C-58.79106986 18.66804234 -55.65981276 17.60703909 -52.52734375 16.54882812 C-48.79757093 15.2903714 -45.06667766 14.03653861 -41.32958984 12.79995728 C-34.83736624 10.65028053 -28.37730074 8.44239816 -21.94921875 6.10888672 C-21.29788467 5.87291873 -20.6465506 5.63695074 -19.97547913 5.39383221 C-16.84798582 4.25876163 -13.72489142 3.11367221 -10.60571289 1.95582581 C-9.50348389 1.553311 -8.40125488 1.1507962 -7.265625 0.73608398 C-5.80817871 0.19587868 -5.80817871 0.19587868 -4.32128906 -0.35523987 C-2 -1 -2 -1 0 0 Z " fill="#F3A430" transform="translate(138,197)"/>
  <path d="M0 0 C12.96853719 5.71853838 25.80962574 11.6979348 38.625 17.75 C39.40790405 18.11930634 40.19080811 18.48861267 40.99743652 18.86911011 C49.37687735 22.82377925 57.74402967 26.79147502 66 31 C64.73046875 37.25 64.73046875 37.25 64 40 C63.85121399 40.62506439 63.70242798 41.25012878 63.5491333 41.89413452 C61.971487 47.27613344 61.971487 47.27613344 59.40718079 49.18682861 C57.34410505 50.12898749 55.2910674 50.85393164 53.12890625 51.5390625 C52.33537247 51.81827545 51.54183868 52.0974884 50.72425842 52.38516235 C49.02722999 52.97872237 47.3253967 53.55869177 45.6194458 54.12609863 C43.03354516 54.98880864 40.46513377 55.89084899 37.89794922 56.80761719 C32.58962853 58.69811551 27.26454782 60.53807269 21.9375 62.375 C18.15556426 63.68422419 14.37451688 64.99599836 10.59375 66.30859375 C9.67673813 66.62673538 8.75972626 66.94487701 7.81492615 67.2726593 C-0.85968828 70.28759918 -9.50038253 73.39140839 -18.11938477 76.56201172 C-19.46987915 77.05531982 -19.46987915 77.05531982 -20.84765625 77.55859375 C-21.61086182 77.84017334 -22.37406738 78.12175293 -23.16040039 78.41186523 C-25 79 -25 79 -27 79 C-26.29108535 76.59170129 -25.56914214 74.19223891 -24.8046875 71.80078125 C-23.94582399 69.08539168 -23.94582399 69.08539168 -23.6953125 66.54296875 C-23.23109733 63.76241461 -22.66186453 62.30160422 -21 60 C-18.69920557 58.8616983 -16.60868425 58.00301984 -14.1953125 57.19140625 C-13.49530624 56.94276321 -12.79529999 56.69412018 -12.07408142 56.4379425 C-9.72159913 55.60834384 -7.36165993 54.80307384 -5 54 C-3.28690116 53.40873325 -1.57393232 52.81708973 0.13891602 52.22509766 C6.51248122 50.03270734 12.89933321 47.88002806 19.28637695 45.72729492 C22.0237661 44.80366495 24.75996646 43.87657872 27.49609375 42.94921875 C28.33756454 42.66696945 29.17903534 42.38472015 30.04600525 42.09391785 C33.81289703 41.06264643 33.81289703 41.06264643 37 39 C35.98164063 38.53625977 34.96328125 38.07251953 33.9140625 37.59472656 C30.10398146 35.85922259 26.2947846 34.12178526 22.48583984 32.38378906 C20.84317352 31.6345706 19.20027395 30.88586329 17.55712891 30.13769531 C15.18329019 29.05671229 12.81032111 27.97383956 10.4375 26.890625 C9.35106201 26.39662201 9.35106201 26.39662201 8.24267578 25.89263916 C3.44029184 23.69744128 -1.28822603 21.38371242 -6 19 C-5.02923346 13.98437286 -3.86467337 9.41032256 -1.921875 4.6796875 C-1.38191895 3.35686768 -1.38191895 3.35686768 -0.83105469 2.00732422 C-0.55680664 1.34490723 -0.28255859 0.68249023 0 0 Z " fill="#F3A530" transform="translate(391,196)"/>
  <path d="M 0.005 0.049 C 3.981 3.003 7.368 5.773 10 10 C 10.013 13.212 9.031 15.981 8 19 C 7.667 20.06 7.335 21.119 6.992 22.211 C 4.256 30.744 4.256 30.744 3 32 C 1.347 32.048 -0.308 32.037 -1.961 32 C -15.388 31.422 -15.388 31.422 -27.125 36.813 C -28.777 38.516 -30.4 40.247 -32 42 C -34.263 44.039 -36.603 45.982 -38.937 47.938 C -40.121 48.96 -41.303 49.983 -42.484 51.008 C -44.769 52.972 -47.085 54.879 -49.453 56.742 C -50.271 57.394 -50.271 57.394 -51.106 58.059 C -52.587 59.233 -54.08 60.392 -55.574 61.551 C -58.553 64.558 -59.562 67.051 -61 71 C -65.29 71 -69.58 71 -74 71 C -72.861 64.829 -71.593 60.178 -68 55 C -66 53.813 -66 53.813 -64 53 C -62.644 51.689 -61.314 50.353 -60 49 C -59.031 48.196 -58.061 47.391 -57.062 46.563 C -53.996 44.084 -53.996 44.084 -51.437 41.375 C -49.079 39.077 -46.832 37.639 -44 36 C -42.458 34.625 -42.458 34.625 -41 33 C -37.852 29.686 -34.944 27.283 -31 25 C -29.104 23.262 -27.572 21.465 -25.957 19.449 C -22.011 16.141 -3.535 17.863 1.436 18.117 C 2.223 18.157 7181163.765 1994793.13 -0.385 25.06 C -2.25 24.542 -6.929 17.529 -6 16 C -5.814 14.608 -5.814 14.608 -5.625 13.188 C -5 10 -5 10 -3 7 C -2.615 5.345 -2.272 3.678 -2 2 C -2.014 1.741 -1.937 0.259 -1.6 0.043 C -0.462 -0.287 -0.265 0.004 0.005 0.049 Z M -23 18 C -22.896 18.122 -25.27 18.252 -25.451 18.955 C -20.16 19.409 -2.835 18.988 -6 19 C -6 18.67 -6 18.34 -6 18 C -12.648 17.221 -14.639 17.262 -23 18 Z" fill="#ECA234" transform="translate(363,186)"/>
  <path d="M 229.924 185.878 C 237.982 185.669 249.085 185.673 255.108 185.504 C 258.515 185.408 263.238 185.201 266.46 185.291 C 270.872 185.414 273.889 185.16 277.304 185.049 C 278.809 185 280.385 184.997 281.741 184.895 C 287.536 184.461 292.164 185.227 296.837 188.709 C 301.203 192.807 303.499 195.746 303.963 201.856 C 303.633 202.186 303.303 202.516 302.963 202.856 C 299.614 204.899 290.015 202.071 303.969 201.875 C 303.504 202.779 302.999 203.67 302.319 204.35 C 299.753 204.291 303.674 203.15 301.961 204.818 C 300.655 206.09 298.811 208.507 296.994 208.364 C 296.499 208.859 301.468 205.351 300.963 205.856 C 303.273 205.856 305.583 205.856 307.963 205.856 C 305.151 209.608 301.123 212.244 297.922 215.042 C 296.279 216.478 296.079 216.32 295.038 217.521 C 294.278 218.398 293.22 218.963 292.284 219.705 C 290.617 221.038 289.629 222.522 287.963 223.856 C 287.711 223.346 287.46 222.837 287.2 222.311 C 286.052 220.006 284.883 217.713 283.713 215.419 C 283.317 214.616 282.922 213.814 282.514 212.987 C 281.924 211.841 281.924 211.841 281.322 210.672 C 280.966 209.965 280.61 209.258 280.243 208.53 C 278.634 206.426 277.494 206.367 274.963 205.856 C 274.077 204.866 273.959 204.866 273.963 203.856 C 280.398 203.361 280.398 203.361 286.963 202.856 C 287.252 201.268 287.541 199.68 287.838 198.044 C 288.47 194.566 288.96 192.86 290.963 189.856 C 290.963 189.196 290.963 188.536 290.963 187.856 C 271.163 187.856 249.696 187.856 229.296 187.856 C 229.296 187.526 229.924 186.218 229.924 185.878 Z M 289.963 192.856 C 290.963 194.856 290.963 194.856 290.963 194.856 L 289.963 192.856 Z M 288.963 195.856 C 289.963 197.856 289.963 197.856 289.963 197.856 L 288.963 195.856 Z" fill="#DF9E3C"/>
  <path d="M 0 0 C 5.61 0 11.22 0 17 0 C 23.791 15.312 24.017 11.344 21 13 C 16.843 13.624 13.136 13.843 9 13 C 4.759 9.463 1.747 5.241 0 0 Z" fill="#EAA135" transform="translate(224,205)"/>
</svg>