<?xml version="1.0" encoding="utf-8"?>
<svg version="1.1" width="524" height="222" xmlns="http://www.w3.org/2000/svg">
  <defs/>
  <path d="M0 0 C1.0528418 0.08507812 1.0528418 0.08507812 2.12695312 0.171875 C3.85630285 0.31304641 5.58454088 0.46771959 7.3125 0.625 C6.5 3.0625 6.5 3.0625 5.3125 5.625 C4.3225 5.955 3.3325 6.285 2.3125 6.625 C1.60854119 8.2762614 0.94848234 9.94638489 0.3125 11.625 C-0.90782325 13.45144408 -2.18284123 15.24210933 -3.5 17 C-4.89645118 18.87453989 -6.29224186 20.74957194 -7.6875 22.625 C-8.13230713 23.08817627 -8.57711426 23.55135254 -9.03540039 24.02856445 C-14.15096213 29.82949968 -13.46646316 36.68066975 -13.5 44.0625 C-13.52513672 45.36638672 -13.55027344 46.67027344 -13.57617188 48.01367188 C-13.63484319 51.21712559 -13.66408275 54.42109462 -13.6875 57.625 C-18.3075 57.625 -22.9275 57.625 -27.6875 57.625 C-29.01161386 54.97677229 -28.61116768 53.287808 -28.36328125 50.33984375 C-27.50307141 36.20541546 -28.135466 27.08953235 -37.484375 16.15234375 C-38.02771484 15.55405762 -38.57105469 14.95577148 -39.13085938 14.33935547 C-41.36065937 11.88363784 -43.38365267 9.29174887 -45.4375 6.6875 C-46.07171875 5.93597656 -46.7059375 5.18445313 -47.359375 4.41015625 C-48.6875 2.625 -48.6875 2.625 -48.6875 0.625 C-36.25400996 -1.18570243 -36.25400996 -1.18570243 -30.6875 0.625 C-27.03476782 3.78148826 -25.18082519 8.01813755 -23.21875 12.34375 C-22.7134375 13.4265625 -22.208125 14.509375 -21.6875 15.625 C-21.0275 15.625 -20.3675 15.625 -19.6875 15.625 C-18.12865075 13.35919635 -16.67274577 11.09902452 -15.25 8.75 C-10.89853706 1.58037917 -8.5534256 -0.79863918 0 0 Z " fill="#D53E4E" transform="translate(258.6875,76.375)"/>
  <path d="M0 0 C4.62 0 9.24 0 14 0 C12.51919438 4.44241686 10.95948554 8.75248661 9.2421875 13.1015625 C8.84553642 14.10774879 8.84553642 14.10774879 8.44087219 15.13426208 C7.58717607 17.29847485 6.73115945 19.46176068 5.875 21.625 C5.2880793 23.11121199 4.70124699 24.59745889 4.11450195 26.08374023 C-0.22472309 37.06873492 -4.59285953 48.04206464 -9 59 C-13.62 59 -18.24 59 -23 59 C-21.66264696 54.98794088 -20.2950227 51.09329204 -18.75 47.16796875 C-18.09124878 45.49202637 -18.09124878 45.49202637 -17.41918945 43.78222656 C-16.95085693 42.5959668 -16.48252441 41.40970703 -16 40.1875 C-15.51813232 38.96385742 -15.03626465 37.74021484 -14.53979492 36.47949219 C-9.74008547 24.30094876 -4.87799684 12.14737608 0 0 Z " fill="#CE3244" transform="translate(287,76)"/>
  <path d="M 0 0 C 5.023 0.564 9.318 1.683 14.027 3.504 C 14.978 3.868 14.978 3.868 15.948 4.239 C 17.947 5.007 19.942 5.785 21.938 6.563 C 23.302 7.089 24.668 7.614 26.033 8.139 C 29.358 9.418 31.681 10.708 35 12.001 C 36.492 22.165 37.492 22.164 36 26 C 32.873 27.967 29.524 29.11 26.035 30.291 C 23.73 31.094 21.461 31.974 19.188 32.863 C 17.5 33.514 15.813 34.164 14.125 34.813 C 13.317 35.127 12.509 35.442 11.676 35.766 C 7.289 37.402 3.763 38.391 -1 38 C -0.67 34.7 -0.34 31.4 0 28 C 7.924 24.759 15.925 21.839 24 19 C 22.77 18.59 21.54 18.18 20.273 17.758 C 13.516 15.505 6.758 13.253 0 11 C 0 7.37 0 3.74 0 0 Z" fill="#C93849" transform="translate(300,96)"/>
  <path d="M0 0 C-0.33 3.63 -0.66 7.26 -1 11 C-4.24741067 12.17434039 -7.49757549 13.33969979 -10.75 14.5 C-12.13058594 15.00080078 -12.13058594 15.00080078 -13.5390625 15.51171875 C-14.87324219 15.98544922 -14.87324219 15.98544922 -16.234375 16.46875 C-17.45979004 16.90864258 -17.45979004 16.90864258 -18.70996094 17.35742188 C-21 18 -21 18 -25 18 C-25 18.66 -25 19.32 -25 20 C-24.20335937 20.10183594 -23.40671875 20.20367187 -22.5859375 20.30859375 C-18.10905186 21.17178412 -13.93043659 22.58272076 -9.625 24.0625 C-8.79355469 24.34416016 -7.96210938 24.62582031 -7.10546875 24.91601562 C-5.06891559 25.60657101 -3.03426119 26.30272179 -1 27 C-1 30.63 -1 34.26 -1 38 C-7.80909157 37.43742548 -13.77936927 35.05556886 -20.125 32.625 C-21.19621094 32.22539062 -22.26742187 31.82578125 -23.37109375 31.4140625 C-33.02539775 27.75913297 -33.02539775 27.75913297 -37 25 C-37.59375 22.40625 -37.59375 22.40625 -37.5 19.5 C-37.4896875 18.5409375 -37.479375 17.581875 -37.46875 16.59375 C-36.91454797 13.52716545 -36.3838603 12.92963956 -34 11 C-31.42797852 9.86499023 -31.42797852 9.86499023 -28.37890625 8.80859375 C-26.72858398 8.22754883 -26.72858398 8.22754883 -25.04492188 7.63476562 C-23.89572266 7.23966797 -22.74652344 6.84457031 -21.5625 6.4375 C-19.29222205 5.64667161 -17.02265947 4.85378578 -14.75390625 4.05859375 C-13.74658447 3.71111084 -12.7392627 3.36362793 -11.70141602 3.00561523 C-9.05558375 2.09603544 -9.05558375 2.09603544 -6.95288086 0.87133789 C-5 0 -5 0 0 0 Z " fill="#C93A4B" transform="translate(212,96)"/>
  <path d="M0 0 C0.66 0 1.32 0 2 0 C0.56437179 4.43393136 -1.04624829 8.76700759 -2.7578125 13.1015625 C-3.15446358 14.10774879 -3.15446358 14.10774879 -3.55912781 15.13426208 C-4.41282393 17.29847485 -5.26884055 19.46176068 -6.125 21.625 C-6.7119207 23.11121199 -7.29875301 24.59745889 -7.88549805 26.08374023 C-12.22472309 37.06873492 -16.59285953 48.04206464 -21 59 C-25.62 59 -30.24 59 -35 59 C-35 58.67 -35 58.34 -35 58 C-31.04 58 -27.08 58 -23 58 C-22.67 56.35 -22.34 54.7 -22 53 C-19.85994791 46.79384893 -17.39115045 40.73527296 -14.5625 34.8125 C-11.94566854 29.21675976 -10.06562143 23.43300991 -8.23071289 17.54418945 C-6.22684086 11.24183457 -3.67441306 5.5116196 0 0 Z " fill="#F8EAEC" transform="translate(299,76)"/>
  <path d="M0 0 C0.99 0 1.98 0 3 0 C2.1875 2.4375 2.1875 2.4375 1 5 C0.01 5.33 -0.98 5.66 -2 6 C-2.70395881 7.6512614 -3.36401766 9.32138489 -4 11 C-5.22032325 12.82644408 -6.49534123 14.61710933 -7.8125 16.375 C-9.20895118 18.24953989 -10.60474186 20.12457194 -12 22 C-12.44480713 22.46317627 -12.88961426 22.92635254 -13.34790039 23.40356445 C-18.46346213 29.20449968 -17.77896316 36.05566975 -17.8125 43.4375 C-17.83763672 44.74138672 -17.86277344 46.04527344 -17.88867188 47.38867188 C-17.94734319 50.59212559 -17.97658275 53.79609462 -18 57 C-22.62 57 -27.24 57 -32 57 C-32 56.67 -32 56.34 -32 56 C-28.04 56 -24.08 56 -20 56 C-20.12761719 54.15277344 -20.25523437 52.30554688 -20.38671875 50.40234375 C-21.52412831 26.8964113 -21.52412831 26.8964113 -13.56323242 17.86083984 C-12.55220309 16.77437503 -11.52873402 15.69934259 -10.49267578 14.63671875 C-7.96490548 11.86501903 -6.02406842 8.71014692 -4 5.5625 C-1.875 2.31640625 -1.875 2.31640625 0 0 Z " fill="#F3D7DB" transform="translate(263,77)"/>
  <path d="M 0 0 C 2.386 4.772 2.332 6.774 2 12 C 0.921 15.803 -1.042 15.651 -4.727 16.938 C -5.677 17.275 -6.627 17.613 -7.605 17.961 C -8.602 18.304 -9.598 18.647 -10.625 19 C -12.576 19.687 -14.314 20.553 -16.279 21.198 C -17.13 21.477 -18.217 21.926 -19.179 22.28 C -21.539 23.148 -23.435 23.964 -26.322 24.888 C -29.737 25.981 -32.374 26.421 -36 26.019 C -34.237 25.956 -32.559 24.317 -31.234 23.738 C -29.908 23.158 -30.113 23.266 -29.574 23.092 C -26.076 21.959 -28.083 22.502 -24.625 21.25 C -23.659 20.902 -22.694 20.554 -21.699 20.195 C -16.098 18.165 -10.561 16.043 -5.072 13.726 C -3 13 -3 13 0 13 C 0 8.71 0 4.42 0 0 Z" fill="#F8ECED" transform="translate(335,108)"/>
  <path d="M0 0 C0.66 0 1.32 0 2 0 C1.67 3.63 1.34 7.26 1 11 C-2.24741067 12.17434039 -5.49757549 13.33969979 -8.75 14.5 C-10.13058594 15.00080078 -10.13058594 15.00080078 -11.5390625 15.51171875 C-12.87324219 15.98544922 -12.87324219 15.98544922 -14.234375 16.46875 C-15.45979004 16.90864258 -15.45979004 16.90864258 -16.70996094 17.35742188 C-19 18 -19 18 -23 18 C-23 18.66 -23 19.32 -23 20 C-23.99 19.67 -24.98 19.34 -26 19 C-25 17 -25 17 -22.91455078 16.13037109 C-22.01720215 15.84758301 -21.11985352 15.56479492 -20.1953125 15.2734375 C-18.73158203 14.809375 -18.73158203 14.809375 -17.23828125 14.3359375 C-16.21089844 14.01882812 -15.18351563 13.70171875 -14.125 13.375 C-12.59552734 12.88773438 -12.59552734 12.88773438 -11.03515625 12.390625 C-3.41127232 10 -3.41127232 10 0 10 C0 6.7 0 3.4 0 0 Z " fill="#F7E4E6" transform="translate(210,96)"/>
</svg>