<?xml version="1.0" encoding="UTF-8"?>
<svg version="1.1" xmlns="http://www.w3.org/2000/svg" width="96" height="96">
<path d="M0 0 C3.07275391 -0.34057617 3.07275391 -0.34057617 6.9765625 -0.29296875 C7.66181 -0.28872391 8.3470575 -0.28447906 9.05307007 -0.28010559 C11.24411129 -0.26329753 13.43423632 -0.22564405 15.625 -0.1875 C17.10936173 -0.17245579 18.59373785 -0.15876693 20.078125 -0.14648438 C23.71904833 -0.1133879 27.35943478 -0.06159207 31 0 C35.93535715 9.22371891 39.78411092 18.89750809 43.75 28.5625 C44.48915182 30.35699647 45.22865999 32.15134621 45.96850586 33.94555664 C47.12235793 36.74388564 48.27592624 39.54232783 49.42808533 42.34135437 C52.23159194 49.14946608 55.05797665 55.94778629 57.89453125 62.7421875 C59.07010989 65.56177061 60.24545766 68.38144989 61.42077637 71.20114136 C62.18099535 73.02315128 62.9423048 74.8447066 63.70471191 76.665802 C64.76598777 79.2016575 65.822923 81.73928071 66.87890625 84.27734375 C67.19680618 85.03373138 67.51470612 85.79011902 67.84223938 86.56942749 C70 91.77222093 70 91.77222093 70 94 C61.09 94 52.18 94 43 94 C40.03 87.07 37.06 80.14 34 73 C30.20218687 73 29.03005731 74.13669234 25.95703125 76.32421875 C24.96509766 77.02353516 23.97316406 77.72285156 22.95117188 78.44335938 C21.91541016 79.18392578 20.87964844 79.92449219 19.8125 80.6875 C-1.32326462 95.68491319 -1.32326462 95.68491319 -9 95 C-14.74803194 92.45760126 -17.0650902 88.26350589 -20 83 C-20.55429687 82.11441406 -21.10859375 81.22882813 -21.6796875 80.31640625 C-22.51886719 78.92228516 -22.51886719 78.92228516 -23.375 77.5 C-23.89835937 76.6440625 -24.42171875 75.788125 -24.9609375 74.90625 C-27.89469816 66.70054349 -22.86866058 57.61758265 -19.94140625 49.98046875 C-19.43129777 48.63170514 -18.92186375 47.28268627 -18.41307068 45.9334259 C-17.35005561 43.1199475 -16.28124761 40.30876787 -15.20776367 37.49926758 C-13.83274598 33.90016081 -12.46891932 30.29694389 -11.10893345 26.6921339 C-10.05947529 23.91228595 -9.00595087 21.13399439 -7.95100212 18.35622597 C-7.44661445 17.02768101 -6.94307373 15.69881418 -6.44040108 14.36961937 C-5.73830579 12.51602049 -5.030536 10.66457395 -4.32250977 8.81323242 C-3.92137466 7.76036545 -3.52023956 6.70749847 -3.10694885 5.62272644 C-2 3 -2 3 0 0 Z M15 30 C11.1469323 37.40509762 7.76101121 44.98378681 4.49584961 52.66235352 C3.67482735 54.59228895 2.84847786 56.51988235 2.02148438 58.44726562 C-0.67173605 63.59568433 -0.67173605 63.59568433 -2 69 C9.22 69 20.44 69 32 69 C31.06031699 64.30158494 29.56582983 60.39733355 27.62109375 56.07421875 C27.28956802 55.32662796 26.9580423 54.57903717 26.61647034 53.80879211 C25.56155297 51.43288665 24.49964087 49.06018371 23.4375 46.6875 C22.71893648 45.07247224 22.00083235 43.45724 21.28320312 41.84179688 C19.52744776 37.89214296 17.76541458 33.94534533 16 30 C15.67 30 15.34 30 15 30 Z " fill="#004DA1" transform="translate(26,0)"/>
<path d="M0 0 C2.78076637 2.78076637 3.85804115 6.13637872 5.31640625 9.72265625 C5.64519775 10.5195285 5.97398926 11.31640076 6.31274414 12.13742065 C7.40071386 14.7771998 8.48165148 17.41979801 9.5625 20.0625 C10.31519184 21.89350876 11.06837207 23.72431682 11.82202148 25.55493164 C12.99918906 28.41459136 14.17590786 31.27442858 15.35072327 34.13505554 C18.18072523 41.02370911 21.03668854 47.90117833 23.90625 54.7734375 C24.69463698 56.66395739 25.48296796 58.55450064 26.27124023 60.44506836 C27.41382062 63.18527061 28.55729874 65.92507726 29.70388794 68.66360474 C30.76545703 71.20018511 31.82266308 73.738542 32.87890625 76.27734375 C33.35577881 77.41198563 33.35577881 77.41198563 33.84228516 78.56954956 C36 83.77220352 36 83.77220352 36 86 C27.09 86 18.18 86 9 86 C-0.5565831 68.04900795 -1.16044692 53.1616316 -0.61798096 33.42651367 C-0.52427416 29.64484119 -0.48446765 25.86258797 -0.43945312 22.08007812 C-0.34423538 14.71852032 -0.19159804 7.35974943 0 0 Z " fill="#0057B9" transform="translate(60,8)"/>
<path d="M0 0 C0.99 0 1.98 0 3 0 C4.82771222 3.84712996 6.6343845 7.70378814 8.4375 11.5625 C8.95376953 12.64853516 9.47003906 13.73457031 10.00195312 14.85351562 C10.49501953 15.91376953 10.98808594 16.97402344 11.49609375 18.06640625 C12.17949829 19.5196228 12.17949829 19.5196228 12.87670898 21.00219727 C15.22401781 27.26661914 15.30992047 31.34388586 12.69949341 37.38301086 C12.34748871 38.14993759 11.99548401 38.91686432 11.6328125 39.70703125 C11.10154251 40.91693977 11.10154251 40.91693977 10.55953979 42.15129089 C9.43050024 44.71238259 8.2782033 47.26221137 7.125 49.8125 C6.35652404 51.54553797 5.58958019 53.27925619 4.82421875 55.01367188 C-0.32653651 66.65307301 -0.32653651 66.65307301 -2 70 C-9.92 70 -17.84 70 -26 70 C-25.23679541 65.42077247 -24.4102561 62.01732755 -22.80688477 57.7668457 C-22.35293839 56.55571609 -21.898992 55.34458649 -21.43128967 54.09675598 C-20.93489221 52.7896769 -20.43825877 51.48268742 -19.94140625 50.17578125 C-19.4315878 48.82404921 -18.92214852 47.4721741 -18.41307068 46.12016296 C-17.3481167 43.29549355 -16.27937547 40.4722966 -15.20776367 37.65014648 C-13.8350459 34.03442583 -12.47066237 30.41562964 -11.10893345 26.79575825 C-10.05920868 24.00743324 -9.00571071 21.22054622 -7.95100212 18.43410301 C-7.44642898 17.10004466 -6.94288745 15.76559565 -6.44040108 14.43074989 C-5.73818356 12.56740738 -5.03047035 10.70613877 -4.32250977 8.8449707 C-3.72080711 7.25662163 -3.72080711 7.25662163 -3.10694885 5.63618469 C-2 3 -2 3 0 0 Z " fill="#68870A" transform="translate(26,0)"/>
<path d="M0 0 C0 0.99 0 1.98 0 3 C-2.09299697 4.62685753 -4.13713839 6.03415682 -6.375 7.4375 C-7.75074817 8.31914613 -9.12571406 9.20201382 -10.5 10.0859375 C-11.23089844 10.55354492 -11.96179687 11.02115234 -12.71484375 11.50292969 C-15.07619856 13.04991982 -17.38328344 14.65834207 -19.6875 16.2890625 C-20.46818848 16.83377197 -21.24887695 17.37848145 -22.05322266 17.93969727 C-23.56706433 18.9977946 -25.07247227 20.06809363 -26.56787109 21.15209961 C-31.50473096 24.55413485 -35.91143722 26.34633292 -42 26 C-47.72526921 23.46766939 -50.10029167 19.26823886 -53 14 C-53.81404297 12.56720703 -53.81404297 12.56720703 -54.64453125 11.10546875 C-59 3.3227459 -59 3.3227459 -59 1 C-39.32672624 -0.09603659 -19.69593312 -0.11036514 0 0 Z " fill="#01ADAC" transform="translate(59,69)"/>
<path d="M0 0 C0.99 0 1.98 0 3 0 C4.82771222 3.84712996 6.6343845 7.70378814 8.4375 11.5625 C8.95376953 12.64853516 9.47003906 13.73457031 10.00195312 14.85351562 C10.74155273 16.44389648 10.74155273 16.44389648 11.49609375 18.06640625 C11.95169678 19.03521729 12.4072998 20.00402832 12.87670898 21.00219727 C15.23521892 27.29651231 15.29880132 31.3698582 12.67384338 37.43431091 C12.31870163 38.20751175 11.96355988 38.98071259 11.59765625 39.77734375 C11.24110458 40.58869278 10.88455292 41.40004181 10.51719666 42.23597717 C9.38144886 44.81051574 8.22248012 47.37380197 7.0625 49.9375 C6.28554975 51.68745943 5.5101418 53.43810448 4.73632812 55.18945312 C2.84198376 59.46777985 0.92675278 63.73617626 -1 68 C-1.33 68 -1.66 68 -2 68 C-2.04631753 59.5768788 -2.08186618 51.15381071 -2.10362434 42.73059368 C-2.11406657 38.81945488 -2.12823372 34.90840314 -2.15087891 30.99731445 C-2.17259173 27.22368831 -2.18456532 23.45014596 -2.18975449 19.67646217 C-2.19345306 18.23593641 -2.20067536 16.79541529 -2.21146011 15.35492516 C-2.22595347 13.33911986 -2.22681674 11.32323044 -2.22705078 9.30737305 C-2.231492 8.15931686 -2.23593323 7.01126068 -2.24050903 5.82841492 C-2 3 -2 3 0 0 Z " fill="#779A0B" transform="translate(26,0)"/>
<path d="M0 0 C7.92 0 15.84 0 24 0 C24.0309375 5.9090625 24.0309375 5.9090625 24.0625 11.9375 C24.071604 13.18136475 24.08070801 14.42522949 24.09008789 15.70678711 C24.09258545 16.6788208 24.09508301 17.65085449 24.09765625 18.65234375 C24.10551147 20.15269165 24.10551147 20.15269165 24.11352539 21.68334961 C24 24 24 24 23 25 C19.32085854 25.42780715 17.28634398 25.14025011 13.9375 23.5 C10.27254513 20.38088947 8.30063775 17.17983735 6 13 C5.18595703 11.56720703 5.18595703 11.56720703 4.35546875 10.10546875 C0 2.3227459 0 2.3227459 0 0 Z " fill="#019797" transform="translate(0,70)"/>
</svg>
