<?xml version="1.0" encoding="UTF-8"?>
<svg version="1.1" xmlns="http://www.w3.org/2000/svg" width="200" height="200">
<path d="M0 0 C66 0 132 0 200 0 C200 66 200 132 200 200 C134 200 68 200 0 200 C0 134 0 68 0 0 Z " fill="#FFFEFE" transform="translate(0,0)"/>
<path d="M0 0 C2.69990662 1.79993774 4.5418865 3.083773 6 6 C6.09995932 8.030969 6.13559652 10.06521503 6.1418457 12.09863281 C6.15239738 14.02138031 6.15239738 14.02138031 6.16316223 15.98297119 C6.16497812 16.67030586 6.16679401 17.35764053 6.16866493 18.06580353 C6.1758322 20.21842683 6.19150176 22.37082241 6.21000671 24.52337646 C6.26245479 30.64429544 6.31042259 36.76509176 6.32592773 42.88623047 C6.33603287 46.63001326 6.36542329 50.37322599 6.40724754 54.11678314 C6.4195298 55.54081654 6.42468386 56.96493058 6.42244911 58.3890152 C6.42008558 60.38733454 6.44451452 62.38563047 6.4699707 64.38378906 C6.47583694 65.519151 6.48170319 66.65451294 6.48774719 67.82427979 C7.22167677 72.37428901 9.10910932 75.61894548 12.85939026 78.35804749 C15.7171007 79.21505302 18.26494677 79.25977542 21.24975586 79.27124023 C22.5146434 79.28142685 23.77953094 79.29161346 25.08274841 79.30210876 C26.09249127 79.30352025 26.09249127 79.30352025 27.12263298 79.30496025 C29.2374252 79.30863297 31.35175224 79.32538332 33.46644592 79.34571838 C39.47713564 79.40104622 45.48789317 79.43180735 51.4987793 79.45629883 C55.1799272 79.47219964 58.86074357 79.50244285 62.54171944 79.54106331 C63.94146765 79.55268935 65.34127521 79.55864345 66.7410717 79.55874443 C68.70104443 79.55893711 70.6609853 79.57874901 72.62084961 79.59936523 C73.73463486 79.60443588 74.8484201 79.60950653 75.99595642 79.61473083 C79.40588135 80.05205436 81.25901292 80.95320669 84 83 C86.35620437 86.53430656 86.48991613 87.83571287 86 92 C83.54329566 96.81104601 80.07361627 99.80224716 76.01171875 103.2109375 C74.11991942 104.89335322 72.54203661 106.60952515 70.9375 108.5625 C68.45091378 111.58818351 65.72882431 113.98628717 62.71484375 116.47265625 C60.97591854 118.0214484 59.53980331 119.63991412 58.0625 121.4375 C55.3143148 124.77196471 52.22995255 127.45675751 48.94140625 130.24609375 C47.08915667 131.91945404 45.52312046 133.63861384 43.9375 135.5625 C39.34152769 141.1076405 34.34770192 146.24781842 26.97265625 147.28515625 C19.88777766 147.75748149 15.48200845 144.95428779 10.18946075 140.46385956 C8.35961782 138.75992784 6.58504416 137.01343744 4.82128906 135.24121094 C4.15354965 134.58194107 3.48581024 133.9226712 2.7978363 133.24342346 C0.61262957 131.08144372 -1.56136963 128.90861322 -3.734375 126.734375 C-5.26006555 125.2157933 -6.78605104 123.69750787 -8.31231689 122.17950439 C-11.50133307 119.00389928 -14.68439022 115.82245914 -17.86376953 112.63720703 C-21.9276696 108.56740649 -26.009536 104.51616824 -30.09652328 100.46957016 C-33.25028337 97.34172242 -36.39243525 94.20240946 -39.53144073 91.05976105 C-41.03131535 89.56157353 -42.53515119 88.06734032 -44.04308319 86.57726288 C-46.15386209 84.4887477 -48.24800115 82.38479295 -50.33886719 80.27636719 C-50.95711868 79.67137894 -51.57537018 79.06639069 -52.21235657 78.44306946 C-57.305551 73.25050651 -60.42101873 67.6668814 -61.5625 60.4375 C-59.99916183 50.88376676 -51.66568552 44.25476983 -45.08203125 37.75390625 C-44.01721193 36.69215019 -42.95298733 35.6297974 -41.889328 34.56687927 C-39.67237528 32.35450229 -37.45063848 30.14709398 -35.22485352 27.94360352 C-32.36976616 25.1169698 -29.52358833 22.28157028 -26.68047047 19.44290257 C-24.48914372 17.25572489 -22.29500083 15.0713924 -20.0997982 12.88810539 C-19.04874122 11.84274698 -17.99815211 10.79691793 -16.9480381 9.75061226 C-15.48594005 8.29536887 -14.02051459 6.84356765 -12.55395508 5.39282227 C-11.72076248 4.56645767 -10.88756989 3.74009308 -10.02912903 2.88868713 C-6.70748749 -0.20305397 -4.49650688 -0.44083401 0 0 Z " fill="#FF8435" transform="translate(74,40)"/>
<path d="M0 0 C1.28483276 -0.0157608 2.56966553 -0.03152161 3.89343262 -0.04776001 C5.28768779 -0.03880993 6.68193511 -0.02855486 8.07617188 -0.01708984 C9.51436777 -0.02046066 10.95256089 -0.02531549 12.39074707 -0.03158569 C15.40026049 -0.03894477 18.40903029 -0.02828425 21.41845703 -0.00488281 C25.26906778 0.02360631 29.11793611 0.00719689 32.96848297 -0.02274513 C35.93692059 -0.04084536 38.90494759 -0.03504803 41.87339783 -0.02210617 C43.29272164 -0.01877959 44.71208319 -0.02283299 46.13136292 -0.03450394 C48.11751557 -0.04725356 50.10379959 -0.02436243 52.08984375 0 C53.21837769 0.00397797 54.34691162 0.00795593 55.50964355 0.01205444 C59.5953118 0.86669277 61.06629819 2.32715348 63.54492188 5.64697266 C64.15965271 8.65101624 64.15965271 8.65101624 64.14428711 12.02612305 C64.15036484 13.29416275 64.15644257 14.56220245 64.16270447 15.8686676 C64.14380052 17.24399963 64.12405053 18.61932026 64.10351562 19.99462891 C64.09926207 21.4127916 64.09693656 22.83096126 64.09645081 24.24913025 C64.09029583 27.21580747 64.0676472 30.18172653 64.03198242 33.14819336 C63.98666903 36.94688097 63.97195362 40.74488363 63.96824551 44.54381657 C63.96381286 47.47011542 63.9485026 50.3962712 63.92936897 53.32250786 C63.92050355 54.72310653 63.91376543 56.12372036 63.9092083 57.52433968 C63.90014547 59.48203951 63.87606076 61.43965235 63.85131836 63.3972168 C63.83535866 65.06670128 63.83535866 65.06670128 63.81907654 66.76991272 C63.54341674 69.662768 63.2189484 71.28810294 61.54492188 73.64697266 C58.27543896 75.96723694 55.22385751 75.91581219 51.29516602 75.95336914 C50.03027847 75.96935654 48.76539093 75.98534393 47.46217346 76.0018158 C46.08481246 76.00819204 44.7074466 76.01358493 43.33007812 76.01806641 C41.91287645 76.02703692 40.49567572 76.03615884 39.07847595 76.04542542 C36.11031801 76.06189788 33.14227264 76.06961253 30.17407227 76.07250977 C26.37626809 76.0778973 22.5795257 76.11559788 18.78202152 76.16125393 C15.85570942 76.19103697 12.92965292 76.19823354 10.00320244 76.19923592 C8.60336878 76.2034345 7.20353411 76.21585461 5.80385017 76.23675346 C3.84410671 76.26369015 1.88397833 76.25573174 -0.07592773 76.24633789 C-1.18971298 76.25140854 -2.30349823 76.25647919 -3.45103455 76.26170349 C-7.52723901 75.42757159 -8.98394352 73.95373777 -11.45507812 70.64697266 C-12.08999634 67.61169434 -12.08999634 67.61169434 -12.10205078 64.19189453 C-12.11781158 62.90706177 -12.13357239 61.622229 -12.14981079 60.29846191 C-12.14086071 58.90420674 -12.13060564 57.50995942 -12.11914062 56.11572266 C-12.12251144 54.67752676 -12.12736627 53.23933364 -12.13363647 51.80114746 C-12.14099555 48.79163404 -12.13033503 45.78286425 -12.10693359 42.7734375 C-12.07844447 38.92282675 -12.09485389 35.07395842 -12.12479591 31.22341156 C-12.14289614 28.25497394 -12.13709881 25.28694694 -12.12415695 22.3184967 C-12.12083037 20.89917289 -12.12488377 19.47981134 -12.13655472 18.06053162 C-12.14930434 16.07437896 -12.12641321 14.08809494 -12.10205078 12.10205078 C-12.09807281 10.97351685 -12.09409485 9.84498291 -12.08999634 8.68225098 C-10.68510813 1.96606826 -6.42207765 0.02263716 0 0 Z " fill="#FF8536" transform="translate(108.455078125,27.35302734375)"/>
</svg>
